<?xml version="1.0" encoding="us-ascii" standalone="no"?><svg xmlns="http://www.w3.org/2000/svg" xmlns:xlink="http://www.w3.org/1999/xlink" contentStyleType="text/css" height="1037px" preserveAspectRatio="none" style="width:2293px;height:1037px;background:#FFFFFF;" version="1.1" viewBox="0 0 2293 1037" width="2293px" zoomAndPan="magnify"><defs/><g><!--cluster API--><g id="cluster_API"><path d="M8.5,82 L31.5,82 A3.75,3.75 0 0 1 34,84.5 L41,105.6094 L708.5,105.6094 A2.5,2.5 0 0 1 711,108.1094 L711,313.5 A2.5,2.5 0 0 1 708.5,316 L8.5,316 A2.5,2.5 0 0 1 6,313.5 L6,84.5 A2.5,2.5 0 0 1 8.5,82 " fill="none" style="stroke:#000000;stroke-width:1.5;"/><line style="stroke:#000000;stroke-width:1.5;" x1="6" x2="41" y1="105.6094" y2="105.6094"/><text fill="#000000" font-family="sans-serif" font-size="14" font-weight="bold" lengthAdjust="spacing" textLength="22" x="10" y="98.5332">API</text></g><!--cluster Services--><g id="cluster_Services"><path d="M741.5,6 L804.5,6 A3.75,3.75 0 0 1 807,8.5 L814,29.6094 L1974.5,29.6094 A2.5,2.5 0 0 1 1977,32.1094 L1977,443.5 A2.5,2.5 0 0 1 1974.5,446 L741.5,446 A2.5,2.5 0 0 1 739,443.5 L739,8.5 A2.5,2.5 0 0 1 741.5,6 " fill="none" style="stroke:#000000;stroke-width:1.5;"/><line style="stroke:#000000;stroke-width:1.5;" x1="739" x2="814" y1="29.6094" y2="29.6094"/><text fill="#000000" font-family="sans-serif" font-size="14" font-weight="bold" lengthAdjust="spacing" textLength="62" x="743" y="22.5332">Services</text></g><!--cluster Repositories--><g id="cluster_Repositories"><path d="M1444.5,470 L1535.5,470 A3.75,3.75 0 0 1 1538,472.5 L1545,493.6094 L2028.5,493.6094 A2.5,2.5 0 0 1 2031,496.1094 L2031,976.5 A2.5,2.5 0 0 1 2028.5,979 L1444.5,979 A2.5,2.5 0 0 1 1442,976.5 L1442,472.5 A2.5,2.5 0 0 1 1444.5,470 " fill="none" style="stroke:#000000;stroke-width:1.5;"/><line style="stroke:#000000;stroke-width:1.5;" x1="1442" x2="1545" y1="493.6094" y2="493.6094"/><text fill="#000000" font-family="sans-serif" font-size="14" font-weight="bold" lengthAdjust="spacing" textLength="90" x="1446" y="486.5332">Repositories</text></g><!--cluster Entities--><g id="cluster_Entities"><path d="M2061.5,401 L2115.5,401 A3.75,3.75 0 0 1 2118,403.5 L2125,424.6094 L2283.5,424.6094 A2.5,2.5 0 0 1 2286,427.1094 L2286,1027.5 A2.5,2.5 0 0 1 2283.5,1030 L2061.5,1030 A2.5,2.5 0 0 1 2059,1027.5 L2059,403.5 A2.5,2.5 0 0 1 2061.5,401 " fill="none" style="stroke:#000000;stroke-width:1.5;"/><line style="stroke:#000000;stroke-width:1.5;" x1="2059" x2="2125" y1="424.6094" y2="424.6094"/><text fill="#000000" font-family="sans-serif" font-size="14" font-weight="bold" lengthAdjust="spacing" textLength="53" x="2063" y="417.5332">Entities</text></g><!--class CelestialBodyController--><g id="elem_CelestialBodyController"><rect codeLine="5" fill="#F1F1F1" height="181.9688" id="CelestialBodyController" rx="2.5" ry="2.5" style="stroke:#181818;stroke-width:0.5;" width="673" x="22" y="118"/><ellipse cx="280.25" cy="139.3516" fill="#ADD1B2" rx="11" ry="11" style="stroke:#181818;stroke-width:1.0;"/><path d="M283.0156,135.2266 Q283.1719,135.0078 283.3594,134.8984 Q283.5469,134.7891 283.7656,134.7891 Q284.1406,134.7891 284.375,135.0547 Q284.6094,135.3047 284.6094,135.9141 L284.6094,137.3672 Q284.6094,137.9766 284.375,138.2422 Q284.1406,138.5078 283.7656,138.5078 Q283.4219,138.5078 283.2188,138.3047 Q283.0156,138.1172 282.9063,137.6016 Q282.8594,137.2422 282.6719,137.0547 Q282.3438,136.6797 281.7344,136.4609 Q281.125,136.2422 280.5,136.2422 Q279.7344,136.2422 279.0938,136.5703 Q278.4688,136.8984 277.9688,137.6484 Q277.4844,138.3984 277.4844,139.4297 L277.4844,140.5234 Q277.4844,141.7578 278.375,142.5859 Q279.2656,143.3984 280.8594,143.3984 Q281.7969,143.3984 282.4531,143.1484 Q282.8438,142.9922 283.2656,142.5547 Q283.5313,142.2891 283.6719,142.2109 Q283.8281,142.1328 284.0313,142.1328 Q284.3594,142.1328 284.6094,142.3984 Q284.875,142.6484 284.875,142.9922 Q284.875,143.3359 284.5313,143.7422 Q284.0313,144.3203 283.2344,144.6484 Q282.1563,145.1016 280.8594,145.1016 Q279.3438,145.1016 278.1406,144.4766 Q277.1563,143.9766 276.4688,142.9141 Q275.7813,141.8359 275.7813,140.5547 L275.7813,139.3984 Q275.7813,138.0703 276.3906,136.9297 Q277.0156,135.7734 278.1094,135.1641 Q279.2031,134.5391 280.4375,134.5391 Q281.1719,134.5391 281.8125,134.7109 Q282.4688,134.8672 283.0156,135.2266 Z " fill="#000000"/><text fill="#000000" font-family="sans-serif" font-size="12" font-style="italic" lengthAdjust="spacing" textLength="65" x="342.25" y="135.457">&#171;controller&#187;</text><text fill="#000000" font-family="sans-serif" font-size="14" lengthAdjust="spacing" textLength="148" x="300.75" y="152.627">CelestialBodyController</text><line style="stroke:#181818;stroke-width:0.5;" x1="23" x2="694" y1="160.7031" y2="160.7031"/><line style="stroke:#181818;stroke-width:0.5;" x1="23" x2="694" y1="168.7031" y2="168.7031"/><ellipse cx="33" cy="183.0078" fill="#84BE84" rx="3" ry="3" style="stroke:#038048;stroke-width:1.0;"/><text fill="#000000" font-family="sans-serif" font-size="14" lengthAdjust="spacing" textLength="320" x="42" y="187.2363">getCelestialBodyById(id: Guid) : CelestialBodyDTO</text><ellipse cx="33" cy="200.6172" fill="#84BE84" rx="3" ry="3" style="stroke:#038048;stroke-width:1.0;"/><text fill="#000000" font-family="sans-serif" font-size="14" lengthAdjust="spacing" textLength="308" x="42" y="204.8457">getAllCelestialBodies() : List&lt;CelestialBodyDTO&gt;</text><ellipse cx="33" cy="218.2266" fill="#84BE84" rx="3" ry="3" style="stroke:#038048;stroke-width:1.0;"/><text fill="#000000" font-family="sans-serif" font-size="14" lengthAdjust="spacing" textLength="586" x="42" y="222.4551">createCelestialBody(bodyName: string, bodyTypeId: Guid, orbitsId: Guid) : CelestialBodyDTO</text><ellipse cx="33" cy="235.8359" fill="#84BE84" rx="3" ry="3" style="stroke:#038048;stroke-width:1.0;"/><text fill="#000000" font-family="sans-serif" font-size="14" lengthAdjust="spacing" textLength="647" x="42" y="240.0645">updateCelestialBody(id: Guid, bodyName: string, bodyTypeId: Guid, orbitsId: Guid) : CelestialBodyDTO</text><ellipse cx="33" cy="253.4453" fill="#84BE84" rx="3" ry="3" style="stroke:#038048;stroke-width:1.0;"/><text fill="#000000" font-family="sans-serif" font-size="14" lengthAdjust="spacing" textLength="222" x="42" y="257.6738">deleteCelestialBody(id: Guid) : void</text><ellipse cx="33" cy="271.0547" fill="#84BE84" rx="3" ry="3" style="stroke:#038048;stroke-width:1.0;"/><text fill="#000000" font-family="sans-serif" font-size="14" lengthAdjust="spacing" textLength="520" x="42" y="275.2832">getRevisionsByCelestialBodyId(celestialBodyId: Guid) : List&lt;ContentRevisionDTO&gt;</text><ellipse cx="33" cy="288.6641" fill="#84BE84" rx="3" ry="3" style="stroke:#038048;stroke-width:1.0;"/><text fill="#000000" font-family="sans-serif" font-size="14" lengthAdjust="spacing" textLength="637" x="42" y="292.8926">addCommentToCelestialBody(celestialBodyId: Guid, authorId: Guid, message: string) : CommentDTO</text></g><!--class CelestialBodyService--><g id="elem_CelestialBodyService"><rect codeLine="17" fill="#F1F1F1" height="146.75" id="CelestialBodyService" rx="2.5" ry="2.5" style="stroke:#181818;stroke-width:0.5;" width="643" x="755" y="282.5"/><ellipse cx="1005.75" cy="303.8516" fill="#ADD1B2" rx="11" ry="11" style="stroke:#181818;stroke-width:1.0;"/><path d="M1008.5156,299.7266 Q1008.6719,299.5078 1008.8594,299.3984 Q1009.0469,299.2891 1009.2656,299.2891 Q1009.6406,299.2891 1009.875,299.5547 Q1010.1094,299.8047 1010.1094,300.4141 L1010.1094,301.8672 Q1010.1094,302.4766 1009.875,302.7422 Q1009.6406,303.0078 1009.2656,303.0078 Q1008.9219,303.0078 1008.7188,302.8047 Q1008.5156,302.6172 1008.4063,302.1016 Q1008.3594,301.7422 1008.1719,301.5547 Q1007.8438,301.1797 1007.2344,300.9609 Q1006.625,300.7422 1006,300.7422 Q1005.2344,300.7422 1004.5938,301.0703 Q1003.9688,301.3984 1003.4688,302.1484 Q1002.9844,302.8984 1002.9844,303.9297 L1002.9844,305.0234 Q1002.9844,306.2578 1003.875,307.0859 Q1004.7656,307.8984 1006.3594,307.8984 Q1007.2969,307.8984 1007.9531,307.6484 Q1008.3438,307.4922 1008.7656,307.0547 Q1009.0313,306.7891 1009.1719,306.7109 Q1009.3281,306.6328 1009.5313,306.6328 Q1009.8594,306.6328 1010.1094,306.8984 Q1010.375,307.1484 1010.375,307.4922 Q1010.375,307.8359 1010.0313,308.2422 Q1009.5313,308.8203 1008.7344,309.1484 Q1007.6563,309.6016 1006.3594,309.6016 Q1004.8438,309.6016 1003.6406,308.9766 Q1002.6563,308.4766 1001.9688,307.4141 Q1001.2813,306.3359 1001.2813,305.0547 L1001.2813,303.8984 Q1001.2813,302.5703 1001.8906,301.4297 Q1002.5156,300.2734 1003.6094,299.6641 Q1004.7031,299.0391 1005.9375,299.0391 Q1006.6719,299.0391 1007.3125,299.2109 Q1007.9688,299.3672 1008.5156,299.7266 Z " fill="#000000"/><text fill="#000000" font-family="sans-serif" font-size="12" font-style="italic" lengthAdjust="spacing" textLength="53" x="1066.25" y="299.957">&#171;service&#187;</text><text fill="#000000" font-family="sans-serif" font-size="14" lengthAdjust="spacing" textLength="133" x="1026.25" y="317.127">CelestialBodyService</text><line style="stroke:#181818;stroke-width:0.5;" x1="756" x2="1397" y1="325.2031" y2="325.2031"/><line style="stroke:#181818;stroke-width:0.5;" x1="756" x2="1397" y1="333.2031" y2="333.2031"/><ellipse cx="766" cy="347.5078" fill="#84BE84" rx="3" ry="3" style="stroke:#038048;stroke-width:1.0;"/><text fill="#000000" font-family="sans-serif" font-size="14" lengthAdjust="spacing" textLength="290" x="775" y="351.7363">getCelestialBodyById(id: Guid) : CelestialBody</text><ellipse cx="766" cy="365.1172" fill="#84BE84" rx="3" ry="3" style="stroke:#038048;stroke-width:1.0;"/><text fill="#000000" font-family="sans-serif" font-size="14" lengthAdjust="spacing" textLength="278" x="775" y="369.3457">getAllCelestialBodies() : List&lt;CelestialBody&gt;</text><ellipse cx="766" cy="382.7266" fill="#84BE84" rx="3" ry="3" style="stroke:#038048;stroke-width:1.0;"/><text fill="#000000" font-family="sans-serif" font-size="14" lengthAdjust="spacing" textLength="556" x="775" y="386.9551">createCelestialBody(bodyName: string, bodyTypeId: Guid, orbitsId: Guid) : CelestialBody</text><ellipse cx="766" cy="400.3359" fill="#84BE84" rx="3" ry="3" style="stroke:#038048;stroke-width:1.0;"/><text fill="#000000" font-family="sans-serif" font-size="14" lengthAdjust="spacing" textLength="617" x="775" y="404.5645">updateCelestialBody(id: Guid, bodyName: string, bodyTypeId: Guid, orbitsId: Guid) : CelestialBody</text><ellipse cx="766" cy="417.9453" fill="#84BE84" rx="3" ry="3" style="stroke:#038048;stroke-width:1.0;"/><text fill="#000000" font-family="sans-serif" font-size="14" lengthAdjust="spacing" textLength="222" x="775" y="422.1738">deleteCelestialBody(id: Guid) : void</text></g><!--class ContentRevisionService--><g id="elem_ContentRevisionService"><rect codeLine="25" fill="#F1F1F1" height="93.9219" id="ContentRevisionService" rx="2.5" ry="2.5" style="stroke:#181818;stroke-width:0.5;" width="604" x="774.5" y="42"/><ellipse cx="996.75" cy="63.3516" fill="#ADD1B2" rx="11" ry="11" style="stroke:#181818;stroke-width:1.0;"/><path d="M999.5156,59.2266 Q999.6719,59.0078 999.8594,58.8984 Q1000.0469,58.7891 1000.2656,58.7891 Q1000.6406,58.7891 1000.875,59.0547 Q1001.1094,59.3047 1001.1094,59.9141 L1001.1094,61.3672 Q1001.1094,61.9766 1000.875,62.2422 Q1000.6406,62.5078 1000.2656,62.5078 Q999.9219,62.5078 999.7188,62.3047 Q999.5156,62.1172 999.4063,61.6016 Q999.3594,61.2422 999.1719,61.0547 Q998.8438,60.6797 998.2344,60.4609 Q997.625,60.2422 997,60.2422 Q996.2344,60.2422 995.5938,60.5703 Q994.9688,60.8984 994.4688,61.6484 Q993.9844,62.3984 993.9844,63.4297 L993.9844,64.5234 Q993.9844,65.7578 994.875,66.5859 Q995.7656,67.3984 997.3594,67.3984 Q998.2969,67.3984 998.9531,67.1484 Q999.3438,66.9922 999.7656,66.5547 Q1000.0313,66.2891 1000.1719,66.2109 Q1000.3281,66.1328 1000.5313,66.1328 Q1000.8594,66.1328 1001.1094,66.3984 Q1001.375,66.6484 1001.375,66.9922 Q1001.375,67.3359 1001.0313,67.7422 Q1000.5313,68.3203 999.7344,68.6484 Q998.6563,69.1016 997.3594,69.1016 Q995.8438,69.1016 994.6406,68.4766 Q993.6563,67.9766 992.9688,66.9141 Q992.2813,65.8359 992.2813,64.5547 L992.2813,63.3984 Q992.2813,62.0703 992.8906,60.9297 Q993.5156,59.7734 994.6094,59.1641 Q995.7031,58.5391 996.9375,58.5391 Q997.6719,58.5391 998.3125,58.7109 Q998.9688,58.8672 999.5156,59.2266 Z " fill="#000000"/><text fill="#000000" font-family="sans-serif" font-size="12" font-style="italic" lengthAdjust="spacing" textLength="53" x="1066.25" y="59.457">&#171;service&#187;</text><text fill="#000000" font-family="sans-serif" font-size="14" lengthAdjust="spacing" textLength="151" x="1017.25" y="76.627">ContentRevisionService</text><line style="stroke:#181818;stroke-width:0.5;" x1="775.5" x2="1377.5" y1="84.7031" y2="84.7031"/><line style="stroke:#181818;stroke-width:0.5;" x1="775.5" x2="1377.5" y1="92.7031" y2="92.7031"/><ellipse cx="785.5" cy="107.0078" fill="#84BE84" rx="3" ry="3" style="stroke:#038048;stroke-width:1.0;"/><text fill="#000000" font-family="sans-serif" font-size="14" lengthAdjust="spacing" textLength="490" x="794.5" y="111.2363">getRevisionsByCelestialBodyId(celestialBodyId: Guid) : List&lt;ContentRevision&gt;</text><ellipse cx="785.5" cy="124.6172" fill="#84BE84" rx="3" ry="3" style="stroke:#038048;stroke-width:1.0;"/><text fill="#000000" font-family="sans-serif" font-size="14" lengthAdjust="spacing" textLength="578" x="794.5" y="128.8457">createRevision(celestialBodyName: string, content: string, authorId: Guid) : ContentRevision</text></g><!--class CommentService--><g id="elem_CommentService"><rect codeLine="30" fill="#F1F1F1" height="76.3125" id="CommentService" rx="2.5" ry="2.5" style="stroke:#181818;stroke-width:0.5;" width="530" x="811.5" y="171"/><ellipse cx="1018.75" cy="192.3516" fill="#ADD1B2" rx="11" ry="11" style="stroke:#181818;stroke-width:1.0;"/><path d="M1021.5156,188.2266 Q1021.6719,188.0078 1021.8594,187.8984 Q1022.0469,187.7891 1022.2656,187.7891 Q1022.6406,187.7891 1022.875,188.0547 Q1023.1094,188.3047 1023.1094,188.9141 L1023.1094,190.3672 Q1023.1094,190.9766 1022.875,191.2422 Q1022.6406,191.5078 1022.2656,191.5078 Q1021.9219,191.5078 1021.7188,191.3047 Q1021.5156,191.1172 1021.4063,190.6016 Q1021.3594,190.2422 1021.1719,190.0547 Q1020.8438,189.6797 1020.2344,189.4609 Q1019.625,189.2422 1019,189.2422 Q1018.2344,189.2422 1017.5938,189.5703 Q1016.9688,189.8984 1016.4688,190.6484 Q1015.9844,191.3984 1015.9844,192.4297 L1015.9844,193.5234 Q1015.9844,194.7578 1016.875,195.5859 Q1017.7656,196.3984 1019.3594,196.3984 Q1020.2969,196.3984 1020.9531,196.1484 Q1021.3438,195.9922 1021.7656,195.5547 Q1022.0313,195.2891 1022.1719,195.2109 Q1022.3281,195.1328 1022.5313,195.1328 Q1022.8594,195.1328 1023.1094,195.3984 Q1023.375,195.6484 1023.375,195.9922 Q1023.375,196.3359 1023.0313,196.7422 Q1022.5313,197.3203 1021.7344,197.6484 Q1020.6563,198.1016 1019.3594,198.1016 Q1017.8438,198.1016 1016.6406,197.4766 Q1015.6563,196.9766 1014.9688,195.9141 Q1014.2813,194.8359 1014.2813,193.5547 L1014.2813,192.3984 Q1014.2813,191.0703 1014.8906,189.9297 Q1015.5156,188.7734 1016.6094,188.1641 Q1017.7031,187.5391 1018.9375,187.5391 Q1019.6719,187.5391 1020.3125,187.7109 Q1020.9688,187.8672 1021.5156,188.2266 Z " fill="#000000"/><text fill="#000000" font-family="sans-serif" font-size="12" font-style="italic" lengthAdjust="spacing" textLength="53" x="1066.25" y="188.457">&#171;service&#187;</text><text fill="#000000" font-family="sans-serif" font-size="14" lengthAdjust="spacing" textLength="107" x="1039.25" y="205.627">CommentService</text><line style="stroke:#181818;stroke-width:0.5;" x1="812.5" x2="1340.5" y1="213.7031" y2="213.7031"/><line style="stroke:#181818;stroke-width:0.5;" x1="812.5" x2="1340.5" y1="221.7031" y2="221.7031"/><ellipse cx="822.5" cy="236.0078" fill="#84BE84" rx="3" ry="3" style="stroke:#038048;stroke-width:1.0;"/><text fill="#000000" font-family="sans-serif" font-size="14" lengthAdjust="spacing" textLength="504" x="831.5" y="240.2363">addComment(celestialBodyId: Guid, authorId: Guid, message: string) : Comment</text></g><!--class AuthService--><g id="elem_AuthService"><rect codeLine="34" fill="#F1F1F1" height="76.3125" id="AuthService" rx="2.5" ry="2.5" style="stroke:#181818;stroke-width:0.5;" width="449" x="1512" y="51"/><ellipse cx="1694.25" cy="72.3516" fill="#ADD1B2" rx="11" ry="11" style="stroke:#181818;stroke-width:1.0;"/><path d="M1697.0156,68.2266 Q1697.1719,68.0078 1697.3594,67.8984 Q1697.5469,67.7891 1697.7656,67.7891 Q1698.1406,67.7891 1698.375,68.0547 Q1698.6094,68.3047 1698.6094,68.9141 L1698.6094,70.3672 Q1698.6094,70.9766 1698.375,71.2422 Q1698.1406,71.5078 1697.7656,71.5078 Q1697.4219,71.5078 1697.2188,71.3047 Q1697.0156,71.1172 1696.9063,70.6016 Q1696.8594,70.2422 1696.6719,70.0547 Q1696.3438,69.6797 1695.7344,69.4609 Q1695.125,69.2422 1694.5,69.2422 Q1693.7344,69.2422 1693.0938,69.5703 Q1692.4688,69.8984 1691.9688,70.6484 Q1691.4844,71.3984 1691.4844,72.4297 L1691.4844,73.5234 Q1691.4844,74.7578 1692.375,75.5859 Q1693.2656,76.3984 1694.8594,76.3984 Q1695.7969,76.3984 1696.4531,76.1484 Q1696.8438,75.9922 1697.2656,75.5547 Q1697.5313,75.2891 1697.6719,75.2109 Q1697.8281,75.1328 1698.0313,75.1328 Q1698.3594,75.1328 1698.6094,75.3984 Q1698.875,75.6484 1698.875,75.9922 Q1698.875,76.3359 1698.5313,76.7422 Q1698.0313,77.3203 1697.2344,77.6484 Q1696.1563,78.1016 1694.8594,78.1016 Q1693.3438,78.1016 1692.1406,77.4766 Q1691.1563,76.9766 1690.4688,75.9141 Q1689.7813,74.8359 1689.7813,73.5547 L1689.7813,72.3984 Q1689.7813,71.0703 1690.3906,69.9297 Q1691.0156,68.7734 1692.1094,68.1641 Q1693.2031,67.5391 1694.4375,67.5391 Q1695.1719,67.5391 1695.8125,67.7109 Q1696.4688,67.8672 1697.0156,68.2266 Z " fill="#000000"/><text fill="#000000" font-family="sans-serif" font-size="12" font-style="italic" lengthAdjust="spacing" textLength="53" x="1726.25" y="68.457">&#171;service&#187;</text><text fill="#000000" font-family="sans-serif" font-size="14" lengthAdjust="spacing" textLength="76" x="1714.75" y="85.627">AuthService</text><line style="stroke:#181818;stroke-width:0.5;" x1="1513" x2="1960" y1="93.7031" y2="93.7031"/><line style="stroke:#181818;stroke-width:0.5;" x1="1513" x2="1960" y1="101.7031" y2="101.7031"/><ellipse cx="1523" cy="116.0078" fill="#84BE84" rx="3" ry="3" style="stroke:#038048;stroke-width:1.0;"/><text fill="#000000" font-family="sans-serif" font-size="14" lengthAdjust="spacing" textLength="423" x="1532" y="120.2363">checkUserHasAccessRight(userId: Guid, accessLevel: string) : bool</text></g><!--class ICelestialBodyRepository--><g id="elem_ICelestialBodyRepository"><rect codeLine="40" fill="#F1F1F1" height="136.0469" id="ICelestialBodyRepository" rx="2.5" ry="2.5" style="stroke:#181818;stroke-width:0.5;" width="557" x="1458" y="726"/><ellipse cx="1653.25" cy="742" fill="#B4A7E5" rx="11" ry="11" style="stroke:#181818;stroke-width:1.0;"/><path d="M1654.2031,738.6406 L1654.2031,745.2969 L1655.9219,745.2969 Q1656.5313,745.2969 1656.7969,745.5313 Q1657.0625,745.7656 1657.0625,746.1563 Q1657.0625,746.5313 1656.7969,746.7656 Q1656.5313,747 1655.9219,747 L1650.7813,747 Q1650.1719,747 1649.9063,746.7656 Q1649.6406,746.5313 1649.6406,746.1406 Q1649.6406,745.7656 1649.9063,745.5313 Q1650.1719,745.2969 1650.7813,745.2969 L1652.5,745.2969 L1652.5,738.6406 L1650.7813,738.6406 Q1650.1719,738.6406 1649.9063,738.4063 Q1649.6406,738.1719 1649.6406,737.7813 Q1649.6406,737.4063 1649.9063,737.1719 Q1650.1719,736.9375 1650.7813,736.9375 L1655.9219,736.9375 Q1656.5313,736.9375 1656.7969,737.1719 Q1657.0625,737.4063 1657.0625,737.7813 Q1657.0625,738.1719 1656.7969,738.4063 Q1656.5313,738.6406 1655.9219,738.6406 L1654.2031,738.6406 Z " fill="#000000"/><text fill="#000000" font-family="sans-serif" font-size="14" font-style="italic" lengthAdjust="spacing" textLength="158" x="1673.75" y="747.7285">ICelestialBodyRepository</text><line style="stroke:#181818;stroke-width:0.5;" x1="1459" x2="2014" y1="758" y2="758"/><line style="stroke:#181818;stroke-width:0.5;" x1="1459" x2="2014" y1="766" y2="766"/><ellipse cx="1469" cy="780.3047" fill="#84BE84" rx="3" ry="3" style="stroke:#038048;stroke-width:1.0;"/><text fill="#000000" font-family="sans-serif" font-size="14" lengthAdjust="spacing" textLength="204" x="1478" y="784.5332">getById(id: Guid) : CelestialBody</text><ellipse cx="1469" cy="797.9141" fill="#84BE84" rx="3" ry="3" style="stroke:#038048;stroke-width:1.0;"/><text fill="#000000" font-family="sans-serif" font-size="14" lengthAdjust="spacing" textLength="181" x="1478" y="802.1426">getAll() : List&lt;CelestialBody&gt;</text><ellipse cx="1469" cy="815.5234" fill="#84BE84" rx="3" ry="3" style="stroke:#038048;stroke-width:1.0;"/><text fill="#000000" font-family="sans-serif" font-size="14" lengthAdjust="spacing" textLength="470" x="1478" y="819.752">create(bodyName: string, bodyTypeId: Guid, orbitsId: Guid) : CelestialBody</text><ellipse cx="1469" cy="833.1328" fill="#84BE84" rx="3" ry="3" style="stroke:#038048;stroke-width:1.0;"/><text fill="#000000" font-family="sans-serif" font-size="14" lengthAdjust="spacing" textLength="531" x="1478" y="837.3613">update(id: Guid, bodyName: string, bodyTypeId: Guid, orbitsId: Guid) : CelestialBody</text><ellipse cx="1469" cy="850.7422" fill="#84BE84" rx="3" ry="3" style="stroke:#038048;stroke-width:1.0;"/><text fill="#000000" font-family="sans-serif" font-size="14" lengthAdjust="spacing" textLength="136" x="1478" y="854.9707">delete(id: Guid) : void</text></g><!--class IContentRevisionRepository--><g id="elem_IContentRevisionRepository"><rect codeLine="48" fill="#F1F1F1" height="83.2188" id="IContentRevisionRepository" rx="2.5" ry="2.5" style="stroke:#181818;stroke-width:0.5;" width="550" x="1461.5" y="506.5"/><ellipse cx="1644.75" cy="522.5" fill="#B4A7E5" rx="11" ry="11" style="stroke:#181818;stroke-width:1.0;"/><path d="M1645.7031,519.1406 L1645.7031,525.7969 L1647.4219,525.7969 Q1648.0313,525.7969 1648.2969,526.0313 Q1648.5625,526.2656 1648.5625,526.6563 Q1648.5625,527.0313 1648.2969,527.2656 Q1648.0313,527.5 1647.4219,527.5 L1642.2813,527.5 Q1641.6719,527.5 1641.4063,527.2656 Q1641.1406,527.0313 1641.1406,526.6406 Q1641.1406,526.2656 1641.4063,526.0313 Q1641.6719,525.7969 1642.2813,525.7969 L1644,525.7969 L1644,519.1406 L1642.2813,519.1406 Q1641.6719,519.1406 1641.4063,518.9063 Q1641.1406,518.6719 1641.1406,518.2813 Q1641.1406,517.9063 1641.4063,517.6719 Q1641.6719,517.4375 1642.2813,517.4375 L1647.4219,517.4375 Q1648.0313,517.4375 1648.2969,517.6719 Q1648.5625,517.9063 1648.5625,518.2813 Q1648.5625,518.6719 1648.2969,518.9063 Q1648.0313,519.1406 1647.4219,519.1406 L1645.7031,519.1406 Z " fill="#000000"/><text fill="#000000" font-family="sans-serif" font-size="14" font-style="italic" lengthAdjust="spacing" textLength="175" x="1665.25" y="528.2285">IContentRevisionRepository</text><line style="stroke:#181818;stroke-width:0.5;" x1="1462.5" x2="2010.5" y1="538.5" y2="538.5"/><line style="stroke:#181818;stroke-width:0.5;" x1="1462.5" x2="2010.5" y1="546.5" y2="546.5"/><ellipse cx="1472.5" cy="560.8047" fill="#84BE84" rx="3" ry="3" style="stroke:#038048;stroke-width:1.0;"/><text fill="#000000" font-family="sans-serif" font-size="14" lengthAdjust="spacing" textLength="429" x="1481.5" y="565.0332">getByCelestialBodyId(celestialBodyId: Guid) : List&lt;ContentRevision&gt;</text><ellipse cx="1472.5" cy="578.4141" fill="#84BE84" rx="3" ry="3" style="stroke:#038048;stroke-width:1.0;"/><text fill="#000000" font-family="sans-serif" font-size="14" lengthAdjust="spacing" textLength="524" x="1481.5" y="582.6426">create(celestialBodyName: string, content: string, authorId: Guid) : ContentRevision</text></g><!--class ICommentRepository--><g id="elem_ICommentRepository"><rect codeLine="53" fill="#F1F1F1" height="65.6094" id="ICommentRepository" rx="2.5" ry="2.5" style="stroke:#181818;stroke-width:0.5;" width="486" x="1493.5" y="897"/><ellipse cx="1666.25" cy="913" fill="#B4A7E5" rx="11" ry="11" style="stroke:#181818;stroke-width:1.0;"/><path d="M1667.2031,909.6406 L1667.2031,916.2969 L1668.9219,916.2969 Q1669.5313,916.2969 1669.7969,916.5313 Q1670.0625,916.7656 1670.0625,917.1563 Q1670.0625,917.5313 1669.7969,917.7656 Q1669.5313,918 1668.9219,918 L1663.7813,918 Q1663.1719,918 1662.9063,917.7656 Q1662.6406,917.5313 1662.6406,917.1406 Q1662.6406,916.7656 1662.9063,916.5313 Q1663.1719,916.2969 1663.7813,916.2969 L1665.5,916.2969 L1665.5,909.6406 L1663.7813,909.6406 Q1663.1719,909.6406 1662.9063,909.4063 Q1662.6406,909.1719 1662.6406,908.7813 Q1662.6406,908.4063 1662.9063,908.1719 Q1663.1719,907.9375 1663.7813,907.9375 L1668.9219,907.9375 Q1669.5313,907.9375 1669.7969,908.1719 Q1670.0625,908.4063 1670.0625,908.7813 Q1670.0625,909.1719 1669.7969,909.4063 Q1669.5313,909.6406 1668.9219,909.6406 L1667.2031,909.6406 Z " fill="#000000"/><text fill="#000000" font-family="sans-serif" font-size="14" font-style="italic" lengthAdjust="spacing" textLength="132" x="1686.75" y="918.7285">ICommentRepository</text><line style="stroke:#181818;stroke-width:0.5;" x1="1494.5" x2="1978.5" y1="929" y2="929"/><line style="stroke:#181818;stroke-width:0.5;" x1="1494.5" x2="1978.5" y1="937" y2="937"/><ellipse cx="1504.5" cy="951.3047" fill="#84BE84" rx="3" ry="3" style="stroke:#038048;stroke-width:1.0;"/><text fill="#000000" font-family="sans-serif" font-size="14" lengthAdjust="spacing" textLength="460" x="1513.5" y="955.5332">create(celestialBodyId: Guid, authorId: Guid, message: string) : Comment</text></g><!--class IUserRepository--><g id="elem_IUserRepository"><rect codeLine="57" fill="#F1F1F1" height="65.6094" id="IUserRepository" rx="2.5" ry="2.5" style="stroke:#181818;stroke-width:0.5;" width="173" x="1650" y="625"/><ellipse cx="1682.55" cy="641" fill="#B4A7E5" rx="11" ry="11" style="stroke:#181818;stroke-width:1.0;"/><path d="M1683.5031,637.6406 L1683.5031,644.2969 L1685.2219,644.2969 Q1685.8313,644.2969 1686.0969,644.5313 Q1686.3625,644.7656 1686.3625,645.1563 Q1686.3625,645.5313 1686.0969,645.7656 Q1685.8313,646 1685.2219,646 L1680.0813,646 Q1679.4719,646 1679.2063,645.7656 Q1678.9406,645.5313 1678.9406,645.1406 Q1678.9406,644.7656 1679.2063,644.5313 Q1679.4719,644.2969 1680.0813,644.2969 L1681.8,644.2969 L1681.8,637.6406 L1680.0813,637.6406 Q1679.4719,637.6406 1679.2063,637.4063 Q1678.9406,637.1719 1678.9406,636.7813 Q1678.9406,636.4063 1679.2063,636.1719 Q1679.4719,635.9375 1680.0813,635.9375 L1685.2219,635.9375 Q1685.8313,635.9375 1686.0969,636.1719 Q1686.3625,636.4063 1686.3625,636.7813 Q1686.3625,637.1719 1686.0969,637.4063 Q1685.8313,637.6406 1685.2219,637.6406 L1683.5031,637.6406 Z " fill="#000000"/><text fill="#000000" font-family="sans-serif" font-size="14" font-style="italic" lengthAdjust="spacing" textLength="102" x="1700.45" y="646.7285">IUserRepository</text><line style="stroke:#181818;stroke-width:0.5;" x1="1651" x2="1822" y1="657" y2="657"/><line style="stroke:#181818;stroke-width:0.5;" x1="1651" x2="1822" y1="665" y2="665"/><ellipse cx="1661" cy="679.3047" fill="#84BE84" rx="3" ry="3" style="stroke:#038048;stroke-width:1.0;"/><text fill="#000000" font-family="sans-serif" font-size="14" lengthAdjust="spacing" textLength="147" x="1670" y="683.5332">getById(id: Guid) : User</text></g><!--class CelestialBody--><g id="elem_CelestialBody"><rect codeLine="63" fill="#F1F1F1" height="118.4375" id="CelestialBody" rx="2.5" ry="2.5" style="stroke:#181818;stroke-width:0.5;" width="143" x="2101" y="743"/><ellipse cx="2127.25" cy="759" fill="#ADD1B2" rx="11" ry="11" style="stroke:#181818;stroke-width:1.0;"/><path d="M2130.0156,754.875 Q2130.1719,754.6563 2130.3594,754.5469 Q2130.5469,754.4375 2130.7656,754.4375 Q2131.1406,754.4375 2131.375,754.7031 Q2131.6094,754.9531 2131.6094,755.5625 L2131.6094,757.0156 Q2131.6094,757.625 2131.375,757.8906 Q2131.1406,758.1563 2130.7656,758.1563 Q2130.4219,758.1563 2130.2188,757.9531 Q2130.0156,757.7656 2129.9063,757.25 Q2129.8594,756.8906 2129.6719,756.7031 Q2129.3438,756.3281 2128.7344,756.1094 Q2128.125,755.8906 2127.5,755.8906 Q2126.7344,755.8906 2126.0938,756.2188 Q2125.4688,756.5469 2124.9688,757.2969 Q2124.4844,758.0469 2124.4844,759.0781 L2124.4844,760.1719 Q2124.4844,761.4063 2125.375,762.2344 Q2126.2656,763.0469 2127.8594,763.0469 Q2128.7969,763.0469 2129.4531,762.7969 Q2129.8438,762.6406 2130.2656,762.2031 Q2130.5313,761.9375 2130.6719,761.8594 Q2130.8281,761.7813 2131.0313,761.7813 Q2131.3594,761.7813 2131.6094,762.0469 Q2131.875,762.2969 2131.875,762.6406 Q2131.875,762.9844 2131.5313,763.3906 Q2131.0313,763.9688 2130.2344,764.2969 Q2129.1563,764.75 2127.8594,764.75 Q2126.3438,764.75 2125.1406,764.125 Q2124.1563,763.625 2123.4688,762.5625 Q2122.7813,761.4844 2122.7813,760.2031 L2122.7813,759.0469 Q2122.7813,757.7188 2123.3906,756.5781 Q2124.0156,755.4219 2125.1094,754.8125 Q2126.2031,754.1875 2127.4375,754.1875 Q2128.1719,754.1875 2128.8125,754.3594 Q2129.4688,754.5156 2130.0156,754.875 Z " fill="#000000"/><text fill="#000000" font-family="sans-serif" font-size="14" lengthAdjust="spacing" textLength="86" x="2143.75" y="764.7285">CelestialBody</text><line style="stroke:#181818;stroke-width:0.5;" x1="2102" x2="2243" y1="775" y2="775"/><ellipse cx="2112" cy="789.3047" fill="none" rx="3" ry="3" style="stroke:#038048;stroke-width:1.0;"/><text fill="#000000" font-family="sans-serif" font-size="14" lengthAdjust="spacing" textLength="53" x="2121" y="793.5332">Id : Guid</text><ellipse cx="2112" cy="806.9141" fill="none" rx="3" ry="3" style="stroke:#038048;stroke-width:1.0;"/><text fill="#000000" font-family="sans-serif" font-size="14" lengthAdjust="spacing" textLength="115" x="2121" y="811.1426">BodyName : string</text><ellipse cx="2112" cy="824.5234" fill="none" rx="3" ry="3" style="stroke:#038048;stroke-width:1.0;"/><text fill="#000000" font-family="sans-serif" font-size="14" lengthAdjust="spacing" textLength="117" x="2121" y="828.752">BodyTypeId : Guid</text><ellipse cx="2112" cy="842.1328" fill="none" rx="3" ry="3" style="stroke:#038048;stroke-width:1.0;"/><text fill="#000000" font-family="sans-serif" font-size="14" lengthAdjust="spacing" textLength="91" x="2121" y="846.3613">OrbitsId : Guid</text><line style="stroke:#181818;stroke-width:0.5;" x1="2102" x2="2243" y1="853.4375" y2="853.4375"/></g><!--class ContentRevision--><g id="elem_ContentRevision"><rect codeLine="70" fill="#F1F1F1" height="118.4375" id="ContentRevision" rx="2.5" ry="2.5" style="stroke:#181818;stroke-width:0.5;" width="195" x="2075" y="437"/><ellipse cx="2116.55" cy="453" fill="#ADD1B2" rx="11" ry="11" style="stroke:#181818;stroke-width:1.0;"/><path d="M2119.3156,448.875 Q2119.4719,448.6563 2119.6594,448.5469 Q2119.8469,448.4375 2120.0656,448.4375 Q2120.4406,448.4375 2120.675,448.7031 Q2120.9094,448.9531 2120.9094,449.5625 L2120.9094,451.0156 Q2120.9094,451.625 2120.675,451.8906 Q2120.4406,452.1563 2120.0656,452.1563 Q2119.7219,452.1563 2119.5188,451.9531 Q2119.3156,451.7656 2119.2063,451.25 Q2119.1594,450.8906 2118.9719,450.7031 Q2118.6438,450.3281 2118.0344,450.1094 Q2117.425,449.8906 2116.8,449.8906 Q2116.0344,449.8906 2115.3938,450.2188 Q2114.7688,450.5469 2114.2688,451.2969 Q2113.7844,452.0469 2113.7844,453.0781 L2113.7844,454.1719 Q2113.7844,455.4063 2114.675,456.2344 Q2115.5656,457.0469 2117.1594,457.0469 Q2118.0969,457.0469 2118.7531,456.7969 Q2119.1438,456.6406 2119.5656,456.2031 Q2119.8313,455.9375 2119.9719,455.8594 Q2120.1281,455.7813 2120.3313,455.7813 Q2120.6594,455.7813 2120.9094,456.0469 Q2121.175,456.2969 2121.175,456.6406 Q2121.175,456.9844 2120.8313,457.3906 Q2120.3313,457.9688 2119.5344,458.2969 Q2118.4563,458.75 2117.1594,458.75 Q2115.6438,458.75 2114.4406,458.125 Q2113.4563,457.625 2112.7688,456.5625 Q2112.0813,455.4844 2112.0813,454.2031 L2112.0813,453.0469 Q2112.0813,451.7188 2112.6906,450.5781 Q2113.3156,449.4219 2114.4094,448.8125 Q2115.5031,448.1875 2116.7375,448.1875 Q2117.4719,448.1875 2118.1125,448.3594 Q2118.7688,448.5156 2119.3156,448.875 Z " fill="#000000"/><text fill="#000000" font-family="sans-serif" font-size="14" lengthAdjust="spacing" textLength="104" x="2136.45" y="458.7285">ContentRevision</text><line style="stroke:#181818;stroke-width:0.5;" x1="2076" x2="2269" y1="469" y2="469"/><ellipse cx="2086" cy="483.3047" fill="none" rx="3" ry="3" style="stroke:#038048;stroke-width:1.0;"/><text fill="#000000" font-family="sans-serif" font-size="14" lengthAdjust="spacing" textLength="53" x="2095" y="487.5332">Id : Guid</text><ellipse cx="2086" cy="500.9141" fill="none" rx="3" ry="3" style="stroke:#038048;stroke-width:1.0;"/><text fill="#000000" font-family="sans-serif" font-size="14" lengthAdjust="spacing" textLength="169" x="2095" y="505.1426">CelestialBodyName : string</text><ellipse cx="2086" cy="518.5234" fill="none" rx="3" ry="3" style="stroke:#038048;stroke-width:1.0;"/><text fill="#000000" font-family="sans-serif" font-size="14" lengthAdjust="spacing" textLength="97" x="2095" y="522.752">Content : string</text><ellipse cx="2086" cy="536.1328" fill="none" rx="3" ry="3" style="stroke:#038048;stroke-width:1.0;"/><text fill="#000000" font-family="sans-serif" font-size="14" lengthAdjust="spacing" textLength="95" x="2095" y="540.3613">AuthorId : Guid</text><line style="stroke:#181818;stroke-width:0.5;" x1="2076" x2="2269" y1="547.4375" y2="547.4375"/></g><!--class Comment--><g id="elem_Comment"><rect codeLine="77" fill="#F1F1F1" height="118.4375" id="Comment" rx="2.5" ry="2.5" style="stroke:#181818;stroke-width:0.5;" width="165" x="2090" y="896"/><ellipse cx="2138.25" cy="912" fill="#ADD1B2" rx="11" ry="11" style="stroke:#181818;stroke-width:1.0;"/><path d="M2141.0156,907.875 Q2141.1719,907.6563 2141.3594,907.5469 Q2141.5469,907.4375 2141.7656,907.4375 Q2142.1406,907.4375 2142.375,907.7031 Q2142.6094,907.9531 2142.6094,908.5625 L2142.6094,910.0156 Q2142.6094,910.625 2142.375,910.8906 Q2142.1406,911.1563 2141.7656,911.1563 Q2141.4219,911.1563 2141.2188,910.9531 Q2141.0156,910.7656 2140.9063,910.25 Q2140.8594,909.8906 2140.6719,909.7031 Q2140.3438,909.3281 2139.7344,909.1094 Q2139.125,908.8906 2138.5,908.8906 Q2137.7344,908.8906 2137.0938,909.2188 Q2136.4688,909.5469 2135.9688,910.2969 Q2135.4844,911.0469 2135.4844,912.0781 L2135.4844,913.1719 Q2135.4844,914.4063 2136.375,915.2344 Q2137.2656,916.0469 2138.8594,916.0469 Q2139.7969,916.0469 2140.4531,915.7969 Q2140.8438,915.6406 2141.2656,915.2031 Q2141.5313,914.9375 2141.6719,914.8594 Q2141.8281,914.7813 2142.0313,914.7813 Q2142.3594,914.7813 2142.6094,915.0469 Q2142.875,915.2969 2142.875,915.6406 Q2142.875,915.9844 2142.5313,916.3906 Q2142.0313,916.9688 2141.2344,917.2969 Q2140.1563,917.75 2138.8594,917.75 Q2137.3438,917.75 2136.1406,917.125 Q2135.1563,916.625 2134.4688,915.5625 Q2133.7813,914.4844 2133.7813,913.2031 L2133.7813,912.0469 Q2133.7813,910.7188 2134.3906,909.5781 Q2135.0156,908.4219 2136.1094,907.8125 Q2137.2031,907.1875 2138.4375,907.1875 Q2139.1719,907.1875 2139.8125,907.3594 Q2140.4688,907.5156 2141.0156,907.875 Z " fill="#000000"/><text fill="#000000" font-family="sans-serif" font-size="14" lengthAdjust="spacing" textLength="60" x="2158.75" y="917.7285">Comment</text><line style="stroke:#181818;stroke-width:0.5;" x1="2091" x2="2254" y1="928" y2="928"/><ellipse cx="2101" cy="942.3047" fill="none" rx="3" ry="3" style="stroke:#038048;stroke-width:1.0;"/><text fill="#000000" font-family="sans-serif" font-size="14" lengthAdjust="spacing" textLength="53" x="2110" y="946.5332">Id : Guid</text><ellipse cx="2101" cy="959.9141" fill="none" rx="3" ry="3" style="stroke:#038048;stroke-width:1.0;"/><text fill="#000000" font-family="sans-serif" font-size="14" lengthAdjust="spacing" textLength="139" x="2110" y="964.1426">CelestialBodyId : Guid</text><ellipse cx="2101" cy="977.5234" fill="none" rx="3" ry="3" style="stroke:#038048;stroke-width:1.0;"/><text fill="#000000" font-family="sans-serif" font-size="14" lengthAdjust="spacing" textLength="95" x="2110" y="981.752">AuthorId : Guid</text><ellipse cx="2101" cy="995.1328" fill="none" rx="3" ry="3" style="stroke:#038048;stroke-width:1.0;"/><text fill="#000000" font-family="sans-serif" font-size="14" lengthAdjust="spacing" textLength="104" x="2110" y="999.3613">Message : string</text><line style="stroke:#181818;stroke-width:0.5;" x1="2091" x2="2254" y1="1006.4375" y2="1006.4375"/></g><!--class User--><g id="elem_User"><rect codeLine="84" fill="#F1F1F1" height="118.4375" id="User" rx="2.5" ry="2.5" style="stroke:#181818;stroke-width:0.5;" width="155" x="2095" y="590"/><ellipse cx="2153.75" cy="606" fill="#ADD1B2" rx="11" ry="11" style="stroke:#181818;stroke-width:1.0;"/><path d="M2156.5156,601.875 Q2156.6719,601.6563 2156.8594,601.5469 Q2157.0469,601.4375 2157.2656,601.4375 Q2157.6406,601.4375 2157.875,601.7031 Q2158.1094,601.9531 2158.1094,602.5625 L2158.1094,604.0156 Q2158.1094,604.625 2157.875,604.8906 Q2157.6406,605.1563 2157.2656,605.1563 Q2156.9219,605.1563 2156.7188,604.9531 Q2156.5156,604.7656 2156.4063,604.25 Q2156.3594,603.8906 2156.1719,603.7031 Q2155.8438,603.3281 2155.2344,603.1094 Q2154.625,602.8906 2154,602.8906 Q2153.2344,602.8906 2152.5938,603.2188 Q2151.9688,603.5469 2151.4688,604.2969 Q2150.9844,605.0469 2150.9844,606.0781 L2150.9844,607.1719 Q2150.9844,608.4063 2151.875,609.2344 Q2152.7656,610.0469 2154.3594,610.0469 Q2155.2969,610.0469 2155.9531,609.7969 Q2156.3438,609.6406 2156.7656,609.2031 Q2157.0313,608.9375 2157.1719,608.8594 Q2157.3281,608.7813 2157.5313,608.7813 Q2157.8594,608.7813 2158.1094,609.0469 Q2158.375,609.2969 2158.375,609.6406 Q2158.375,609.9844 2158.0313,610.3906 Q2157.5313,610.9688 2156.7344,611.2969 Q2155.6563,611.75 2154.3594,611.75 Q2152.8438,611.75 2151.6406,611.125 Q2150.6563,610.625 2149.9688,609.5625 Q2149.2813,608.4844 2149.2813,607.2031 L2149.2813,606.0469 Q2149.2813,604.7188 2149.8906,603.5781 Q2150.5156,602.4219 2151.6094,601.8125 Q2152.7031,601.1875 2153.9375,601.1875 Q2154.6719,601.1875 2155.3125,601.3594 Q2155.9688,601.5156 2156.5156,601.875 Z " fill="#000000"/><text fill="#000000" font-family="sans-serif" font-size="14" lengthAdjust="spacing" textLength="29" x="2174.25" y="611.7285">User</text><line style="stroke:#181818;stroke-width:0.5;" x1="2096" x2="2249" y1="622" y2="622"/><ellipse cx="2106" cy="636.3047" fill="none" rx="3" ry="3" style="stroke:#038048;stroke-width:1.0;"/><text fill="#000000" font-family="sans-serif" font-size="14" lengthAdjust="spacing" textLength="53" x="2115" y="640.5332">Id : Guid</text><ellipse cx="2106" cy="653.9141" fill="none" rx="3" ry="3" style="stroke:#038048;stroke-width:1.0;"/><text fill="#000000" font-family="sans-serif" font-size="14" lengthAdjust="spacing" textLength="129" x="2115" y="658.1426">DisplayName : string</text><ellipse cx="2106" cy="671.5234" fill="none" rx="3" ry="3" style="stroke:#038048;stroke-width:1.0;"/><text fill="#000000" font-family="sans-serif" font-size="14" lengthAdjust="spacing" textLength="118" x="2115" y="675.752">GoogleSub : string</text><ellipse cx="2106" cy="689.1328" fill="none" rx="3" ry="3" style="stroke:#038048;stroke-width:1.0;"/><text fill="#000000" font-family="sans-serif" font-size="14" lengthAdjust="spacing" textLength="82" x="2115" y="693.3613">RoleId : Guid</text><line style="stroke:#181818;stroke-width:0.5;" x1="2096" x2="2249" y1="700.4375" y2="700.4375"/></g><!--link CelestialBodyController to CelestialBodyService--><g id="link_CelestialBodyController_CelestialBodyService"><path codeLine="93" d="M695.16,291.25 C715.03,291.25 728.99,291.25 748.79,291.25 " fill="none" id="CelestialBodyController-to-CelestialBodyService" style="stroke:#181818;stroke-width:1.0;"/><polygon fill="#181818" points="754.79,291.25,745.79,287.25,749.79,291.25,745.79,295.25,754.79,291.25" style="stroke:#181818;stroke-width:1.0;"/></g><!--link CelestialBodyController to ContentRevisionService--><g id="link_CelestialBodyController_ContentRevisionService"><path codeLine="94" d="M695.16,127 C721.59,127 742.18,127 768.35,127 " fill="none" id="CelestialBodyController-to-ContentRevisionService" style="stroke:#181818;stroke-width:1.0;"/><polygon fill="#181818" points="774.35,127,765.35,123,769.35,127,765.35,131,774.35,127" style="stroke:#181818;stroke-width:1.0;"/></g><!--link CelestialBodyController to CommentService--><g id="link_CelestialBodyController_CommentService"><path codeLine="95" d="M695.16,209 C734.17,209 767.52,209 805.38,209 " fill="none" id="CelestialBodyController-to-CommentService" style="stroke:#181818;stroke-width:1.0;"/><polygon fill="#181818" points="811.38,209,802.38,205,806.38,209,802.38,213,811.38,209" style="stroke:#181818;stroke-width:1.0;"/></g><!--link CelestialBodyService to ICelestialBodyRepository--><g id="link_CelestialBodyService_ICelestialBodyRepository"><path codeLine="98" d="M1077,429.75 C1077,562.5 1077,828 1077,828 C1077,828 1271.78,828 1451.77,828 " fill="none" id="CelestialBodyService-to-ICelestialBodyRepository" style="stroke:#181818;stroke-width:1.0;"/><polygon fill="#181818" points="1457.77,828,1448.77,824,1452.77,828,1448.77,832,1457.77,828" style="stroke:#181818;stroke-width:1.0;"/></g><!--link ContentRevisionService to ICelestialBodyRepository--><g id="link_ContentRevisionService_ICelestialBodyRepository"><path codeLine="99" d="M1378.76,133.75 C1408.53,133.75 1428,133.75 1428,133.75 C1428,133.75 1428,760 1428,760 C1428,760 1433.42,760 1451.86,760 " fill="none" id="ContentRevisionService-to-ICelestialBodyRepository" style="stroke:#181818;stroke-width:1.0;"/><polygon fill="#181818" points="1457.86,760,1448.86,756,1452.86,760,1448.86,764,1457.86,760" style="stroke:#181818;stroke-width:1.0;"/></g><!--link ContentRevisionService to IContentRevisionRepository--><g id="link_ContentRevisionService_IContentRevisionRepository"><path codeLine="100" d="M1378.61,129.25 C1440.4,129.25 1487,129.25 1487,129.25 C1487,129.25 1487,394.4 1487,500.32 " fill="none" id="ContentRevisionService-to-IContentRevisionRepository" style="stroke:#181818;stroke-width:1.0;"/><polygon fill="#181818" points="1487,506.32,1491,497.32,1487,501.32,1483,497.32,1487,506.32" style="stroke:#181818;stroke-width:1.0;"/></g><!--link ContentRevisionService to IUserRepository--><g id="link_ContentRevisionService_IUserRepository"><path codeLine="101" d="M1378.56,131.5 C1419.63,131.5 1448,131.5 1448,131.5 C1448,131.5 1448,647 1448,647 C1448,647 1558.96,647 1643.94,647 " fill="none" id="ContentRevisionService-to-IUserRepository" style="stroke:#181818;stroke-width:1.0;"/><polygon fill="#181818" points="1649.94,647,1640.94,643,1644.94,647,1640.94,651,1649.94,647" style="stroke:#181818;stroke-width:1.0;"/></g><!--link ContentRevisionService to AuthService--><g id="link_ContentRevisionService_AuthService"><path codeLine="102" d="M1378.97,89 C1423.74,89 1463.19,89 1505.99,89 " fill="none" id="ContentRevisionService-to-AuthService" style="stroke:#181818;stroke-width:1.0;"/><polygon fill="#181818" points="1511.99,89,1502.99,85,1506.99,89,1502.99,93,1511.99,89" style="stroke:#181818;stroke-width:1.0;"/></g><!--link CommentService to ICommentRepository--><g id="link_CommentService_ICommentRepository"><path codeLine="104" d="M1341.71,228 C1380.67,228 1408,228 1408,228 C1408,228 1408,930 1408,930 C1408,930 1438.64,930 1487.45,930 " fill="none" id="CommentService-to-ICommentRepository" style="stroke:#181818;stroke-width:1.0;"/><polygon fill="#181818" points="1493.45,930,1484.45,926,1488.45,930,1484.45,934,1493.45,930" style="stroke:#181818;stroke-width:1.0;"/></g><!--link CommentService to ICelestialBodyRepository--><g id="link_CommentService_ICelestialBodyRepository"><path codeLine="105" d="M1341.79,209 C1386.09,209 1418,209 1418,209 C1418,209 1418,794 1418,794 C1418,794 1427.51,794 1451.69,794 " fill="none" id="CommentService-to-ICelestialBodyRepository" style="stroke:#181818;stroke-width:1.0;"/><polygon fill="#181818" points="1457.69,794,1448.69,790,1452.69,794,1448.69,798,1457.69,794" style="stroke:#181818;stroke-width:1.0;"/></g><!--link CommentService to IUserRepository--><g id="link_CommentService_IUserRepository"><path codeLine="106" d="M1341.6,190 C1396.49,190 1438,190 1438,190 C1438,190 1438,669 1438,669 C1438,669 1555.63,669 1643.76,669 " fill="none" id="CommentService-to-IUserRepository" style="stroke:#181818;stroke-width:1.0;"/><polygon fill="#181818" points="1649.76,669,1640.76,665,1644.76,669,1640.76,673,1649.76,669" style="stroke:#181818;stroke-width:1.0;"/></g><!--link ICelestialBodyRepository to CelestialBody--><g id="link_ICelestialBodyRepository_CelestialBody"><path codeLine="109" d="M2015.09,802 C2046.47,802 2070.03,802 2094.87,802 " fill="none" id="ICelestialBodyRepository-to-CelestialBody" style="stroke:#181818;stroke-width:1.0;"/><polygon fill="#181818" points="2100.87,802,2091.87,798,2095.87,802,2091.87,806,2100.87,802" style="stroke:#181818;stroke-width:1.0;"/></g><!--link IContentRevisionRepository to ContentRevision--><g id="link_IContentRevisionRepository_ContentRevision"><path codeLine="110" d="M2011.7,530.75 C2033.94,530.75 2049.33,530.75 2068.84,530.75 " fill="none" id="IContentRevisionRepository-to-ContentRevision" style="stroke:#181818;stroke-width:1.0;"/><polygon fill="#181818" points="2074.84,530.75,2065.84,526.75,2069.84,530.75,2065.84,534.75,2074.84,530.75" style="stroke:#181818;stroke-width:1.0;"/></g><!--link ICommentRepository to Comment--><g id="link_ICommentRepository_Comment"><path codeLine="111" d="M1979.68,930 C2019.32,930 2051.84,930 2083.9,930 " fill="none" id="ICommentRepository-to-Comment" style="stroke:#181818;stroke-width:1.0;"/><polygon fill="#181818" points="2089.9,930,2080.9,926,2084.9,930,2080.9,934,2089.9,930" style="stroke:#181818;stroke-width:1.0;"/></g><!--link IUserRepository to User--><g id="link_IUserRepository_User"><path codeLine="112" d="M1823.16,658 C1902.38,658 2012.5,658 2088.78,658 " fill="none" id="IUserRepository-to-User" style="stroke:#181818;stroke-width:1.0;"/><polygon fill="#181818" points="2094.78,658,2085.78,654,2089.78,658,2085.78,662,2094.78,658" style="stroke:#181818;stroke-width:1.0;"/></g><!--SRC=[lLTjRzem4FxkNs7rovX6_m12I42dBbAtJfJz01DVmSB4KMoGegd_VPTtEua3RM5VglfyTy-zF7SE4buDDOecOhipb8i4GYDKHFHUH35Bs85A4O59Ow0gCJj5ICp2FTi2lPl_3kxeNq9fA9dMT0aIj15CBXHFboeoYP8I4ZgTXlLXDiiDAFss1UCOBDA0ZmIVqCUZu5_fn7Nti7wkpUPIsdS2z2ZJVnBQJDj6iy8gJ80PS2v76_ppYnrWGhL9HBGTqqoonaI3CeenPhmHHWTdeph6lEDVr5wkYSHHwaFAh4vAyBfIApW9ZStKYzInm4g7xhbnK9GH6mPHRTyKad6-L8S3tgsL6qIlmp5bH-HCqfmFe3MIfof5dcZXi4ZnZRnP37k1v2H2q5wQbGh8CLtyzr62lPzTjwNMV-BLkqY5dQcRu19ak0tNeg5JyKhekd3B4HRsZS1bOq4-1wATPSxCWUoQUVZy0BZOSxGR00vt4Ex_eFW7q_CGHqIliWK-EgB80izldk04qWRSA2KxixQ2M6bXL2AgUHDOckILOG21qxTQCxMQVFbuNJ9FrnwXsqsDTr3iwhaayzJlUhDncvbm4iePsqsa3_ypis1XPcI_Z7cPPeVUtoCZZ1XuIYgF0QU5g-9OLP1MKJRYWZEEzdD9d4ReNveUm6MxTotaqajBEYzBwm7EYte9OEkkwnQ5FukssH5OO5drFKWFGiUIzINrgDHMmijnqvAlb0GtAKJwGl7Baw8Z1E8GGyGX2h6rnFS5Udy_w_ri63ReVUBEcDZlHHPejS7F1LlfPLvyovPu7jsFs_ZMqg2LEuT3gjOJHaZhBIq3QAsHVYrlQbtTLd3O0MjbuAySoBP0IhplMOSfP61vzx24zAn6YncalSMoktnT_GC0]--></g></svg>