<?xml version="1.0" encoding="us-ascii" standalone="no"?><svg xmlns="http://www.w3.org/2000/svg" xmlns:xlink="http://www.w3.org/1999/xlink" contentStyleType="text/css" height="489px" preserveAspectRatio="none" style="width:2069px;height:489px;background:#FFFFFF;" version="1.1" viewBox="0 0 2069 489" width="2069px" zoomAndPan="magnify"><defs/><g><!--cluster API--><g id="cluster_API"><path d="M8.5,171 L31.5,171 A3.75,3.75 0 0 1 34,173.5 L41,194.6094 L589.5,194.6094 A2.5,2.5 0 0 1 592,197.1094 L592,314.5 A2.5,2.5 0 0 1 589.5,317 L8.5,317 A2.5,2.5 0 0 1 6,314.5 L6,173.5 A2.5,2.5 0 0 1 8.5,171 " fill="none" style="stroke:#000000;stroke-width:1.5;"/><line style="stroke:#000000;stroke-width:1.5;" x1="6" x2="41" y1="194.6094" y2="194.6094"/><text fill="#000000" font-family="sans-serif" font-size="14" font-weight="bold" lengthAdjust="spacing" textLength="22" x="10" y="187.5332">API</text></g><!--cluster Services--><g id="cluster_Services"><path d="M656.5,171 L719.5,171 A3.75,3.75 0 0 1 722,173.5 L729,194.6094 L1207.5,194.6094 A2.5,2.5 0 0 1 1210,197.1094 L1210,314.5 A2.5,2.5 0 0 1 1207.5,317 L656.5,317 A2.5,2.5 0 0 1 654,314.5 L654,173.5 A2.5,2.5 0 0 1 656.5,171 " fill="none" style="stroke:#000000;stroke-width:1.5;"/><line style="stroke:#000000;stroke-width:1.5;" x1="654" x2="729" y1="194.6094" y2="194.6094"/><text fill="#000000" font-family="sans-serif" font-size="14" font-weight="bold" lengthAdjust="spacing" textLength="62" x="658" y="187.5332">Services</text></g><!--cluster Repositories--><g id="cluster_Repositories"><path d="M1245.5,31 L1336.5,31 A3.75,3.75 0 0 1 1339,33.5 L1346,54.6094 L1829.5,54.6094 A2.5,2.5 0 0 1 1832,57.1094 L1832,436.5 A2.5,2.5 0 0 1 1829.5,439 L1245.5,439 A2.5,2.5 0 0 1 1243,436.5 L1243,33.5 A2.5,2.5 0 0 1 1245.5,31 " fill="none" style="stroke:#000000;stroke-width:1.5;"/><line style="stroke:#000000;stroke-width:1.5;" x1="1243" x2="1346" y1="54.6094" y2="54.6094"/><text fill="#000000" font-family="sans-serif" font-size="14" font-weight="bold" lengthAdjust="spacing" textLength="90" x="1247" y="47.5332">Repositories</text></g><!--cluster Entities--><g id="cluster_Entities"><path d="M1867.5,6 L1921.5,6 A3.75,3.75 0 0 1 1924,8.5 L1931,29.6094 L2059.5,29.6094 A2.5,2.5 0 0 1 2062,32.1094 L2062,479.5 A2.5,2.5 0 0 1 2059.5,482 L1867.5,482 A2.5,2.5 0 0 1 1865,479.5 L1865,8.5 A2.5,2.5 0 0 1 1867.5,6 " fill="none" style="stroke:#000000;stroke-width:1.5;"/><line style="stroke:#000000;stroke-width:1.5;" x1="1865" x2="1931" y1="29.6094" y2="29.6094"/><text fill="#000000" font-family="sans-serif" font-size="14" font-weight="bold" lengthAdjust="spacing" textLength="53" x="1869" y="22.5332">Entities</text></g><!--class CommentController--><g id="elem_CommentController"><rect codeLine="4" fill="#F1F1F1" height="93.9219" id="CommentController" rx="2.5" ry="2.5" style="stroke:#181818;stroke-width:0.5;" width="554" x="22" y="207"/><ellipse cx="233.75" cy="228.3516" fill="#ADD1B2" rx="11" ry="11" style="stroke:#181818;stroke-width:1.0;"/><path d="M236.5156,224.2266 Q236.6719,224.0078 236.8594,223.8984 Q237.0469,223.7891 237.2656,223.7891 Q237.6406,223.7891 237.875,224.0547 Q238.1094,224.3047 238.1094,224.9141 L238.1094,226.3672 Q238.1094,226.9766 237.875,227.2422 Q237.6406,227.5078 237.2656,227.5078 Q236.9219,227.5078 236.7188,227.3047 Q236.5156,227.1172 236.4063,226.6016 Q236.3594,226.2422 236.1719,226.0547 Q235.8438,225.6797 235.2344,225.4609 Q234.625,225.2422 234,225.2422 Q233.2344,225.2422 232.5938,225.5703 Q231.9688,225.8984 231.4688,226.6484 Q230.9844,227.3984 230.9844,228.4297 L230.9844,229.5234 Q230.9844,230.7578 231.875,231.5859 Q232.7656,232.3984 234.3594,232.3984 Q235.2969,232.3984 235.9531,232.1484 Q236.3438,231.9922 236.7656,231.5547 Q237.0313,231.2891 237.1719,231.2109 Q237.3281,231.1328 237.5313,231.1328 Q237.8594,231.1328 238.1094,231.3984 Q238.375,231.6484 238.375,231.9922 Q238.375,232.3359 238.0313,232.7422 Q237.5313,233.3203 236.7344,233.6484 Q235.6563,234.1016 234.3594,234.1016 Q232.8438,234.1016 231.6406,233.4766 Q230.6563,232.9766 229.9688,231.9141 Q229.2813,230.8359 229.2813,229.5547 L229.2813,228.3984 Q229.2813,227.0703 229.8906,225.9297 Q230.5156,224.7734 231.6094,224.1641 Q232.7031,223.5391 233.9375,223.5391 Q234.6719,223.5391 235.3125,223.7109 Q235.9688,223.8672 236.5156,224.2266 Z " fill="#000000"/><text fill="#000000" font-family="sans-serif" font-size="12" font-style="italic" lengthAdjust="spacing" textLength="65" x="282.75" y="224.457">&#171;controller&#187;</text><text fill="#000000" font-family="sans-serif" font-size="14" lengthAdjust="spacing" textLength="122" x="254.25" y="241.627">CommentController</text><line style="stroke:#181818;stroke-width:0.5;" x1="23" x2="575" y1="249.7031" y2="249.7031"/><line style="stroke:#181818;stroke-width:0.5;" x1="23" x2="575" y1="257.7031" y2="257.7031"/><ellipse cx="33" cy="272.0078" fill="#84BE84" rx="3" ry="3" style="stroke:#038048;stroke-width:1.0;"/><text fill="#000000" font-family="sans-serif" font-size="14" lengthAdjust="spacing" textLength="528" x="42" y="276.2363">addComment(celestialBodyId: Guid, message: string, jwtSub: string) : CommentDTO</text><ellipse cx="33" cy="289.6172" fill="#84BE84" rx="3" ry="3" style="stroke:#038048;stroke-width:1.0;"/><text fill="#000000" font-family="sans-serif" font-size="14" lengthAdjust="spacing" textLength="369" x="42" y="293.8457">getComments(celestialBodyId: Guid) : List&lt;CommentDTO&gt;</text></g><!--class CommentService--><g id="elem_CommentService"><rect codeLine="11" fill="#F1F1F1" height="93.9219" id="CommentService" rx="2.5" ry="2.5" style="stroke:#181818;stroke-width:0.5;" width="524" x="670" y="207"/><ellipse cx="874.25" cy="228.3516" fill="#ADD1B2" rx="11" ry="11" style="stroke:#181818;stroke-width:1.0;"/><path d="M877.0156,224.2266 Q877.1719,224.0078 877.3594,223.8984 Q877.5469,223.7891 877.7656,223.7891 Q878.1406,223.7891 878.375,224.0547 Q878.6094,224.3047 878.6094,224.9141 L878.6094,226.3672 Q878.6094,226.9766 878.375,227.2422 Q878.1406,227.5078 877.7656,227.5078 Q877.4219,227.5078 877.2188,227.3047 Q877.0156,227.1172 876.9063,226.6016 Q876.8594,226.2422 876.6719,226.0547 Q876.3438,225.6797 875.7344,225.4609 Q875.125,225.2422 874.5,225.2422 Q873.7344,225.2422 873.0938,225.5703 Q872.4688,225.8984 871.9688,226.6484 Q871.4844,227.3984 871.4844,228.4297 L871.4844,229.5234 Q871.4844,230.7578 872.375,231.5859 Q873.2656,232.3984 874.8594,232.3984 Q875.7969,232.3984 876.4531,232.1484 Q876.8438,231.9922 877.2656,231.5547 Q877.5313,231.2891 877.6719,231.2109 Q877.8281,231.1328 878.0313,231.1328 Q878.3594,231.1328 878.6094,231.3984 Q878.875,231.6484 878.875,231.9922 Q878.875,232.3359 878.5313,232.7422 Q878.0313,233.3203 877.2344,233.6484 Q876.1563,234.1016 874.8594,234.1016 Q873.3438,234.1016 872.1406,233.4766 Q871.1563,232.9766 870.4688,231.9141 Q869.7813,230.8359 869.7813,229.5547 L869.7813,228.3984 Q869.7813,227.0703 870.3906,225.9297 Q871.0156,224.7734 872.1094,224.1641 Q873.2031,223.5391 874.4375,223.5391 Q875.1719,223.5391 875.8125,223.7109 Q876.4688,223.8672 877.0156,224.2266 Z " fill="#000000"/><text fill="#000000" font-family="sans-serif" font-size="12" font-style="italic" lengthAdjust="spacing" textLength="53" x="921.75" y="224.457">&#171;service&#187;</text><text fill="#000000" font-family="sans-serif" font-size="14" lengthAdjust="spacing" textLength="107" x="894.75" y="241.627">CommentService</text><line style="stroke:#181818;stroke-width:0.5;" x1="671" x2="1193" y1="249.7031" y2="249.7031"/><line style="stroke:#181818;stroke-width:0.5;" x1="671" x2="1193" y1="257.7031" y2="257.7031"/><ellipse cx="681" cy="272.0078" fill="#84BE84" rx="3" ry="3" style="stroke:#038048;stroke-width:1.0;"/><text fill="#000000" font-family="sans-serif" font-size="14" lengthAdjust="spacing" textLength="498" x="690" y="276.2363">addComment(celestialBodyId: Guid, message: string, jwtSub: string) : Comment</text><ellipse cx="681" cy="289.6172" fill="#84BE84" rx="3" ry="3" style="stroke:#038048;stroke-width:1.0;"/><text fill="#000000" font-family="sans-serif" font-size="14" lengthAdjust="spacing" textLength="339" x="690" y="293.8457">getComments(celestialBodyId: Guid) : List&lt;Comment&gt;</text></g><!--class ICommentRepository--><g id="elem_ICommentRepository"><rect codeLine="18" fill="#F1F1F1" height="83.2188" id="ICommentRepository" rx="2.5" ry="2.5" style="stroke:#181818;stroke-width:0.5;" width="486" x="1294.5" y="67.5"/><ellipse cx="1467.25" cy="83.5" fill="#B4A7E5" rx="11" ry="11" style="stroke:#181818;stroke-width:1.0;"/><path d="M1468.2031,80.1406 L1468.2031,86.7969 L1469.9219,86.7969 Q1470.5313,86.7969 1470.7969,87.0313 Q1471.0625,87.2656 1471.0625,87.6563 Q1471.0625,88.0313 1470.7969,88.2656 Q1470.5313,88.5 1469.9219,88.5 L1464.7813,88.5 Q1464.1719,88.5 1463.9063,88.2656 Q1463.6406,88.0313 1463.6406,87.6406 Q1463.6406,87.2656 1463.9063,87.0313 Q1464.1719,86.7969 1464.7813,86.7969 L1466.5,86.7969 L1466.5,80.1406 L1464.7813,80.1406 Q1464.1719,80.1406 1463.9063,79.9063 Q1463.6406,79.6719 1463.6406,79.2813 Q1463.6406,78.9063 1463.9063,78.6719 Q1464.1719,78.4375 1464.7813,78.4375 L1469.9219,78.4375 Q1470.5313,78.4375 1470.7969,78.6719 Q1471.0625,78.9063 1471.0625,79.2813 Q1471.0625,79.6719 1470.7969,79.9063 Q1470.5313,80.1406 1469.9219,80.1406 L1468.2031,80.1406 Z " fill="#000000"/><text fill="#000000" font-family="sans-serif" font-size="14" font-style="italic" lengthAdjust="spacing" textLength="132" x="1487.75" y="89.2285">ICommentRepository</text><line style="stroke:#181818;stroke-width:0.5;" x1="1295.5" x2="1779.5" y1="99.5" y2="99.5"/><line style="stroke:#181818;stroke-width:0.5;" x1="1295.5" x2="1779.5" y1="107.5" y2="107.5"/><ellipse cx="1305.5" cy="121.8047" fill="#84BE84" rx="3" ry="3" style="stroke:#038048;stroke-width:1.0;"/><text fill="#000000" font-family="sans-serif" font-size="14" lengthAdjust="spacing" textLength="460" x="1314.5" y="126.0332">create(celestialBodyId: Guid, authorId: Guid, message: string) : Comment</text><ellipse cx="1305.5" cy="139.4141" fill="#84BE84" rx="3" ry="3" style="stroke:#038048;stroke-width:1.0;"/><text fill="#000000" font-family="sans-serif" font-size="14" lengthAdjust="spacing" textLength="385" x="1314.5" y="143.6426">getByCelestialBodyId(celestialBodyId: Guid) : List&lt;Comment&gt;</text></g><!--class ICelestialBodyRepository--><g id="elem_ICelestialBodyRepository"><rect codeLine="23" fill="#F1F1F1" height="136.0469" id="ICelestialBodyRepository" rx="2.5" ry="2.5" style="stroke:#181818;stroke-width:0.5;" width="557" x="1259" y="186"/><ellipse cx="1454.25" cy="202" fill="#B4A7E5" rx="11" ry="11" style="stroke:#181818;stroke-width:1.0;"/><path d="M1455.2031,198.6406 L1455.2031,205.2969 L1456.9219,205.2969 Q1457.5313,205.2969 1457.7969,205.5313 Q1458.0625,205.7656 1458.0625,206.1563 Q1458.0625,206.5313 1457.7969,206.7656 Q1457.5313,207 1456.9219,207 L1451.7813,207 Q1451.1719,207 1450.9063,206.7656 Q1450.6406,206.5313 1450.6406,206.1406 Q1450.6406,205.7656 1450.9063,205.5313 Q1451.1719,205.2969 1451.7813,205.2969 L1453.5,205.2969 L1453.5,198.6406 L1451.7813,198.6406 Q1451.1719,198.6406 1450.9063,198.4063 Q1450.6406,198.1719 1450.6406,197.7813 Q1450.6406,197.4063 1450.9063,197.1719 Q1451.1719,196.9375 1451.7813,196.9375 L1456.9219,196.9375 Q1457.5313,196.9375 1457.7969,197.1719 Q1458.0625,197.4063 1458.0625,197.7813 Q1458.0625,198.1719 1457.7969,198.4063 Q1457.5313,198.6406 1456.9219,198.6406 L1455.2031,198.6406 Z " fill="#000000"/><text fill="#000000" font-family="sans-serif" font-size="14" font-style="italic" lengthAdjust="spacing" textLength="158" x="1474.75" y="207.7285">ICelestialBodyRepository</text><line style="stroke:#181818;stroke-width:0.5;" x1="1260" x2="1815" y1="218" y2="218"/><line style="stroke:#181818;stroke-width:0.5;" x1="1260" x2="1815" y1="226" y2="226"/><ellipse cx="1270" cy="240.3047" fill="#84BE84" rx="3" ry="3" style="stroke:#038048;stroke-width:1.0;"/><text fill="#000000" font-family="sans-serif" font-size="14" lengthAdjust="spacing" textLength="204" x="1279" y="244.5332">getById(id: Guid) : CelestialBody</text><ellipse cx="1270" cy="257.9141" fill="#84BE84" rx="3" ry="3" style="stroke:#038048;stroke-width:1.0;"/><text fill="#000000" font-family="sans-serif" font-size="14" lengthAdjust="spacing" textLength="181" x="1279" y="262.1426">getAll() : List&lt;CelestialBody&gt;</text><ellipse cx="1270" cy="275.5234" fill="#84BE84" rx="3" ry="3" style="stroke:#038048;stroke-width:1.0;"/><text fill="#000000" font-family="sans-serif" font-size="14" lengthAdjust="spacing" textLength="470" x="1279" y="279.752">create(bodyName: string, bodyTypeId: Guid, orbitsId: Guid) : CelestialBody</text><ellipse cx="1270" cy="293.1328" fill="#84BE84" rx="3" ry="3" style="stroke:#038048;stroke-width:1.0;"/><text fill="#000000" font-family="sans-serif" font-size="14" lengthAdjust="spacing" textLength="531" x="1279" y="297.3613">update(id: Guid, bodyName: string, bodyTypeId: Guid, orbitsId: Guid) : CelestialBody</text><ellipse cx="1270" cy="310.7422" fill="#84BE84" rx="3" ry="3" style="stroke:#038048;stroke-width:1.0;"/><text fill="#000000" font-family="sans-serif" font-size="14" lengthAdjust="spacing" textLength="136" x="1279" y="314.9707">delete(id: Guid) : void</text></g><!--class IUserRepository--><g id="elem_IUserRepository"><rect codeLine="31" fill="#F1F1F1" height="65.6094" id="IUserRepository" rx="2.5" ry="2.5" style="stroke:#181818;stroke-width:0.5;" width="295" x="1390" y="357"/><ellipse cx="1482.25" cy="373" fill="#B4A7E5" rx="11" ry="11" style="stroke:#181818;stroke-width:1.0;"/><path d="M1483.2031,369.6406 L1483.2031,376.2969 L1484.9219,376.2969 Q1485.5313,376.2969 1485.7969,376.5313 Q1486.0625,376.7656 1486.0625,377.1563 Q1486.0625,377.5313 1485.7969,377.7656 Q1485.5313,378 1484.9219,378 L1479.7813,378 Q1479.1719,378 1478.9063,377.7656 Q1478.6406,377.5313 1478.6406,377.1406 Q1478.6406,376.7656 1478.9063,376.5313 Q1479.1719,376.2969 1479.7813,376.2969 L1481.5,376.2969 L1481.5,369.6406 L1479.7813,369.6406 Q1479.1719,369.6406 1478.9063,369.4063 Q1478.6406,369.1719 1478.6406,368.7813 Q1478.6406,368.4063 1478.9063,368.1719 Q1479.1719,367.9375 1479.7813,367.9375 L1484.9219,367.9375 Q1485.5313,367.9375 1485.7969,368.1719 Q1486.0625,368.4063 1486.0625,368.7813 Q1486.0625,369.1719 1485.7969,369.4063 Q1485.5313,369.6406 1484.9219,369.6406 L1483.2031,369.6406 Z " fill="#000000"/><text fill="#000000" font-family="sans-serif" font-size="14" font-style="italic" lengthAdjust="spacing" textLength="102" x="1502.75" y="378.7285">IUserRepository</text><line style="stroke:#181818;stroke-width:0.5;" x1="1391" x2="1684" y1="389" y2="389"/><line style="stroke:#181818;stroke-width:0.5;" x1="1391" x2="1684" y1="397" y2="397"/><ellipse cx="1401" cy="411.3047" fill="#84BE84" rx="3" ry="3" style="stroke:#038048;stroke-width:1.0;"/><text fill="#000000" font-family="sans-serif" font-size="14" lengthAdjust="spacing" textLength="269" x="1410" y="415.5332">getByGoogleSub(googleSub: string) : User</text></g><!--class Comment--><g id="elem_Comment"><rect codeLine="37" fill="#F1F1F1" height="118.4375" id="Comment" rx="2.5" ry="2.5" style="stroke:#181818;stroke-width:0.5;" width="165" x="1881" y="42"/><ellipse cx="1929.25" cy="58" fill="#ADD1B2" rx="11" ry="11" style="stroke:#181818;stroke-width:1.0;"/><path d="M1932.0156,53.875 Q1932.1719,53.6563 1932.3594,53.5469 Q1932.5469,53.4375 1932.7656,53.4375 Q1933.1406,53.4375 1933.375,53.7031 Q1933.6094,53.9531 1933.6094,54.5625 L1933.6094,56.0156 Q1933.6094,56.625 1933.375,56.8906 Q1933.1406,57.1563 1932.7656,57.1563 Q1932.4219,57.1563 1932.2188,56.9531 Q1932.0156,56.7656 1931.9063,56.25 Q1931.8594,55.8906 1931.6719,55.7031 Q1931.3438,55.3281 1930.7344,55.1094 Q1930.125,54.8906 1929.5,54.8906 Q1928.7344,54.8906 1928.0938,55.2188 Q1927.4688,55.5469 1926.9688,56.2969 Q1926.4844,57.0469 1926.4844,58.0781 L1926.4844,59.1719 Q1926.4844,60.4063 1927.375,61.2344 Q1928.2656,62.0469 1929.8594,62.0469 Q1930.7969,62.0469 1931.4531,61.7969 Q1931.8438,61.6406 1932.2656,61.2031 Q1932.5313,60.9375 1932.6719,60.8594 Q1932.8281,60.7813 1933.0313,60.7813 Q1933.3594,60.7813 1933.6094,61.0469 Q1933.875,61.2969 1933.875,61.6406 Q1933.875,61.9844 1933.5313,62.3906 Q1933.0313,62.9688 1932.2344,63.2969 Q1931.1563,63.75 1929.8594,63.75 Q1928.3438,63.75 1927.1406,63.125 Q1926.1563,62.625 1925.4688,61.5625 Q1924.7813,60.4844 1924.7813,59.2031 L1924.7813,58.0469 Q1924.7813,56.7188 1925.3906,55.5781 Q1926.0156,54.4219 1927.1094,53.8125 Q1928.2031,53.1875 1929.4375,53.1875 Q1930.1719,53.1875 1930.8125,53.3594 Q1931.4688,53.5156 1932.0156,53.875 Z " fill="#000000"/><text fill="#000000" font-family="sans-serif" font-size="14" lengthAdjust="spacing" textLength="60" x="1949.75" y="63.7285">Comment</text><line style="stroke:#181818;stroke-width:0.5;" x1="1882" x2="2045" y1="74" y2="74"/><ellipse cx="1892" cy="88.3047" fill="none" rx="3" ry="3" style="stroke:#038048;stroke-width:1.0;"/><text fill="#000000" font-family="sans-serif" font-size="14" lengthAdjust="spacing" textLength="53" x="1901" y="92.5332">Id : Guid</text><ellipse cx="1892" cy="105.9141" fill="none" rx="3" ry="3" style="stroke:#038048;stroke-width:1.0;"/><text fill="#000000" font-family="sans-serif" font-size="14" lengthAdjust="spacing" textLength="139" x="1901" y="110.1426">CelestialBodyId : Guid</text><ellipse cx="1892" cy="123.5234" fill="none" rx="3" ry="3" style="stroke:#038048;stroke-width:1.0;"/><text fill="#000000" font-family="sans-serif" font-size="14" lengthAdjust="spacing" textLength="95" x="1901" y="127.752">AuthorId : Guid</text><ellipse cx="1892" cy="141.1328" fill="none" rx="3" ry="3" style="stroke:#038048;stroke-width:1.0;"/><text fill="#000000" font-family="sans-serif" font-size="14" lengthAdjust="spacing" textLength="104" x="1901" y="145.3613">Message : string</text><line style="stroke:#181818;stroke-width:0.5;" x1="1882" x2="2045" y1="152.4375" y2="152.4375"/></g><!--class CelestialBody--><g id="elem_CelestialBody"><rect codeLine="44" fill="#F1F1F1" height="118.4375" id="CelestialBody" rx="2.5" ry="2.5" style="stroke:#181818;stroke-width:0.5;" width="143" x="1892" y="195"/><ellipse cx="1918.25" cy="211" fill="#ADD1B2" rx="11" ry="11" style="stroke:#181818;stroke-width:1.0;"/><path d="M1921.0156,206.875 Q1921.1719,206.6563 1921.3594,206.5469 Q1921.5469,206.4375 1921.7656,206.4375 Q1922.1406,206.4375 1922.375,206.7031 Q1922.6094,206.9531 1922.6094,207.5625 L1922.6094,209.0156 Q1922.6094,209.625 1922.375,209.8906 Q1922.1406,210.1563 1921.7656,210.1563 Q1921.4219,210.1563 1921.2188,209.9531 Q1921.0156,209.7656 1920.9063,209.25 Q1920.8594,208.8906 1920.6719,208.7031 Q1920.3438,208.3281 1919.7344,208.1094 Q1919.125,207.8906 1918.5,207.8906 Q1917.7344,207.8906 1917.0938,208.2188 Q1916.4688,208.5469 1915.9688,209.2969 Q1915.4844,210.0469 1915.4844,211.0781 L1915.4844,212.1719 Q1915.4844,213.4063 1916.375,214.2344 Q1917.2656,215.0469 1918.8594,215.0469 Q1919.7969,215.0469 1920.4531,214.7969 Q1920.8438,214.6406 1921.2656,214.2031 Q1921.5313,213.9375 1921.6719,213.8594 Q1921.8281,213.7813 1922.0313,213.7813 Q1922.3594,213.7813 1922.6094,214.0469 Q1922.875,214.2969 1922.875,214.6406 Q1922.875,214.9844 1922.5313,215.3906 Q1922.0313,215.9688 1921.2344,216.2969 Q1920.1563,216.75 1918.8594,216.75 Q1917.3438,216.75 1916.1406,216.125 Q1915.1563,215.625 1914.4688,214.5625 Q1913.7813,213.4844 1913.7813,212.2031 L1913.7813,211.0469 Q1913.7813,209.7188 1914.3906,208.5781 Q1915.0156,207.4219 1916.1094,206.8125 Q1917.2031,206.1875 1918.4375,206.1875 Q1919.1719,206.1875 1919.8125,206.3594 Q1920.4688,206.5156 1921.0156,206.875 Z " fill="#000000"/><text fill="#000000" font-family="sans-serif" font-size="14" lengthAdjust="spacing" textLength="86" x="1934.75" y="216.7285">CelestialBody</text><line style="stroke:#181818;stroke-width:0.5;" x1="1893" x2="2034" y1="227" y2="227"/><ellipse cx="1903" cy="241.3047" fill="none" rx="3" ry="3" style="stroke:#038048;stroke-width:1.0;"/><text fill="#000000" font-family="sans-serif" font-size="14" lengthAdjust="spacing" textLength="53" x="1912" y="245.5332">Id : Guid</text><ellipse cx="1903" cy="258.9141" fill="none" rx="3" ry="3" style="stroke:#038048;stroke-width:1.0;"/><text fill="#000000" font-family="sans-serif" font-size="14" lengthAdjust="spacing" textLength="115" x="1912" y="263.1426">BodyName : string</text><ellipse cx="1903" cy="276.5234" fill="none" rx="3" ry="3" style="stroke:#038048;stroke-width:1.0;"/><text fill="#000000" font-family="sans-serif" font-size="14" lengthAdjust="spacing" textLength="117" x="1912" y="280.752">BodyTypeId : Guid</text><ellipse cx="1903" cy="294.1328" fill="none" rx="3" ry="3" style="stroke:#038048;stroke-width:1.0;"/><text fill="#000000" font-family="sans-serif" font-size="14" lengthAdjust="spacing" textLength="91" x="1912" y="298.3613">OrbitsId : Guid</text><line style="stroke:#181818;stroke-width:0.5;" x1="1893" x2="2034" y1="305.4375" y2="305.4375"/></g><!--class User--><g id="elem_User"><rect codeLine="51" fill="#F1F1F1" height="118.4375" id="User" rx="2.5" ry="2.5" style="stroke:#181818;stroke-width:0.5;" width="155" x="1886" y="348"/><ellipse cx="1944.75" cy="364" fill="#ADD1B2" rx="11" ry="11" style="stroke:#181818;stroke-width:1.0;"/><path d="M1947.5156,359.875 Q1947.6719,359.6563 1947.8594,359.5469 Q1948.0469,359.4375 1948.2656,359.4375 Q1948.6406,359.4375 1948.875,359.7031 Q1949.1094,359.9531 1949.1094,360.5625 L1949.1094,362.0156 Q1949.1094,362.625 1948.875,362.8906 Q1948.6406,363.1563 1948.2656,363.1563 Q1947.9219,363.1563 1947.7188,362.9531 Q1947.5156,362.7656 1947.4063,362.25 Q1947.3594,361.8906 1947.1719,361.7031 Q1946.8438,361.3281 1946.2344,361.1094 Q1945.625,360.8906 1945,360.8906 Q1944.2344,360.8906 1943.5938,361.2188 Q1942.9688,361.5469 1942.4688,362.2969 Q1941.9844,363.0469 1941.9844,364.0781 L1941.9844,365.1719 Q1941.9844,366.4063 1942.875,367.2344 Q1943.7656,368.0469 1945.3594,368.0469 Q1946.2969,368.0469 1946.9531,367.7969 Q1947.3438,367.6406 1947.7656,367.2031 Q1948.0313,366.9375 1948.1719,366.8594 Q1948.3281,366.7813 1948.5313,366.7813 Q1948.8594,366.7813 1949.1094,367.0469 Q1949.375,367.2969 1949.375,367.6406 Q1949.375,367.9844 1949.0313,368.3906 Q1948.5313,368.9688 1947.7344,369.2969 Q1946.6563,369.75 1945.3594,369.75 Q1943.8438,369.75 1942.6406,369.125 Q1941.6563,368.625 1940.9688,367.5625 Q1940.2813,366.4844 1940.2813,365.2031 L1940.2813,364.0469 Q1940.2813,362.7188 1940.8906,361.5781 Q1941.5156,360.4219 1942.6094,359.8125 Q1943.7031,359.1875 1944.9375,359.1875 Q1945.6719,359.1875 1946.3125,359.3594 Q1946.9688,359.5156 1947.5156,359.875 Z " fill="#000000"/><text fill="#000000" font-family="sans-serif" font-size="14" lengthAdjust="spacing" textLength="29" x="1965.25" y="369.7285">User</text><line style="stroke:#181818;stroke-width:0.5;" x1="1887" x2="2040" y1="380" y2="380"/><ellipse cx="1897" cy="394.3047" fill="none" rx="3" ry="3" style="stroke:#038048;stroke-width:1.0;"/><text fill="#000000" font-family="sans-serif" font-size="14" lengthAdjust="spacing" textLength="53" x="1906" y="398.5332">Id : Guid</text><ellipse cx="1897" cy="411.9141" fill="none" rx="3" ry="3" style="stroke:#038048;stroke-width:1.0;"/><text fill="#000000" font-family="sans-serif" font-size="14" lengthAdjust="spacing" textLength="129" x="1906" y="416.1426">DisplayName : string</text><ellipse cx="1897" cy="429.5234" fill="none" rx="3" ry="3" style="stroke:#038048;stroke-width:1.0;"/><text fill="#000000" font-family="sans-serif" font-size="14" lengthAdjust="spacing" textLength="118" x="1906" y="433.752">GoogleSub : string</text><ellipse cx="1897" cy="447.1328" fill="none" rx="3" ry="3" style="stroke:#038048;stroke-width:1.0;"/><text fill="#000000" font-family="sans-serif" font-size="14" lengthAdjust="spacing" textLength="82" x="1906" y="451.3613">RoleId : Guid</text><line style="stroke:#181818;stroke-width:0.5;" x1="1887" x2="2040" y1="458.4375" y2="458.4375"/></g><!--link CommentController to CommentService--><g id="link_CommentController_CommentService"><path codeLine="60" d="M576.31,254 C607.29,254 632.79,254 663.58,254 " fill="none" id="CommentController-to-CommentService" style="stroke:#181818;stroke-width:1.0;"/><polygon fill="#181818" points="669.58,254,660.58,250,664.58,254,660.58,258,669.58,254" style="stroke:#181818;stroke-width:1.0;"/><text fill="#000000" font-family="sans-serif" font-size="13" lengthAdjust="spacing" textLength="28" x="609" y="250.4951">uses</text></g><!--link CommentService to ICommentRepository--><g id="link_CommentService_ICommentRepository"><path codeLine="63" d="M1088.69,206.96 C1135.51,193.54 1187.16,179.47 1235,168 C1260.16,161.97 1280.7285,157.3349 1307.0685,151.7949 " fill="none" id="CommentService-to-ICommentRepository" style="stroke:#181818;stroke-width:1.0;"/><polygon fill="#181818" points="1312.94,150.56,1303.3094,148.4981,1308.0471,151.5891,1304.956,156.3268,1312.94,150.56" style="stroke:#181818;stroke-width:1.0;"/></g><!--link CommentService to ICelestialBodyRepository--><g id="link_CommentService_ICelestialBodyRepository"><path codeLine="64" d="M1194.19,254 C1215.54,254 1231.16,254 1252.61,254 " fill="none" id="CommentService-to-ICelestialBodyRepository" style="stroke:#181818;stroke-width:1.0;"/><polygon fill="#181818" points="1258.61,254,1249.61,250,1253.61,254,1249.61,258,1258.61,254" style="stroke:#181818;stroke-width:1.0;"/></g><!--link CommentService to IUserRepository--><g id="link_CommentService_IUserRepository"><path codeLine="65" d="M1088.16,301.1 C1135.07,314.41 1186.91,328.2 1235,339 C1285.11,350.26 1334.4896,359.3158 1383.8996,367.4458 " fill="none" id="CommentService-to-IUserRepository" style="stroke:#181818;stroke-width:1.0;"/><polygon fill="#181818" points="1389.82,368.42,1381.5888,363.0118,1384.8863,367.6082,1380.29,370.9057,1389.82,368.42" style="stroke:#181818;stroke-width:1.0;"/></g><!--link ICommentRepository to Comment--><g id="link_ICommentRepository_Comment"><path codeLine="68" d="M1780.53,104.43 C1816.57,103.75 1845.4211,103.2143 1874.8111,102.6543 " fill="none" id="ICommentRepository-to-Comment" style="stroke:#181818;stroke-width:1.0;"/><polygon fill="#181818" points="1880.81,102.54,1871.7354,98.7122,1875.8109,102.6353,1871.8878,106.7107,1880.81,102.54" style="stroke:#181818;stroke-width:1.0;"/></g><!--link ICelestialBodyRepository to CelestialBody--><g id="link_ICelestialBodyRepository_CelestialBody"><path codeLine="69" d="M1816.29,254 C1843.8,254 1863.68,254 1885.79,254 " fill="none" id="ICelestialBodyRepository-to-CelestialBody" style="stroke:#181818;stroke-width:1.0;"/><polygon fill="#181818" points="1891.79,254,1882.79,250,1886.79,254,1882.79,258,1891.79,254" style="stroke:#181818;stroke-width:1.0;"/></g><!--link IUserRepository to User--><g id="link_IUserRepository_User"><path codeLine="70" d="M1685.01,395.87 C1752.63,398.59 1824.1148,401.4496 1879.9848,403.6896 " fill="none" id="IUserRepository-to-User" style="stroke:#181818;stroke-width:1.0;"/><polygon fill="#181818" points="1885.98,403.93,1877.1475,399.5727,1880.984,403.7297,1876.827,407.5662,1885.98,403.93" style="stroke:#181818;stroke-width:1.0;"/></g><!--SRC=[jLNHRfmm47pdArPvwLLDVk1qGhgxH15IsrH9-W4-l27R-Z2oJIfKvTzh7pPdm4HgbRxXPNR6iuoDm2S3HeAYwja09uMb8LbdMSFAdwn2kDX-AoxWTmPG2gOrxENnYBNPozeeAGGgs6pAOP7d9oZ09yQvXwvA5AWDCR6Jl2lu6cvRufTmHAsjmXgqKLHNb_3Zbtbe3s7z4TP1xFhnhYUjqFYIJhEwfi-apURScTlMr-mrSlI0weLAr0bR_fNrfFkd_sFe7ztChTnZ8pKPgIZOeTgWUcBMG-6x1amNh9GAcS4b6wmrpr8jsahPs7NxCTVV-9biEcwSR_qaPlafeXor3B2j4AkpO0p9HrCusCfNTem-cwiyTWsUHo3LWOmktjPi6-xuQEXwDsPkIn6pGxr8uedfVRUnNHZQhPILG9l7LHMUua_gEcVnkgaD6KgUbC1TSEXtrIydEHYzs_fWZOfV-dH1s4imvSLYkWN9dHzpJE7B_Qn7w3i_y7CnadD3M52v9jq8bX8Q1Zkftqk1Onshz07iVGgMo0fnRB3cM9TsmjdyNhswogVNqXfQRR6M9LIMcGB2qSolWZGgVVQIs77It9QYtDaV2hheT5dY4efyPOl7_GGQdOHfjXtY5De_]--></g></svg>