<?xml version="1.0" encoding="us-ascii" standalone="no"?><svg xmlns="http://www.w3.org/2000/svg" xmlns:xlink="http://www.w3.org/1999/xlink" contentStyleType="text/css" height="1228px" preserveAspectRatio="none" style="width:2157px;height:1228px;background:#FFFFFF;" version="1.1" viewBox="0 0 2157 1228" width="2157px" zoomAndPan="magnify"><defs/><g><!--cluster API--><g id="cluster_API"><path d="M8.5,267 L31.5,267 A3.75,3.75 0 0 1 34,269.5 L41,290.6094 L572.5,290.6094 A2.5,2.5 0 0 1 575,293.1094 L575,428.5 A2.5,2.5 0 0 1 572.5,431 L8.5,431 A2.5,2.5 0 0 1 6,428.5 L6,269.5 A2.5,2.5 0 0 1 8.5,267 " fill="none" style="stroke:#000000;stroke-width:1.5;"/><line style="stroke:#000000;stroke-width:1.5;" x1="6" x2="41" y1="290.6094" y2="290.6094"/><text fill="#000000" font-family="sans-serif" font-size="14" font-weight="bold" lengthAdjust="spacing" textLength="22" x="10" y="283.5332">API</text></g><!--cluster Services--><g id="cluster_Services"><path d="M605.5,6 L668.5,6 A3.75,3.75 0 0 1 671,8.5 L678,29.6094 L1838.5,29.6094 A2.5,2.5 0 0 1 1841,32.1094 L1841,461.5 A2.5,2.5 0 0 1 1838.5,464 L605.5,464 A2.5,2.5 0 0 1 603,461.5 L603,8.5 A2.5,2.5 0 0 1 605.5,6 " fill="none" style="stroke:#000000;stroke-width:1.5;"/><line style="stroke:#000000;stroke-width:1.5;" x1="603" x2="678" y1="29.6094" y2="29.6094"/><text fill="#000000" font-family="sans-serif" font-size="14" font-weight="bold" lengthAdjust="spacing" textLength="62" x="607" y="22.5332">Services</text></g><!--cluster Repositories--><g id="cluster_Repositories"><path d="M1308.5,488 L1399.5,488 A3.75,3.75 0 0 1 1402,490.5 L1409,511.6094 L1892.5,511.6094 A2.5,2.5 0 0 1 1895,514.1094 L1895,1012.5 A2.5,2.5 0 0 1 1892.5,1015 L1308.5,1015 A2.5,2.5 0 0 1 1306,1012.5 L1306,490.5 A2.5,2.5 0 0 1 1308.5,488 " fill="none" style="stroke:#000000;stroke-width:1.5;"/><line style="stroke:#000000;stroke-width:1.5;" x1="1306" x2="1409" y1="511.6094" y2="511.6094"/><text fill="#000000" font-family="sans-serif" font-size="14" font-weight="bold" lengthAdjust="spacing" textLength="90" x="1310" y="504.5332">Repositories</text></g><!--cluster Entities--><g id="cluster_Entities"><path d="M1925.5,438 L1979.5,438 A3.75,3.75 0 0 1 1982,440.5 L1989,461.6094 L2147.5,461.6094 A2.5,2.5 0 0 1 2150,464.1094 L2150,1064.5 A2.5,2.5 0 0 1 2147.5,1067 L1925.5,1067 A2.5,2.5 0 0 1 1923,1064.5 L1923,440.5 A2.5,2.5 0 0 1 1925.5,438 " fill="none" style="stroke:#000000;stroke-width:1.5;"/><line style="stroke:#000000;stroke-width:1.5;" x1="1923" x2="1989" y1="461.6094" y2="461.6094"/><text fill="#000000" font-family="sans-serif" font-size="14" font-weight="bold" lengthAdjust="spacing" textLength="53" x="1927" y="454.5332">Entities</text></g><!--cluster DTOs--><g id="cluster_DTOs"><path d="M1488.5,1039 L1526.5,1039 A3.75,3.75 0 0 1 1529,1041.5 L1536,1062.6094 L1712.5,1062.6094 A2.5,2.5 0 0 1 1715,1065.1094 L1715,1218.5 A2.5,2.5 0 0 1 1712.5,1221 L1488.5,1221 A2.5,2.5 0 0 1 1486,1218.5 L1486,1041.5 A2.5,2.5 0 0 1 1488.5,1039 " fill="none" style="stroke:#000000;stroke-width:1.5;"/><line style="stroke:#000000;stroke-width:1.5;" x1="1486" x2="1536" y1="1062.6094" y2="1062.6094"/><text fill="#000000" font-family="sans-serif" font-size="14" font-weight="bold" lengthAdjust="spacing" textLength="37" x="1490" y="1055.5332">DTOs</text></g><!--cluster Mappers--><g id="cluster_Mappers"><path d="M744.5,806 L807.5,806 A3.75,3.75 0 0 1 810,808.5 L817,829.6094 L1136.5,829.6094 A2.5,2.5 0 0 1 1139,832.1094 L1139,931.5 A2.5,2.5 0 0 1 1136.5,934 L744.5,934 A2.5,2.5 0 0 1 742,931.5 L742,808.5 A2.5,2.5 0 0 1 744.5,806 " fill="none" style="stroke:#000000;stroke-width:1.5;"/><line style="stroke:#000000;stroke-width:1.5;" x1="742" x2="817" y1="829.6094" y2="829.6094"/><text fill="#000000" font-family="sans-serif" font-size="14" font-weight="bold" lengthAdjust="spacing" textLength="62" x="746" y="822.5332">Mappers</text></g><!--class ContentRevisionController--><g id="elem_ContentRevisionController"><rect codeLine="6" fill="#F1F1F1" height="111.5313" id="ContentRevisionController" rx="2.5" ry="2.5" style="stroke:#181818;stroke-width:0.5;" width="537" x="22" y="303"/><ellipse cx="203.25" cy="324.3516" fill="#ADD1B2" rx="11" ry="11" style="stroke:#181818;stroke-width:1.0;"/><path d="M206.0156,320.2266 Q206.1719,320.0078 206.3594,319.8984 Q206.5469,319.7891 206.7656,319.7891 Q207.1406,319.7891 207.375,320.0547 Q207.6094,320.3047 207.6094,320.9141 L207.6094,322.3672 Q207.6094,322.9766 207.375,323.2422 Q207.1406,323.5078 206.7656,323.5078 Q206.4219,323.5078 206.2188,323.3047 Q206.0156,323.1172 205.9063,322.6016 Q205.8594,322.2422 205.6719,322.0547 Q205.3438,321.6797 204.7344,321.4609 Q204.125,321.2422 203.5,321.2422 Q202.7344,321.2422 202.0938,321.5703 Q201.4688,321.8984 200.9688,322.6484 Q200.4844,323.3984 200.4844,324.4297 L200.4844,325.5234 Q200.4844,326.7578 201.375,327.5859 Q202.2656,328.3984 203.8594,328.3984 Q204.7969,328.3984 205.4531,328.1484 Q205.8438,327.9922 206.2656,327.5547 Q206.5313,327.2891 206.6719,327.2109 Q206.8281,327.1328 207.0313,327.1328 Q207.3594,327.1328 207.6094,327.3984 Q207.875,327.6484 207.875,327.9922 Q207.875,328.3359 207.5313,328.7422 Q207.0313,329.3203 206.2344,329.6484 Q205.1563,330.1016 203.8594,330.1016 Q202.3438,330.1016 201.1406,329.4766 Q200.1563,328.9766 199.4688,327.9141 Q198.7813,326.8359 198.7813,325.5547 L198.7813,324.3984 Q198.7813,323.0703 199.3906,321.9297 Q200.0156,320.7734 201.1094,320.1641 Q202.2031,319.5391 203.4375,319.5391 Q204.1719,319.5391 204.8125,319.7109 Q205.4688,319.8672 206.0156,320.2266 Z " fill="#000000"/><text fill="#000000" font-family="sans-serif" font-size="12" font-style="italic" lengthAdjust="spacing" textLength="65" x="274.25" y="320.457">&#171;controller&#187;</text><text fill="#000000" font-family="sans-serif" font-size="14" lengthAdjust="spacing" textLength="166" x="223.75" y="337.627">ContentRevisionController</text><line style="stroke:#181818;stroke-width:0.5;" x1="23" x2="558" y1="345.7031" y2="345.7031"/><line style="stroke:#181818;stroke-width:0.5;" x1="23" x2="558" y1="353.7031" y2="353.7031"/><ellipse cx="33" cy="368.0078" fill="#84BE84" rx="3" ry="3" style="stroke:#038048;stroke-width:1.0;"/><text fill="#000000" font-family="sans-serif" font-size="14" lengthAdjust="spacing" textLength="306" x="42" y="372.2363">getRevisionById(id: Guid) : ContentRevisionDTO</text><ellipse cx="33" cy="385.6172" fill="#84BE84" rx="3" ry="3" style="stroke:#038048;stroke-width:1.0;"/><text fill="#000000" font-family="sans-serif" font-size="14" lengthAdjust="spacing" textLength="448" x="42" y="389.8457">getRevisionsByCelestialBody(path: string) : List&lt;ContentRevisionDTO&gt;</text><ellipse cx="33" cy="403.2266" fill="#84BE84" rx="3" ry="3" style="stroke:#038048;stroke-width:1.0;"/><text fill="#000000" font-family="sans-serif" font-size="14" lengthAdjust="spacing" textLength="511" x="42" y="407.4551">createRevision(path: string, content: string, jwtSub: string) : ContentRevisionDTO</text></g><!--class ContentRevisionService--><g id="elem_ContentRevisionService"><rect codeLine="14" fill="#F1F1F1" height="111.5313" id="ContentRevisionService" rx="2.5" ry="2.5" style="stroke:#181818;stroke-width:0.5;" width="507" x="687" y="42"/><ellipse cx="860.75" cy="63.3516" fill="#ADD1B2" rx="11" ry="11" style="stroke:#181818;stroke-width:1.0;"/><path d="M863.5156,59.2266 Q863.6719,59.0078 863.8594,58.8984 Q864.0469,58.7891 864.2656,58.7891 Q864.6406,58.7891 864.875,59.0547 Q865.1094,59.3047 865.1094,59.9141 L865.1094,61.3672 Q865.1094,61.9766 864.875,62.2422 Q864.6406,62.5078 864.2656,62.5078 Q863.9219,62.5078 863.7188,62.3047 Q863.5156,62.1172 863.4063,61.6016 Q863.3594,61.2422 863.1719,61.0547 Q862.8438,60.6797 862.2344,60.4609 Q861.625,60.2422 861,60.2422 Q860.2344,60.2422 859.5938,60.5703 Q858.9688,60.8984 858.4688,61.6484 Q857.9844,62.3984 857.9844,63.4297 L857.9844,64.5234 Q857.9844,65.7578 858.875,66.5859 Q859.7656,67.3984 861.3594,67.3984 Q862.2969,67.3984 862.9531,67.1484 Q863.3438,66.9922 863.7656,66.5547 Q864.0313,66.2891 864.1719,66.2109 Q864.3281,66.1328 864.5313,66.1328 Q864.8594,66.1328 865.1094,66.3984 Q865.375,66.6484 865.375,66.9922 Q865.375,67.3359 865.0313,67.7422 Q864.5313,68.3203 863.7344,68.6484 Q862.6563,69.1016 861.3594,69.1016 Q859.8438,69.1016 858.6406,68.4766 Q857.6563,67.9766 856.9688,66.9141 Q856.2813,65.8359 856.2813,64.5547 L856.2813,63.3984 Q856.2813,62.0703 856.8906,60.9297 Q857.5156,59.7734 858.6094,59.1641 Q859.7031,58.5391 860.9375,58.5391 Q861.6719,58.5391 862.3125,58.7109 Q862.9688,58.8672 863.5156,59.2266 Z " fill="#000000"/><text fill="#000000" font-family="sans-serif" font-size="12" font-style="italic" lengthAdjust="spacing" textLength="53" x="930.25" y="59.457">&#171;service&#187;</text><text fill="#000000" font-family="sans-serif" font-size="14" lengthAdjust="spacing" textLength="151" x="881.25" y="76.627">ContentRevisionService</text><line style="stroke:#181818;stroke-width:0.5;" x1="688" x2="1193" y1="84.7031" y2="84.7031"/><line style="stroke:#181818;stroke-width:0.5;" x1="688" x2="1193" y1="92.7031" y2="92.7031"/><ellipse cx="698" cy="107.0078" fill="#84BE84" rx="3" ry="3" style="stroke:#038048;stroke-width:1.0;"/><text fill="#000000" font-family="sans-serif" font-size="14" lengthAdjust="spacing" textLength="276" x="707" y="111.2363">getRevisionById(id: Guid) : ContentRevision</text><ellipse cx="698" cy="124.6172" fill="#84BE84" rx="3" ry="3" style="stroke:#038048;stroke-width:1.0;"/><text fill="#000000" font-family="sans-serif" font-size="14" lengthAdjust="spacing" textLength="418" x="707" y="128.8457">getRevisionsByCelestialBody(path: string) : List&lt;ContentRevision&gt;</text><ellipse cx="698" cy="142.2266" fill="#84BE84" rx="3" ry="3" style="stroke:#038048;stroke-width:1.0;"/><text fill="#000000" font-family="sans-serif" font-size="14" lengthAdjust="spacing" textLength="481" x="707" y="146.4551">createRevision(path: string, content: string, jwtSub: string) : ContentRevision</text></g><!--class CelestialBodyService--><g id="elem_CelestialBodyService"><rect codeLine="20" fill="#F1F1F1" height="146.75" id="CelestialBodyService" rx="2.5" ry="2.5" style="stroke:#181818;stroke-width:0.5;" width="643" x="619" y="189.5"/><ellipse cx="869.75" cy="210.8516" fill="#ADD1B2" rx="11" ry="11" style="stroke:#181818;stroke-width:1.0;"/><path d="M872.5156,206.7266 Q872.6719,206.5078 872.8594,206.3984 Q873.0469,206.2891 873.2656,206.2891 Q873.6406,206.2891 873.875,206.5547 Q874.1094,206.8047 874.1094,207.4141 L874.1094,208.8672 Q874.1094,209.4766 873.875,209.7422 Q873.6406,210.0078 873.2656,210.0078 Q872.9219,210.0078 872.7188,209.8047 Q872.5156,209.6172 872.4063,209.1016 Q872.3594,208.7422 872.1719,208.5547 Q871.8438,208.1797 871.2344,207.9609 Q870.625,207.7422 870,207.7422 Q869.2344,207.7422 868.5938,208.0703 Q867.9688,208.3984 867.4688,209.1484 Q866.9844,209.8984 866.9844,210.9297 L866.9844,212.0234 Q866.9844,213.2578 867.875,214.0859 Q868.7656,214.8984 870.3594,214.8984 Q871.2969,214.8984 871.9531,214.6484 Q872.3438,214.4922 872.7656,214.0547 Q873.0313,213.7891 873.1719,213.7109 Q873.3281,213.6328 873.5313,213.6328 Q873.8594,213.6328 874.1094,213.8984 Q874.375,214.1484 874.375,214.4922 Q874.375,214.8359 874.0313,215.2422 Q873.5313,215.8203 872.7344,216.1484 Q871.6563,216.6016 870.3594,216.6016 Q868.8438,216.6016 867.6406,215.9766 Q866.6563,215.4766 865.9688,214.4141 Q865.2813,213.3359 865.2813,212.0547 L865.2813,210.8984 Q865.2813,209.5703 865.8906,208.4297 Q866.5156,207.2734 867.6094,206.6641 Q868.7031,206.0391 869.9375,206.0391 Q870.6719,206.0391 871.3125,206.2109 Q871.9688,206.3672 872.5156,206.7266 Z " fill="#000000"/><text fill="#000000" font-family="sans-serif" font-size="12" font-style="italic" lengthAdjust="spacing" textLength="53" x="930.25" y="206.957">&#171;service&#187;</text><text fill="#000000" font-family="sans-serif" font-size="14" lengthAdjust="spacing" textLength="133" x="890.25" y="224.127">CelestialBodyService</text><line style="stroke:#181818;stroke-width:0.5;" x1="620" x2="1261" y1="232.2031" y2="232.2031"/><line style="stroke:#181818;stroke-width:0.5;" x1="620" x2="1261" y1="240.2031" y2="240.2031"/><ellipse cx="630" cy="254.5078" fill="#84BE84" rx="3" ry="3" style="stroke:#038048;stroke-width:1.0;"/><text fill="#000000" font-family="sans-serif" font-size="14" lengthAdjust="spacing" textLength="290" x="639" y="258.7363">getCelestialBodyById(id: Guid) : CelestialBody</text><ellipse cx="630" cy="272.1172" fill="#84BE84" rx="3" ry="3" style="stroke:#038048;stroke-width:1.0;"/><text fill="#000000" font-family="sans-serif" font-size="14" lengthAdjust="spacing" textLength="278" x="639" y="276.3457">getAllCelestialBodies() : List&lt;CelestialBody&gt;</text><ellipse cx="630" cy="289.7266" fill="#84BE84" rx="3" ry="3" style="stroke:#038048;stroke-width:1.0;"/><text fill="#000000" font-family="sans-serif" font-size="14" lengthAdjust="spacing" textLength="556" x="639" y="293.9551">createCelestialBody(bodyName: string, bodyTypeId: Guid, orbitsId: Guid) : CelestialBody</text><ellipse cx="630" cy="307.3359" fill="#84BE84" rx="3" ry="3" style="stroke:#038048;stroke-width:1.0;"/><text fill="#000000" font-family="sans-serif" font-size="14" lengthAdjust="spacing" textLength="617" x="639" y="311.5645">updateCelestialBody(id: Guid, bodyName: string, bodyTypeId: Guid, orbitsId: Guid) : CelestialBody</text><ellipse cx="630" cy="324.9453" fill="#84BE84" rx="3" ry="3" style="stroke:#038048;stroke-width:1.0;"/><text fill="#000000" font-family="sans-serif" font-size="14" lengthAdjust="spacing" textLength="222" x="639" y="329.1738">deleteCelestialBody(id: Guid) : void</text></g><!--class CommentService--><g id="elem_CommentService"><rect codeLine="28" fill="#F1F1F1" height="76.3125" id="CommentService" rx="2.5" ry="2.5" style="stroke:#181818;stroke-width:0.5;" width="530" x="675.5" y="372"/><ellipse cx="882.75" cy="393.3516" fill="#ADD1B2" rx="11" ry="11" style="stroke:#181818;stroke-width:1.0;"/><path d="M885.5156,389.2266 Q885.6719,389.0078 885.8594,388.8984 Q886.0469,388.7891 886.2656,388.7891 Q886.6406,388.7891 886.875,389.0547 Q887.1094,389.3047 887.1094,389.9141 L887.1094,391.3672 Q887.1094,391.9766 886.875,392.2422 Q886.6406,392.5078 886.2656,392.5078 Q885.9219,392.5078 885.7188,392.3047 Q885.5156,392.1172 885.4063,391.6016 Q885.3594,391.2422 885.1719,391.0547 Q884.8438,390.6797 884.2344,390.4609 Q883.625,390.2422 883,390.2422 Q882.2344,390.2422 881.5938,390.5703 Q880.9688,390.8984 880.4688,391.6484 Q879.9844,392.3984 879.9844,393.4297 L879.9844,394.5234 Q879.9844,395.7578 880.875,396.5859 Q881.7656,397.3984 883.3594,397.3984 Q884.2969,397.3984 884.9531,397.1484 Q885.3438,396.9922 885.7656,396.5547 Q886.0313,396.2891 886.1719,396.2109 Q886.3281,396.1328 886.5313,396.1328 Q886.8594,396.1328 887.1094,396.3984 Q887.375,396.6484 887.375,396.9922 Q887.375,397.3359 887.0313,397.7422 Q886.5313,398.3203 885.7344,398.6484 Q884.6563,399.1016 883.3594,399.1016 Q881.8438,399.1016 880.6406,398.4766 Q879.6563,397.9766 878.9688,396.9141 Q878.2813,395.8359 878.2813,394.5547 L878.2813,393.3984 Q878.2813,392.0703 878.8906,390.9297 Q879.5156,389.7734 880.6094,389.1641 Q881.7031,388.5391 882.9375,388.5391 Q883.6719,388.5391 884.3125,388.7109 Q884.9688,388.8672 885.5156,389.2266 Z " fill="#000000"/><text fill="#000000" font-family="sans-serif" font-size="12" font-style="italic" lengthAdjust="spacing" textLength="53" x="930.25" y="389.457">&#171;service&#187;</text><text fill="#000000" font-family="sans-serif" font-size="14" lengthAdjust="spacing" textLength="107" x="903.25" y="406.627">CommentService</text><line style="stroke:#181818;stroke-width:0.5;" x1="676.5" x2="1204.5" y1="414.7031" y2="414.7031"/><line style="stroke:#181818;stroke-width:0.5;" x1="676.5" x2="1204.5" y1="422.7031" y2="422.7031"/><ellipse cx="686.5" cy="437.0078" fill="#84BE84" rx="3" ry="3" style="stroke:#038048;stroke-width:1.0;"/><text fill="#000000" font-family="sans-serif" font-size="14" lengthAdjust="spacing" textLength="504" x="695.5" y="441.2363">addComment(celestialBodyId: Guid, authorId: Guid, message: string) : Comment</text></g><!--class AuthService--><g id="elem_AuthService"><rect codeLine="32" fill="#F1F1F1" height="76.3125" id="AuthService" rx="2.5" ry="2.5" style="stroke:#181818;stroke-width:0.5;" width="449" x="1376" y="60"/><ellipse cx="1558.25" cy="81.3516" fill="#ADD1B2" rx="11" ry="11" style="stroke:#181818;stroke-width:1.0;"/><path d="M1561.0156,77.2266 Q1561.1719,77.0078 1561.3594,76.8984 Q1561.5469,76.7891 1561.7656,76.7891 Q1562.1406,76.7891 1562.375,77.0547 Q1562.6094,77.3047 1562.6094,77.9141 L1562.6094,79.3672 Q1562.6094,79.9766 1562.375,80.2422 Q1562.1406,80.5078 1561.7656,80.5078 Q1561.4219,80.5078 1561.2188,80.3047 Q1561.0156,80.1172 1560.9063,79.6016 Q1560.8594,79.2422 1560.6719,79.0547 Q1560.3438,78.6797 1559.7344,78.4609 Q1559.125,78.2422 1558.5,78.2422 Q1557.7344,78.2422 1557.0938,78.5703 Q1556.4688,78.8984 1555.9688,79.6484 Q1555.4844,80.3984 1555.4844,81.4297 L1555.4844,82.5234 Q1555.4844,83.7578 1556.375,84.5859 Q1557.2656,85.3984 1558.8594,85.3984 Q1559.7969,85.3984 1560.4531,85.1484 Q1560.8438,84.9922 1561.2656,84.5547 Q1561.5313,84.2891 1561.6719,84.2109 Q1561.8281,84.1328 1562.0313,84.1328 Q1562.3594,84.1328 1562.6094,84.3984 Q1562.875,84.6484 1562.875,84.9922 Q1562.875,85.3359 1562.5313,85.7422 Q1562.0313,86.3203 1561.2344,86.6484 Q1560.1563,87.1016 1558.8594,87.1016 Q1557.3438,87.1016 1556.1406,86.4766 Q1555.1563,85.9766 1554.4688,84.9141 Q1553.7813,83.8359 1553.7813,82.5547 L1553.7813,81.3984 Q1553.7813,80.0703 1554.3906,78.9297 Q1555.0156,77.7734 1556.1094,77.1641 Q1557.2031,76.5391 1558.4375,76.5391 Q1559.1719,76.5391 1559.8125,76.7109 Q1560.4688,76.8672 1561.0156,77.2266 Z " fill="#000000"/><text fill="#000000" font-family="sans-serif" font-size="12" font-style="italic" lengthAdjust="spacing" textLength="53" x="1590.25" y="77.457">&#171;service&#187;</text><text fill="#000000" font-family="sans-serif" font-size="14" lengthAdjust="spacing" textLength="76" x="1578.75" y="94.627">AuthService</text><line style="stroke:#181818;stroke-width:0.5;" x1="1377" x2="1824" y1="102.7031" y2="102.7031"/><line style="stroke:#181818;stroke-width:0.5;" x1="1377" x2="1824" y1="110.7031" y2="110.7031"/><ellipse cx="1387" cy="125.0078" fill="#84BE84" rx="3" ry="3" style="stroke:#038048;stroke-width:1.0;"/><text fill="#000000" font-family="sans-serif" font-size="14" lengthAdjust="spacing" textLength="423" x="1396" y="129.2363">checkUserHasAccessRight(userId: Guid, accessLevel: string) : bool</text></g><!--class ICelestialBodyRepository--><g id="elem_ICelestialBodyRepository"><rect codeLine="40" fill="#F1F1F1" height="136.0469" id="ICelestialBodyRepository" rx="2.5" ry="2.5" style="stroke:#181818;stroke-width:0.5;" width="557" x="1322" y="762"/><ellipse cx="1517.25" cy="778" fill="#B4A7E5" rx="11" ry="11" style="stroke:#181818;stroke-width:1.0;"/><path d="M1518.2031,774.6406 L1518.2031,781.2969 L1519.9219,781.2969 Q1520.5313,781.2969 1520.7969,781.5313 Q1521.0625,781.7656 1521.0625,782.1563 Q1521.0625,782.5313 1520.7969,782.7656 Q1520.5313,783 1519.9219,783 L1514.7813,783 Q1514.1719,783 1513.9063,782.7656 Q1513.6406,782.5313 1513.6406,782.1406 Q1513.6406,781.7656 1513.9063,781.5313 Q1514.1719,781.2969 1514.7813,781.2969 L1516.5,781.2969 L1516.5,774.6406 L1514.7813,774.6406 Q1514.1719,774.6406 1513.9063,774.4063 Q1513.6406,774.1719 1513.6406,773.7813 Q1513.6406,773.4063 1513.9063,773.1719 Q1514.1719,772.9375 1514.7813,772.9375 L1519.9219,772.9375 Q1520.5313,772.9375 1520.7969,773.1719 Q1521.0625,773.4063 1521.0625,773.7813 Q1521.0625,774.1719 1520.7969,774.4063 Q1520.5313,774.6406 1519.9219,774.6406 L1518.2031,774.6406 Z " fill="#000000"/><text fill="#000000" font-family="sans-serif" font-size="14" font-style="italic" lengthAdjust="spacing" textLength="158" x="1537.75" y="783.7285">ICelestialBodyRepository</text><line style="stroke:#181818;stroke-width:0.5;" x1="1323" x2="1878" y1="794" y2="794"/><line style="stroke:#181818;stroke-width:0.5;" x1="1323" x2="1878" y1="802" y2="802"/><ellipse cx="1333" cy="816.3047" fill="#84BE84" rx="3" ry="3" style="stroke:#038048;stroke-width:1.0;"/><text fill="#000000" font-family="sans-serif" font-size="14" lengthAdjust="spacing" textLength="204" x="1342" y="820.5332">getById(id: Guid) : CelestialBody</text><ellipse cx="1333" cy="833.9141" fill="#84BE84" rx="3" ry="3" style="stroke:#038048;stroke-width:1.0;"/><text fill="#000000" font-family="sans-serif" font-size="14" lengthAdjust="spacing" textLength="181" x="1342" y="838.1426">getAll() : List&lt;CelestialBody&gt;</text><ellipse cx="1333" cy="851.5234" fill="#84BE84" rx="3" ry="3" style="stroke:#038048;stroke-width:1.0;"/><text fill="#000000" font-family="sans-serif" font-size="14" lengthAdjust="spacing" textLength="470" x="1342" y="855.752">create(bodyName: string, bodyTypeId: Guid, orbitsId: Guid) : CelestialBody</text><ellipse cx="1333" cy="869.1328" fill="#84BE84" rx="3" ry="3" style="stroke:#038048;stroke-width:1.0;"/><text fill="#000000" font-family="sans-serif" font-size="14" lengthAdjust="spacing" textLength="531" x="1342" y="873.3613">update(id: Guid, bodyName: string, bodyTypeId: Guid, orbitsId: Guid) : CelestialBody</text><ellipse cx="1333" cy="886.7422" fill="#84BE84" rx="3" ry="3" style="stroke:#038048;stroke-width:1.0;"/><text fill="#000000" font-family="sans-serif" font-size="14" lengthAdjust="spacing" textLength="136" x="1342" y="890.9707">delete(id: Guid) : void</text></g><!--class IContentRevisionRepository--><g id="elem_IContentRevisionRepository"><rect codeLine="48" fill="#F1F1F1" height="100.8281" id="IContentRevisionRepository" rx="2.5" ry="2.5" style="stroke:#181818;stroke-width:0.5;" width="459" x="1371" y="524.5"/><ellipse cx="1508.75" cy="540.5" fill="#B4A7E5" rx="11" ry="11" style="stroke:#181818;stroke-width:1.0;"/><path d="M1509.7031,537.1406 L1509.7031,543.7969 L1511.4219,543.7969 Q1512.0313,543.7969 1512.2969,544.0313 Q1512.5625,544.2656 1512.5625,544.6563 Q1512.5625,545.0313 1512.2969,545.2656 Q1512.0313,545.5 1511.4219,545.5 L1506.2813,545.5 Q1505.6719,545.5 1505.4063,545.2656 Q1505.1406,545.0313 1505.1406,544.6406 Q1505.1406,544.2656 1505.4063,544.0313 Q1505.6719,543.7969 1506.2813,543.7969 L1508,543.7969 L1508,537.1406 L1506.2813,537.1406 Q1505.6719,537.1406 1505.4063,536.9063 Q1505.1406,536.6719 1505.1406,536.2813 Q1505.1406,535.9063 1505.4063,535.6719 Q1505.6719,535.4375 1506.2813,535.4375 L1511.4219,535.4375 Q1512.0313,535.4375 1512.2969,535.6719 Q1512.5625,535.9063 1512.5625,536.2813 Q1512.5625,536.6719 1512.2969,536.9063 Q1512.0313,537.1406 1511.4219,537.1406 L1509.7031,537.1406 Z " fill="#000000"/><text fill="#000000" font-family="sans-serif" font-size="14" font-style="italic" lengthAdjust="spacing" textLength="175" x="1529.25" y="546.2285">IContentRevisionRepository</text><line style="stroke:#181818;stroke-width:0.5;" x1="1372" x2="1829" y1="556.5" y2="556.5"/><line style="stroke:#181818;stroke-width:0.5;" x1="1372" x2="1829" y1="564.5" y2="564.5"/><ellipse cx="1382" cy="578.8047" fill="#84BE84" rx="3" ry="3" style="stroke:#038048;stroke-width:1.0;"/><text fill="#000000" font-family="sans-serif" font-size="14" lengthAdjust="spacing" textLength="222" x="1391" y="583.0332">getById(id: Guid) : ContentRevision</text><ellipse cx="1382" cy="596.4141" fill="#84BE84" rx="3" ry="3" style="stroke:#038048;stroke-width:1.0;"/><text fill="#000000" font-family="sans-serif" font-size="14" lengthAdjust="spacing" textLength="357" x="1391" y="600.6426">getByCelestialBody(path: string) : List&lt;ContentRevision&gt;</text><ellipse cx="1382" cy="614.0234" fill="#84BE84" rx="3" ry="3" style="stroke:#038048;stroke-width:1.0;"/><text fill="#000000" font-family="sans-serif" font-size="14" lengthAdjust="spacing" textLength="433" x="1391" y="618.252">create(path: string, content: string, authorId: Guid) : ContentRevision</text></g><!--class ICommentRepository--><g id="elem_ICommentRepository"><rect codeLine="54" fill="#F1F1F1" height="65.6094" id="ICommentRepository" rx="2.5" ry="2.5" style="stroke:#181818;stroke-width:0.5;" width="486" x="1357.5" y="933"/><ellipse cx="1530.25" cy="949" fill="#B4A7E5" rx="11" ry="11" style="stroke:#181818;stroke-width:1.0;"/><path d="M1531.2031,945.6406 L1531.2031,952.2969 L1532.9219,952.2969 Q1533.5313,952.2969 1533.7969,952.5313 Q1534.0625,952.7656 1534.0625,953.1563 Q1534.0625,953.5313 1533.7969,953.7656 Q1533.5313,954 1532.9219,954 L1527.7813,954 Q1527.1719,954 1526.9063,953.7656 Q1526.6406,953.5313 1526.6406,953.1406 Q1526.6406,952.7656 1526.9063,952.5313 Q1527.1719,952.2969 1527.7813,952.2969 L1529.5,952.2969 L1529.5,945.6406 L1527.7813,945.6406 Q1527.1719,945.6406 1526.9063,945.4063 Q1526.6406,945.1719 1526.6406,944.7813 Q1526.6406,944.4063 1526.9063,944.1719 Q1527.1719,943.9375 1527.7813,943.9375 L1532.9219,943.9375 Q1533.5313,943.9375 1533.7969,944.1719 Q1534.0625,944.4063 1534.0625,944.7813 Q1534.0625,945.1719 1533.7969,945.4063 Q1533.5313,945.6406 1532.9219,945.6406 L1531.2031,945.6406 Z " fill="#000000"/><text fill="#000000" font-family="sans-serif" font-size="14" font-style="italic" lengthAdjust="spacing" textLength="132" x="1550.75" y="954.7285">ICommentRepository</text><line style="stroke:#181818;stroke-width:0.5;" x1="1358.5" x2="1842.5" y1="965" y2="965"/><line style="stroke:#181818;stroke-width:0.5;" x1="1358.5" x2="1842.5" y1="973" y2="973"/><ellipse cx="1368.5" cy="987.3047" fill="#84BE84" rx="3" ry="3" style="stroke:#038048;stroke-width:1.0;"/><text fill="#000000" font-family="sans-serif" font-size="14" lengthAdjust="spacing" textLength="460" x="1377.5" y="991.5332">create(celestialBodyId: Guid, authorId: Guid, message: string) : Comment</text></g><!--class IUserRepository--><g id="elem_IUserRepository"><rect codeLine="58" fill="#F1F1F1" height="65.6094" id="IUserRepository" rx="2.5" ry="2.5" style="stroke:#181818;stroke-width:0.5;" width="295" x="1453" y="661"/><ellipse cx="1545.25" cy="677" fill="#B4A7E5" rx="11" ry="11" style="stroke:#181818;stroke-width:1.0;"/><path d="M1546.2031,673.6406 L1546.2031,680.2969 L1547.9219,680.2969 Q1548.5313,680.2969 1548.7969,680.5313 Q1549.0625,680.7656 1549.0625,681.1563 Q1549.0625,681.5313 1548.7969,681.7656 Q1548.5313,682 1547.9219,682 L1542.7813,682 Q1542.1719,682 1541.9063,681.7656 Q1541.6406,681.5313 1541.6406,681.1406 Q1541.6406,680.7656 1541.9063,680.5313 Q1542.1719,680.2969 1542.7813,680.2969 L1544.5,680.2969 L1544.5,673.6406 L1542.7813,673.6406 Q1542.1719,673.6406 1541.9063,673.4063 Q1541.6406,673.1719 1541.6406,672.7813 Q1541.6406,672.4063 1541.9063,672.1719 Q1542.1719,671.9375 1542.7813,671.9375 L1547.9219,671.9375 Q1548.5313,671.9375 1548.7969,672.1719 Q1549.0625,672.4063 1549.0625,672.7813 Q1549.0625,673.1719 1548.7969,673.4063 Q1548.5313,673.6406 1547.9219,673.6406 L1546.2031,673.6406 Z " fill="#000000"/><text fill="#000000" font-family="sans-serif" font-size="14" font-style="italic" lengthAdjust="spacing" textLength="102" x="1565.75" y="682.7285">IUserRepository</text><line style="stroke:#181818;stroke-width:0.5;" x1="1454" x2="1747" y1="693" y2="693"/><line style="stroke:#181818;stroke-width:0.5;" x1="1454" x2="1747" y1="701" y2="701"/><ellipse cx="1464" cy="715.3047" fill="#84BE84" rx="3" ry="3" style="stroke:#038048;stroke-width:1.0;"/><text fill="#000000" font-family="sans-serif" font-size="14" lengthAdjust="spacing" textLength="269" x="1473" y="719.5332">getByGoogleSub(googleSub: string) : User</text></g><!--class CelestialBody--><g id="elem_CelestialBody"><rect codeLine="64" fill="#F1F1F1" height="118.4375" id="CelestialBody" rx="2.5" ry="2.5" style="stroke:#181818;stroke-width:0.5;" width="143" x="1965" y="780"/><ellipse cx="1991.25" cy="796" fill="#ADD1B2" rx="11" ry="11" style="stroke:#181818;stroke-width:1.0;"/><path d="M1994.0156,791.875 Q1994.1719,791.6563 1994.3594,791.5469 Q1994.5469,791.4375 1994.7656,791.4375 Q1995.1406,791.4375 1995.375,791.7031 Q1995.6094,791.9531 1995.6094,792.5625 L1995.6094,794.0156 Q1995.6094,794.625 1995.375,794.8906 Q1995.1406,795.1563 1994.7656,795.1563 Q1994.4219,795.1563 1994.2188,794.9531 Q1994.0156,794.7656 1993.9063,794.25 Q1993.8594,793.8906 1993.6719,793.7031 Q1993.3438,793.3281 1992.7344,793.1094 Q1992.125,792.8906 1991.5,792.8906 Q1990.7344,792.8906 1990.0938,793.2188 Q1989.4688,793.5469 1988.9688,794.2969 Q1988.4844,795.0469 1988.4844,796.0781 L1988.4844,797.1719 Q1988.4844,798.4063 1989.375,799.2344 Q1990.2656,800.0469 1991.8594,800.0469 Q1992.7969,800.0469 1993.4531,799.7969 Q1993.8438,799.6406 1994.2656,799.2031 Q1994.5313,798.9375 1994.6719,798.8594 Q1994.8281,798.7813 1995.0313,798.7813 Q1995.3594,798.7813 1995.6094,799.0469 Q1995.875,799.2969 1995.875,799.6406 Q1995.875,799.9844 1995.5313,800.3906 Q1995.0313,800.9688 1994.2344,801.2969 Q1993.1563,801.75 1991.8594,801.75 Q1990.3438,801.75 1989.1406,801.125 Q1988.1563,800.625 1987.4688,799.5625 Q1986.7813,798.4844 1986.7813,797.2031 L1986.7813,796.0469 Q1986.7813,794.7188 1987.3906,793.5781 Q1988.0156,792.4219 1989.1094,791.8125 Q1990.2031,791.1875 1991.4375,791.1875 Q1992.1719,791.1875 1992.8125,791.3594 Q1993.4688,791.5156 1994.0156,791.875 Z " fill="#000000"/><text fill="#000000" font-family="sans-serif" font-size="14" lengthAdjust="spacing" textLength="86" x="2007.75" y="801.7285">CelestialBody</text><line style="stroke:#181818;stroke-width:0.5;" x1="1966" x2="2107" y1="812" y2="812"/><ellipse cx="1976" cy="826.3047" fill="none" rx="3" ry="3" style="stroke:#038048;stroke-width:1.0;"/><text fill="#000000" font-family="sans-serif" font-size="14" lengthAdjust="spacing" textLength="53" x="1985" y="830.5332">Id : Guid</text><ellipse cx="1976" cy="843.9141" fill="none" rx="3" ry="3" style="stroke:#038048;stroke-width:1.0;"/><text fill="#000000" font-family="sans-serif" font-size="14" lengthAdjust="spacing" textLength="115" x="1985" y="848.1426">BodyName : string</text><ellipse cx="1976" cy="861.5234" fill="none" rx="3" ry="3" style="stroke:#038048;stroke-width:1.0;"/><text fill="#000000" font-family="sans-serif" font-size="14" lengthAdjust="spacing" textLength="117" x="1985" y="865.752">BodyTypeId : Guid</text><ellipse cx="1976" cy="879.1328" fill="none" rx="3" ry="3" style="stroke:#038048;stroke-width:1.0;"/><text fill="#000000" font-family="sans-serif" font-size="14" lengthAdjust="spacing" textLength="91" x="1985" y="883.3613">OrbitsId : Guid</text><line style="stroke:#181818;stroke-width:0.5;" x1="1966" x2="2107" y1="890.4375" y2="890.4375"/></g><!--class ContentRevision--><g id="elem_ContentRevision"><rect codeLine="71" fill="#F1F1F1" height="118.4375" id="ContentRevision" rx="2.5" ry="2.5" style="stroke:#181818;stroke-width:0.5;" width="195" x="1939" y="474"/><ellipse cx="1980.55" cy="490" fill="#ADD1B2" rx="11" ry="11" style="stroke:#181818;stroke-width:1.0;"/><path d="M1983.3156,485.875 Q1983.4719,485.6563 1983.6594,485.5469 Q1983.8469,485.4375 1984.0656,485.4375 Q1984.4406,485.4375 1984.675,485.7031 Q1984.9094,485.9531 1984.9094,486.5625 L1984.9094,488.0156 Q1984.9094,488.625 1984.675,488.8906 Q1984.4406,489.1563 1984.0656,489.1563 Q1983.7219,489.1563 1983.5188,488.9531 Q1983.3156,488.7656 1983.2063,488.25 Q1983.1594,487.8906 1982.9719,487.7031 Q1982.6438,487.3281 1982.0344,487.1094 Q1981.425,486.8906 1980.8,486.8906 Q1980.0344,486.8906 1979.3938,487.2188 Q1978.7688,487.5469 1978.2688,488.2969 Q1977.7844,489.0469 1977.7844,490.0781 L1977.7844,491.1719 Q1977.7844,492.4063 1978.675,493.2344 Q1979.5656,494.0469 1981.1594,494.0469 Q1982.0969,494.0469 1982.7531,493.7969 Q1983.1438,493.6406 1983.5656,493.2031 Q1983.8313,492.9375 1983.9719,492.8594 Q1984.1281,492.7813 1984.3313,492.7813 Q1984.6594,492.7813 1984.9094,493.0469 Q1985.175,493.2969 1985.175,493.6406 Q1985.175,493.9844 1984.8313,494.3906 Q1984.3313,494.9688 1983.5344,495.2969 Q1982.4563,495.75 1981.1594,495.75 Q1979.6438,495.75 1978.4406,495.125 Q1977.4563,494.625 1976.7688,493.5625 Q1976.0813,492.4844 1976.0813,491.2031 L1976.0813,490.0469 Q1976.0813,488.7188 1976.6906,487.5781 Q1977.3156,486.4219 1978.4094,485.8125 Q1979.5031,485.1875 1980.7375,485.1875 Q1981.4719,485.1875 1982.1125,485.3594 Q1982.7688,485.5156 1983.3156,485.875 Z " fill="#000000"/><text fill="#000000" font-family="sans-serif" font-size="14" lengthAdjust="spacing" textLength="104" x="2000.45" y="495.7285">ContentRevision</text><line style="stroke:#181818;stroke-width:0.5;" x1="1940" x2="2133" y1="506" y2="506"/><ellipse cx="1950" cy="520.3047" fill="none" rx="3" ry="3" style="stroke:#038048;stroke-width:1.0;"/><text fill="#000000" font-family="sans-serif" font-size="14" lengthAdjust="spacing" textLength="53" x="1959" y="524.5332">Id : Guid</text><ellipse cx="1950" cy="537.9141" fill="none" rx="3" ry="3" style="stroke:#038048;stroke-width:1.0;"/><text fill="#000000" font-family="sans-serif" font-size="14" lengthAdjust="spacing" textLength="169" x="1959" y="542.1426">CelestialBodyName : string</text><ellipse cx="1950" cy="555.5234" fill="none" rx="3" ry="3" style="stroke:#038048;stroke-width:1.0;"/><text fill="#000000" font-family="sans-serif" font-size="14" lengthAdjust="spacing" textLength="97" x="1959" y="559.752">Content : string</text><ellipse cx="1950" cy="573.1328" fill="none" rx="3" ry="3" style="stroke:#038048;stroke-width:1.0;"/><text fill="#000000" font-family="sans-serif" font-size="14" lengthAdjust="spacing" textLength="95" x="1959" y="577.3613">AuthorId : Guid</text><line style="stroke:#181818;stroke-width:0.5;" x1="1940" x2="2133" y1="584.4375" y2="584.4375"/></g><!--class Comment--><g id="elem_Comment"><rect codeLine="78" fill="#F1F1F1" height="118.4375" id="Comment" rx="2.5" ry="2.5" style="stroke:#181818;stroke-width:0.5;" width="165" x="1954" y="933"/><ellipse cx="2002.25" cy="949" fill="#ADD1B2" rx="11" ry="11" style="stroke:#181818;stroke-width:1.0;"/><path d="M2005.0156,944.875 Q2005.1719,944.6563 2005.3594,944.5469 Q2005.5469,944.4375 2005.7656,944.4375 Q2006.1406,944.4375 2006.375,944.7031 Q2006.6094,944.9531 2006.6094,945.5625 L2006.6094,947.0156 Q2006.6094,947.625 2006.375,947.8906 Q2006.1406,948.1563 2005.7656,948.1563 Q2005.4219,948.1563 2005.2188,947.9531 Q2005.0156,947.7656 2004.9063,947.25 Q2004.8594,946.8906 2004.6719,946.7031 Q2004.3438,946.3281 2003.7344,946.1094 Q2003.125,945.8906 2002.5,945.8906 Q2001.7344,945.8906 2001.0938,946.2188 Q2000.4688,946.5469 1999.9688,947.2969 Q1999.4844,948.0469 1999.4844,949.0781 L1999.4844,950.1719 Q1999.4844,951.4063 2000.375,952.2344 Q2001.2656,953.0469 2002.8594,953.0469 Q2003.7969,953.0469 2004.4531,952.7969 Q2004.8438,952.6406 2005.2656,952.2031 Q2005.5313,951.9375 2005.6719,951.8594 Q2005.8281,951.7813 2006.0313,951.7813 Q2006.3594,951.7813 2006.6094,952.0469 Q2006.875,952.2969 2006.875,952.6406 Q2006.875,952.9844 2006.5313,953.3906 Q2006.0313,953.9688 2005.2344,954.2969 Q2004.1563,954.75 2002.8594,954.75 Q2001.3438,954.75 2000.1406,954.125 Q1999.1563,953.625 1998.4688,952.5625 Q1997.7813,951.4844 1997.7813,950.2031 L1997.7813,949.0469 Q1997.7813,947.7188 1998.3906,946.5781 Q1999.0156,945.4219 2000.1094,944.8125 Q2001.2031,944.1875 2002.4375,944.1875 Q2003.1719,944.1875 2003.8125,944.3594 Q2004.4688,944.5156 2005.0156,944.875 Z " fill="#000000"/><text fill="#000000" font-family="sans-serif" font-size="14" lengthAdjust="spacing" textLength="60" x="2022.75" y="954.7285">Comment</text><line style="stroke:#181818;stroke-width:0.5;" x1="1955" x2="2118" y1="965" y2="965"/><ellipse cx="1965" cy="979.3047" fill="none" rx="3" ry="3" style="stroke:#038048;stroke-width:1.0;"/><text fill="#000000" font-family="sans-serif" font-size="14" lengthAdjust="spacing" textLength="53" x="1974" y="983.5332">Id : Guid</text><ellipse cx="1965" cy="996.9141" fill="none" rx="3" ry="3" style="stroke:#038048;stroke-width:1.0;"/><text fill="#000000" font-family="sans-serif" font-size="14" lengthAdjust="spacing" textLength="139" x="1974" y="1001.1426">CelestialBodyId : Guid</text><ellipse cx="1965" cy="1014.5234" fill="none" rx="3" ry="3" style="stroke:#038048;stroke-width:1.0;"/><text fill="#000000" font-family="sans-serif" font-size="14" lengthAdjust="spacing" textLength="95" x="1974" y="1018.752">AuthorId : Guid</text><ellipse cx="1965" cy="1032.1328" fill="none" rx="3" ry="3" style="stroke:#038048;stroke-width:1.0;"/><text fill="#000000" font-family="sans-serif" font-size="14" lengthAdjust="spacing" textLength="104" x="1974" y="1036.3613">Message : string</text><line style="stroke:#181818;stroke-width:0.5;" x1="1955" x2="2118" y1="1043.4375" y2="1043.4375"/></g><!--class User--><g id="elem_User"><rect codeLine="85" fill="#F1F1F1" height="118.4375" id="User" rx="2.5" ry="2.5" style="stroke:#181818;stroke-width:0.5;" width="155" x="1959" y="627"/><ellipse cx="2017.75" cy="643" fill="#ADD1B2" rx="11" ry="11" style="stroke:#181818;stroke-width:1.0;"/><path d="M2020.5156,638.875 Q2020.6719,638.6563 2020.8594,638.5469 Q2021.0469,638.4375 2021.2656,638.4375 Q2021.6406,638.4375 2021.875,638.7031 Q2022.1094,638.9531 2022.1094,639.5625 L2022.1094,641.0156 Q2022.1094,641.625 2021.875,641.8906 Q2021.6406,642.1563 2021.2656,642.1563 Q2020.9219,642.1563 2020.7188,641.9531 Q2020.5156,641.7656 2020.4063,641.25 Q2020.3594,640.8906 2020.1719,640.7031 Q2019.8438,640.3281 2019.2344,640.1094 Q2018.625,639.8906 2018,639.8906 Q2017.2344,639.8906 2016.5938,640.2188 Q2015.9688,640.5469 2015.4688,641.2969 Q2014.9844,642.0469 2014.9844,643.0781 L2014.9844,644.1719 Q2014.9844,645.4063 2015.875,646.2344 Q2016.7656,647.0469 2018.3594,647.0469 Q2019.2969,647.0469 2019.9531,646.7969 Q2020.3438,646.6406 2020.7656,646.2031 Q2021.0313,645.9375 2021.1719,645.8594 Q2021.3281,645.7813 2021.5313,645.7813 Q2021.8594,645.7813 2022.1094,646.0469 Q2022.375,646.2969 2022.375,646.6406 Q2022.375,646.9844 2022.0313,647.3906 Q2021.5313,647.9688 2020.7344,648.2969 Q2019.6563,648.75 2018.3594,648.75 Q2016.8438,648.75 2015.6406,648.125 Q2014.6563,647.625 2013.9688,646.5625 Q2013.2813,645.4844 2013.2813,644.2031 L2013.2813,643.0469 Q2013.2813,641.7188 2013.8906,640.5781 Q2014.5156,639.4219 2015.6094,638.8125 Q2016.7031,638.1875 2017.9375,638.1875 Q2018.6719,638.1875 2019.3125,638.3594 Q2019.9688,638.5156 2020.5156,638.875 Z " fill="#000000"/><text fill="#000000" font-family="sans-serif" font-size="14" lengthAdjust="spacing" textLength="29" x="2038.25" y="648.7285">User</text><line style="stroke:#181818;stroke-width:0.5;" x1="1960" x2="2113" y1="659" y2="659"/><ellipse cx="1970" cy="673.3047" fill="none" rx="3" ry="3" style="stroke:#038048;stroke-width:1.0;"/><text fill="#000000" font-family="sans-serif" font-size="14" lengthAdjust="spacing" textLength="53" x="1979" y="677.5332">Id : Guid</text><ellipse cx="1970" cy="690.9141" fill="none" rx="3" ry="3" style="stroke:#038048;stroke-width:1.0;"/><text fill="#000000" font-family="sans-serif" font-size="14" lengthAdjust="spacing" textLength="129" x="1979" y="695.1426">DisplayName : string</text><ellipse cx="1970" cy="708.5234" fill="none" rx="3" ry="3" style="stroke:#038048;stroke-width:1.0;"/><text fill="#000000" font-family="sans-serif" font-size="14" lengthAdjust="spacing" textLength="118" x="1979" y="712.752">GoogleSub : string</text><ellipse cx="1970" cy="726.1328" fill="none" rx="3" ry="3" style="stroke:#038048;stroke-width:1.0;"/><text fill="#000000" font-family="sans-serif" font-size="14" lengthAdjust="spacing" textLength="82" x="1979" y="730.3613">RoleId : Guid</text><line style="stroke:#181818;stroke-width:0.5;" x1="1960" x2="2113" y1="737.4375" y2="737.4375"/></g><!--class ContentRevisionDTO--><g id="elem_ContentRevisionDTO"><rect codeLine="94" fill="#F1F1F1" height="129.1406" id="ContentRevisionDTO" rx="2.5" ry="2.5" style="stroke:#181818;stroke-width:0.5;" width="197" x="1502" y="1075.5"/><ellipse cx="1530.95" cy="1096.8516" fill="#ADD1B2" rx="11" ry="11" style="stroke:#181818;stroke-width:1.0;"/><path d="M1533.7156,1092.7266 Q1533.8719,1092.5078 1534.0594,1092.3984 Q1534.2469,1092.2891 1534.4656,1092.2891 Q1534.8406,1092.2891 1535.075,1092.5547 Q1535.3094,1092.8047 1535.3094,1093.4141 L1535.3094,1094.8672 Q1535.3094,1095.4766 1535.075,1095.7422 Q1534.8406,1096.0078 1534.4656,1096.0078 Q1534.1219,1096.0078 1533.9188,1095.8047 Q1533.7156,1095.6172 1533.6063,1095.1016 Q1533.5594,1094.7422 1533.3719,1094.5547 Q1533.0438,1094.1797 1532.4344,1093.9609 Q1531.825,1093.7422 1531.2,1093.7422 Q1530.4344,1093.7422 1529.7938,1094.0703 Q1529.1688,1094.3984 1528.6688,1095.1484 Q1528.1844,1095.8984 1528.1844,1096.9297 L1528.1844,1098.0234 Q1528.1844,1099.2578 1529.075,1100.0859 Q1529.9656,1100.8984 1531.5594,1100.8984 Q1532.4969,1100.8984 1533.1531,1100.6484 Q1533.5438,1100.4922 1533.9656,1100.0547 Q1534.2313,1099.7891 1534.3719,1099.7109 Q1534.5281,1099.6328 1534.7313,1099.6328 Q1535.0594,1099.6328 1535.3094,1099.8984 Q1535.575,1100.1484 1535.575,1100.4922 Q1535.575,1100.8359 1535.2313,1101.2422 Q1534.7313,1101.8203 1533.9344,1102.1484 Q1532.8563,1102.6016 1531.5594,1102.6016 Q1530.0438,1102.6016 1528.8406,1101.9766 Q1527.8563,1101.4766 1527.1688,1100.4141 Q1526.4813,1099.3359 1526.4813,1098.0547 L1526.4813,1096.8984 Q1526.4813,1095.5703 1527.0906,1094.4297 Q1527.7156,1093.2734 1528.8094,1092.6641 Q1529.9031,1092.0391 1531.1375,1092.0391 Q1531.8719,1092.0391 1532.5125,1092.2109 Q1533.1688,1092.3672 1533.7156,1092.7266 Z " fill="#000000"/><text fill="#000000" font-family="sans-serif" font-size="12" font-style="italic" lengthAdjust="spacing" textLength="31" x="1599.55" y="1092.957">&#171;dto&#187;</text><text fill="#000000" font-family="sans-serif" font-size="14" lengthAdjust="spacing" textLength="134" x="1548.05" y="1110.127">ContentRevisionDTO</text><line style="stroke:#181818;stroke-width:0.5;" x1="1503" x2="1698" y1="1118.2031" y2="1118.2031"/><ellipse cx="1513" cy="1132.5078" fill="none" rx="3" ry="3" style="stroke:#038048;stroke-width:1.0;"/><text fill="#000000" font-family="sans-serif" font-size="14" lengthAdjust="spacing" textLength="53" x="1522" y="1136.7363">Id : Guid</text><ellipse cx="1513" cy="1150.1172" fill="none" rx="3" ry="3" style="stroke:#038048;stroke-width:1.0;"/><text fill="#000000" font-family="sans-serif" font-size="14" lengthAdjust="spacing" textLength="169" x="1522" y="1154.3457">CelestialBodyName : string</text><ellipse cx="1513" cy="1167.7266" fill="none" rx="3" ry="3" style="stroke:#038048;stroke-width:1.0;"/><text fill="#000000" font-family="sans-serif" font-size="14" lengthAdjust="spacing" textLength="97" x="1522" y="1171.9551">Content : string</text><ellipse cx="1513" cy="1185.3359" fill="none" rx="3" ry="3" style="stroke:#038048;stroke-width:1.0;"/><text fill="#000000" font-family="sans-serif" font-size="14" lengthAdjust="spacing" textLength="171" x="1522" y="1189.5645">AuthorDisplayName : string</text><line style="stroke:#181818;stroke-width:0.5;" x1="1503" x2="1698" y1="1196.6406" y2="1196.6406"/></g><!--class ContentRevisionMapper--><g id="elem_ContentRevisionMapper"><rect codeLine="103" fill="#F1F1F1" height="76.3125" id="ContentRevisionMapper" rx="2.5" ry="2.5" style="stroke:#181818;stroke-width:0.5;" width="365" x="758" y="842"/><ellipse cx="860.25" cy="863.3516" fill="#ADD1B2" rx="11" ry="11" style="stroke:#181818;stroke-width:1.0;"/><path d="M863.0156,859.2266 Q863.1719,859.0078 863.3594,858.8984 Q863.5469,858.7891 863.7656,858.7891 Q864.1406,858.7891 864.375,859.0547 Q864.6094,859.3047 864.6094,859.9141 L864.6094,861.3672 Q864.6094,861.9766 864.375,862.2422 Q864.1406,862.5078 863.7656,862.5078 Q863.4219,862.5078 863.2188,862.3047 Q863.0156,862.1172 862.9063,861.6016 Q862.8594,861.2422 862.6719,861.0547 Q862.3438,860.6797 861.7344,860.4609 Q861.125,860.2422 860.5,860.2422 Q859.7344,860.2422 859.0938,860.5703 Q858.4688,860.8984 857.9688,861.6484 Q857.4844,862.3984 857.4844,863.4297 L857.4844,864.5234 Q857.4844,865.7578 858.375,866.5859 Q859.2656,867.3984 860.8594,867.3984 Q861.7969,867.3984 862.4531,867.1484 Q862.8438,866.9922 863.2656,866.5547 Q863.5313,866.2891 863.6719,866.2109 Q863.8281,866.1328 864.0313,866.1328 Q864.3594,866.1328 864.6094,866.3984 Q864.875,866.6484 864.875,866.9922 Q864.875,867.3359 864.5313,867.7422 Q864.0313,868.3203 863.2344,868.6484 Q862.1563,869.1016 860.8594,869.1016 Q859.3438,869.1016 858.1406,868.4766 Q857.1563,867.9766 856.4688,866.9141 Q855.7813,865.8359 855.7813,864.5547 L855.7813,863.3984 Q855.7813,862.0703 856.3906,860.9297 Q857.0156,859.7734 858.1094,859.1641 Q859.2031,858.5391 860.4375,858.5391 Q861.1719,858.5391 861.8125,858.7109 Q862.4688,858.8672 863.0156,859.2266 Z " fill="#000000"/><text fill="#000000" font-family="sans-serif" font-size="12" font-style="italic" lengthAdjust="spacing" textLength="57" x="928.25" y="859.457">&#171;mapper&#187;</text><text fill="#000000" font-family="sans-serif" font-size="14" lengthAdjust="spacing" textLength="152" x="880.75" y="876.627">ContentRevisionMapper</text><line style="stroke:#181818;stroke-width:0.5;" x1="759" x2="1122" y1="884.7031" y2="884.7031"/><line style="stroke:#181818;stroke-width:0.5;" x1="759" x2="1122" y1="892.7031" y2="892.7031"/><ellipse cx="769" cy="907.0078" fill="#84BE84" rx="3" ry="3" style="stroke:#038048;stroke-width:1.0;"/><text fill="#000000" font-family="sans-serif" font-size="14" lengthAdjust="spacing" textLength="339" x="778" y="911.2363">toDTO(ContentRevision, User) : ContentRevisionDTO</text></g><!--link ContentRevisionController to ContentRevisionService--><g id="link_ContentRevisionController_ContentRevisionService"><path codeLine="109" d="M291,302.69 C291,225.96 291,98 291,98 C291,98 498.43,98 680.6,98 " fill="none" id="ContentRevisionController-to-ContentRevisionService" style="stroke:#181818;stroke-width:1.0;"/><polygon fill="#181818" points="686.6,98,677.6,94,681.6,98,677.6,102,686.6,98" style="stroke:#181818;stroke-width:1.0;"/><text fill="#000000" font-family="sans-serif" font-size="13" lengthAdjust="spacing" textLength="28" x="357.45" y="112.4951">uses</text></g><!--link ContentRevisionController to ContentRevisionMapper--><g id="link_ContentRevisionController_ContentRevisionMapper"><path codeLine="110" d="M291,415.25 C291,549.97 291,880 291,880 C291,880 559.74,880 751.85,880 " fill="none" id="ContentRevisionController-to-ContentRevisionMapper" style="stroke:#181818;stroke-width:1.0;"/><polygon fill="#181818" points="757.85,880,748.85,876,752.85,880,748.85,884,757.85,880" style="stroke:#181818;stroke-width:1.0;"/><text fill="#000000" font-family="sans-serif" font-size="13" lengthAdjust="spacing" textLength="28" x="263.05" y="894.4951">uses</text></g><!--link ContentRevisionMapper to ContentRevisionDTO--><g id="link_ContentRevisionMapper_ContentRevisionDTO"><path codeLine="111" d="M941,918.08 C941,990.3 941,1140 941,1140 C941,1140 1311.79,1140 1495.77,1140 " fill="none" id="ContentRevisionMapper-to-ContentRevisionDTO" style="stroke:#181818;stroke-width:1.0;"/><polygon fill="#181818" points="1501.77,1140,1492.77,1136,1496.77,1140,1492.77,1144,1501.77,1140" style="stroke:#181818;stroke-width:1.0;"/><text fill="#000000" font-family="sans-serif" font-size="13" lengthAdjust="spacing" textLength="43" x="1066.43" y="1154.4951">creates</text></g><!--link ContentRevisionService to ICelestialBodyRepository--><g id="link_ContentRevisionService_ICelestialBodyRepository"><path codeLine="114" d="M1194.19,149.5 C1276.48,149.5 1347,149.5 1347,149.5 C1347,149.5 1347,583.6 1347,755.95 " fill="none" id="ContentRevisionService-to-ICelestialBodyRepository" style="stroke:#181818;stroke-width:1.0;"/><polygon fill="#181818" points="1347,761.95,1351,752.95,1347,756.95,1343,752.95,1347,761.95" style="stroke:#181818;stroke-width:1.0;"/><text fill="#000000" font-family="sans-serif" font-size="13" lengthAdjust="spacing" textLength="28" x="1318" y="393.8151">uses</text></g><!--link ContentRevisionService to IContentRevisionRepository--><g id="link_ContentRevisionService_IContentRevisionRepository"><path codeLine="115" d="M1194.45,140.5 C1380.61,140.5 1601,140.5 1601,140.5 C1601,140.5 1601,403.69 1601,518.31 " fill="none" id="ContentRevisionService-to-IContentRevisionRepository" style="stroke:#181818;stroke-width:1.0;"/><polygon fill="#181818" points="1601,524.31,1605,515.31,1601,519.31,1597,515.31,1601,524.31" style="stroke:#181818;stroke-width:1.0;"/><text fill="#000000" font-family="sans-serif" font-size="13" lengthAdjust="spacing" textLength="28" x="1560.63" y="154.9951">uses</text></g><!--link ContentRevisionService to IUserRepository--><g id="link_ContentRevisionService_IUserRepository"><path codeLine="116" d="M1194.2,145 C1282.08,145 1359,145 1359,145 C1359,145 1359,683 1359,683 C1359,683 1396.58,683 1446.72,683 " fill="none" id="ContentRevisionService-to-IUserRepository" style="stroke:#181818;stroke-width:1.0;"/><polygon fill="#181818" points="1452.72,683,1443.72,679,1447.72,683,1443.72,687,1452.72,683" style="stroke:#181818;stroke-width:1.0;"/><text fill="#000000" font-family="sans-serif" font-size="13" lengthAdjust="spacing" textLength="28" x="1360" y="392.9551">uses</text></g><!--link ContentRevisionService to AuthService--><g id="link_ContentRevisionService_AuthService"><path codeLine="117" d="M1194.26,98 C1254.12,98 1311.51,98 1369.98,98 " fill="none" id="ContentRevisionService-to-AuthService" style="stroke:#181818;stroke-width:1.0;"/><polygon fill="#181818" points="1375.98,98,1366.98,94,1370.98,98,1366.98,102,1375.98,98" style="stroke:#181818;stroke-width:1.0;"/><text fill="#000000" font-family="sans-serif" font-size="13" lengthAdjust="spacing" textLength="107" x="1177.12" y="112.4951">checks access via</text></g><!--link CommentService to ICommentRepository--><g id="link_CommentService_ICommentRepository"><path codeLine="119" d="M1151,448.22 C1151,573.83 1151,966 1151,966 C1151,966 1245.42,966 1351.33,966 " fill="none" id="CommentService-to-ICommentRepository" style="stroke:#181818;stroke-width:1.0;"/><polygon fill="#181818" points="1357.33,966,1348.33,962,1352.33,966,1348.33,970,1357.33,966" style="stroke:#181818;stroke-width:1.0;"/><text fill="#000000" font-family="sans-serif" font-size="13" lengthAdjust="spacing" textLength="28" x="1122" y="824.7651">uses</text></g><!--link CommentService to ICelestialBodyRepository--><g id="link_CommentService_ICelestialBodyRepository"><path codeLine="120" d="M1205.55,410 C1277.04,410 1335,410 1335,410 C1335,410 1335,636.57 1335,755.58 " fill="none" id="CommentService-to-ICelestialBodyRepository" style="stroke:#181818;stroke-width:1.0;"/><polygon fill="#181818" points="1335,761.58,1339,752.58,1335,756.58,1331,752.58,1335,761.58" style="stroke:#181818;stroke-width:1.0;"/><text fill="#000000" font-family="sans-serif" font-size="13" lengthAdjust="spacing" textLength="28" x="1306" y="535.5651">uses</text></g><!--link CommentService to IUserRepository--><g id="link_CommentService_IUserRepository"><path codeLine="121" d="M1178,448.26 C1178,528.08 1178,705 1178,705 C1178,705 1324.89,705 1446.73,705 " fill="none" id="CommentService-to-IUserRepository" style="stroke:#181818;stroke-width:1.0;"/><polygon fill="#181818" points="1452.73,705,1443.73,701,1447.73,705,1443.73,709,1452.73,705" style="stroke:#181818;stroke-width:1.0;"/><text fill="#000000" font-family="sans-serif" font-size="13" lengthAdjust="spacing" textLength="28" x="1158" y="719.4951">uses</text></g><!--link CelestialBodyService to ICelestialBodyRepository--><g id="link_CelestialBodyService_ICelestialBodyRepository"><path codeLine="123" d="M1234,336.53 C1234,484.03 1234,802 1234,802 C1234,802 1265.15,802 1315.79,802 " fill="none" id="CelestialBodyService-to-ICelestialBodyRepository" style="stroke:#181818;stroke-width:1.0;"/><polygon fill="#181818" points="1321.79,802,1312.79,798,1316.79,802,1312.79,806,1321.79,802" style="stroke:#181818;stroke-width:1.0;"/><text fill="#000000" font-family="sans-serif" font-size="13" lengthAdjust="spacing" textLength="67" x="1166" y="627.6551">depends on</text></g><!--link ICelestialBodyRepository to CelestialBody--><g id="link_ICelestialBodyRepository_CelestialBody"><path codeLine="126" d="M1879.09,839 C1910.47,839 1934.03,839 1958.87,839 " fill="none" id="ICelestialBodyRepository-to-CelestialBody" style="stroke:#181818;stroke-width:1.0;"/><polygon fill="#181818" points="1964.87,839,1955.87,835,1959.87,839,1955.87,843,1964.87,839" style="stroke:#181818;stroke-width:1.0;"/><text fill="#000000" font-family="sans-serif" font-size="13" lengthAdjust="spacing" textLength="46" x="1874.98" y="853.4951">persists</text></g><!--link IContentRevisionRepository to ContentRevision--><g id="link_IContentRevisionRepository_ContentRevision"><path codeLine="127" d="M1830.31,558.25 C1868.53,558.25 1900.26,558.25 1932.79,558.25 " fill="none" id="IContentRevisionRepository-to-ContentRevision" style="stroke:#181818;stroke-width:1.0;"/><polygon fill="#181818" points="1938.79,558.25,1929.79,554.25,1933.79,558.25,1929.79,562.25,1938.79,558.25" style="stroke:#181818;stroke-width:1.0;"/><text fill="#000000" font-family="sans-serif" font-size="13" lengthAdjust="spacing" textLength="46" x="1837.55" y="572.7451">persists</text></g><!--link ICommentRepository to Comment--><g id="link_ICommentRepository_Comment"><path codeLine="128" d="M1843.68,966 C1883.32,966 1915.84,966 1947.9,966 " fill="none" id="ICommentRepository-to-Comment" style="stroke:#181818;stroke-width:1.0;"/><polygon fill="#181818" points="1953.9,966,1944.9,962,1948.9,966,1944.9,970,1953.9,966" style="stroke:#181818;stroke-width:1.0;"/><text fill="#000000" font-family="sans-serif" font-size="13" lengthAdjust="spacing" textLength="46" x="1851.79" y="980.4951">persists</text></g><!--link IUserRepository to User--><g id="link_IUserRepository_User"><path codeLine="129" d="M1748.11,694 C1818.76,694 1894.47,694 1952.83,694 " fill="none" id="IUserRepository-to-User" style="stroke:#181818;stroke-width:1.0;"/><polygon fill="#181818" points="1958.83,694,1949.83,690,1953.83,694,1949.83,698,1958.83,694" style="stroke:#181818;stroke-width:1.0;"/><text fill="#000000" font-family="sans-serif" font-size="13" lengthAdjust="spacing" textLength="46" x="1806.47" y="708.4951">persists</text></g><!--SRC=[jLVRJXin47tVhnZnmbODFn2XI0bKD18K5EW7EEiXSN7MgxKJjAhuzuxtQkyjQHjUK7Oyr-EPuq7Ygm6Z81MRhG4kKeoCK76WtqISi9JjG8eOJPOWgDHiLH042OlUs0RXOlwql83V0K0acTPmesA3iLdXGMXoOJzJ9IMcS7qTrH-pMMu2y7M3jUuYM_9Gy2dSxGN_0jEshzkNnuwDNcGtA54RmUH2yInCcDbEGPjKn1lhurveSzrrD2iyHIaoWvNSCvv0L5WrWb_lvdc_ThttPlWHV3ZuF6Dw417g4P1A5K985x_-2PxpOFCvmEIeDEMxMOqNxwbs4N1FQvkvbEw1G1qsrReMNgq-L6lwyuFjiAdHIbve0fPb_0cDmbeOlHpFPv_mZdDHkpXR64wYeJ3MvA04Rrs2skteXaRWPvoNIc7aEcvIOtiYWxJvtg7MrFH-8-GU_DXpiXi976qnUlj9ukzCpoEQ7Rson1JkIUG4pq_kyO3I3RXMIbP365p2asGKP8M9qiAeb9gXv3UPmHgbUeTgG9kHTRMBiHNKpUchzRJqCAurCwTdJs_JK_hotAtuUTqts70kUZuld8ZV0D7zDxyTupM_lqTupQimR_XkPMN8iusI4zFEoW2KTqfj918xXvlgb-lJMdQUh6-n4KQqdYmtxIh2aaEHR_6vAFi9gWYDk6WgJ_knxAn6wB6JX_D0G2-fdiYbbvPqNa8z43W7-PI0hREkMn8-5DVePk04i-WFHBeLEf6ihwZwHblobPBe5-NUAQqcOoi87HCJSwCQ5ZuZrWF5-1a-i2J1T2p9GeFotEK_cbIDelp3blOaXtTyIxi4Mb-1KYEt71ECESOHTNumlCPUNSs6zhSfq0lrbxPbJVscvM6FcRslAHIKecqTLGx7QwaqhTV1rwm_7zzqaCfFC6unrd4BTsMWmks6eCiL00w21K5hdobJR7Dn7QX7-HWKNPF-AeBU_VP8ZEB6DD2RGhVf7D6_PMZvE0i6hVF-yFXv2dQKwFdJmSWzzVHLox8DNs5HCAIhsGB2gkNSvkZy0G00]--></g></svg>