<?xml version="1.0" encoding="us-ascii" standalone="no"?><svg xmlns="http://www.w3.org/2000/svg" xmlns:xlink="http://www.w3.org/1999/xlink" contentStyleType="text/css" height="1291px" preserveAspectRatio="none" style="width:1874px;height:1291px;background:#FFFFFF;" version="1.1" viewBox="0 0 1874 1291" width="1874px" zoomAndPan="magnify"><defs/><g><!--cluster GalaxyWiki--><g id="cluster_GalaxyWiki"><path d="M8.5,6 L84.5,6 A3.75,3.75 0 0 1 87,8.5 L94,29.6094 L1704.5,29.6094 A2.5,2.5 0 0 1 1707,32.1094 L1707,1281.5 A2.5,2.5 0 0 1 1704.5,1284 L8.5,1284 A2.5,2.5 0 0 1 6,1281.5 L6,8.5 A2.5,2.5 0 0 1 8.5,6 " fill="none" style="stroke:#000000;stroke-width:1.5;"/><line style="stroke:#000000;stroke-width:1.5;" x1="6" x2="94" y1="29.6094" y2="29.6094"/><text fill="#000000" font-family="sans-serif" font-size="14" font-weight="bold" lengthAdjust="spacing" textLength="75" x="10" y="22.5332">GalaxyWiki</text></g><!--cluster CLI--><g id="cluster_CLI"><path d="M32.5,50 L55.5,50 A3.75,3.75 0 0 1 58,52.5 L65,73.6094 L1604.5,73.6094 A2.5,2.5 0 0 1 1607,76.1094 L1607,931.5 A2.5,2.5 0 0 1 1604.5,934 L32.5,934 A2.5,2.5 0 0 1 30,931.5 L30,52.5 A2.5,2.5 0 0 1 32.5,50 " fill="none" style="stroke:#000000;stroke-width:1.5;"/><line style="stroke:#000000;stroke-width:1.5;" x1="30" x2="65" y1="73.6094" y2="73.6094"/><text fill="#000000" font-family="sans-serif" font-size="14" font-weight="bold" lengthAdjust="spacing" textLength="22" x="34" y="66.5332">CLI</text></g><!--cluster Core--><g id="cluster_Core"><path d="M189.5,984 L224.5,984 A3.75,3.75 0 0 1 227,986.5 L234,1007.6094 L1468.5,1007.6094 A2.5,2.5 0 0 1 1471,1010.1094 L1471,1257.5 A2.5,2.5 0 0 1 1468.5,1260 L189.5,1260 A2.5,2.5 0 0 1 187,1257.5 L187,986.5 A2.5,2.5 0 0 1 189.5,984 " fill="none" style="stroke:#000000;stroke-width:1.5;"/><line style="stroke:#000000;stroke-width:1.5;" x1="187" x2="234" y1="1007.6094" y2="1007.6094"/><text fill="#000000" font-family="sans-serif" font-size="14" font-weight="bold" lengthAdjust="spacing" textLength="34" x="191" y="1000.5332">Core</text></g><!--cluster ResponseBodies--><g id="cluster_ResponseBodies"><path d="M417.5,1028 L538.5,1028 A3.75,3.75 0 0 1 541,1030.5 L548,1051.6094 L702.5,1051.6094 A2.5,2.5 0 0 1 705,1054.1094 L705,1233.5 A2.5,2.5 0 0 1 702.5,1236 L417.5,1236 A2.5,2.5 0 0 1 415,1233.5 L415,1030.5 A2.5,2.5 0 0 1 417.5,1028 " fill="none" style="stroke:#000000;stroke-width:1.5;"/><line style="stroke:#000000;stroke-width:1.5;" x1="415" x2="548" y1="1051.6094" y2="1051.6094"/><text fill="#000000" font-family="sans-serif" font-size="14" font-weight="bold" lengthAdjust="spacing" textLength="120" x="419" y="1044.5332">ResponseBodies</text></g><!--cluster Spectre--><g id="cluster_Spectre"><path d="M1733.5,1072 L1789.5,1072 A3.75,3.75 0 0 1 1792,1074.5 L1799,1095.6094 L1844.5,1095.6094 A2.5,2.5 0 0 1 1847,1098.1094 L1847,1189.5 A2.5,2.5 0 0 1 1844.5,1192 L1733.5,1192 A2.5,2.5 0 0 1 1731,1189.5 L1731,1074.5 A2.5,2.5 0 0 1 1733.5,1072 " fill="none" style="stroke:#000000;stroke-width:1.5;"/><line style="stroke:#000000;stroke-width:1.5;" x1="1731" x2="1799" y1="1095.6094" y2="1095.6094"/><text fill="#000000" font-family="sans-serif" font-size="14" font-weight="bold" lengthAdjust="spacing" textLength="55" x="1735" y="1088.5332">Spectre</text></g><!--class Program--><g id="elem_Program"><rect codeLine="5" fill="#F1F1F1" height="375.6719" id="Program" rx="2.5" ry="2.5" style="stroke:#181818;stroke-width:0.5;" width="369" x="1221.5" y="106"/><ellipse cx="1374.75" cy="127.3516" fill="#ADD1B2" rx="11" ry="11" style="stroke:#181818;stroke-width:1.0;"/><path d="M1377.5156,123.2266 Q1377.6719,123.0078 1377.8594,122.8984 Q1378.0469,122.7891 1378.2656,122.7891 Q1378.6406,122.7891 1378.875,123.0547 Q1379.1094,123.3047 1379.1094,123.9141 L1379.1094,125.3672 Q1379.1094,125.9766 1378.875,126.2422 Q1378.6406,126.5078 1378.2656,126.5078 Q1377.9219,126.5078 1377.7188,126.3047 Q1377.5156,126.1172 1377.4063,125.6016 Q1377.3594,125.2422 1377.1719,125.0547 Q1376.8438,124.6797 1376.2344,124.4609 Q1375.625,124.2422 1375,124.2422 Q1374.2344,124.2422 1373.5938,124.5703 Q1372.9688,124.8984 1372.4688,125.6484 Q1371.9844,126.3984 1371.9844,127.4297 L1371.9844,128.5234 Q1371.9844,129.7578 1372.875,130.5859 Q1373.7656,131.3984 1375.3594,131.3984 Q1376.2969,131.3984 1376.9531,131.1484 Q1377.3438,130.9922 1377.7656,130.5547 Q1378.0313,130.2891 1378.1719,130.2109 Q1378.3281,130.1328 1378.5313,130.1328 Q1378.8594,130.1328 1379.1094,130.3984 Q1379.375,130.6484 1379.375,130.9922 Q1379.375,131.3359 1379.0313,131.7422 Q1378.5313,132.3203 1377.7344,132.6484 Q1376.6563,133.1016 1375.3594,133.1016 Q1373.8438,133.1016 1372.6406,132.4766 Q1371.6563,131.9766 1370.9688,130.9141 Q1370.2813,129.8359 1370.2813,128.5547 L1370.2813,127.3984 Q1370.2813,126.0703 1370.8906,124.9297 Q1371.5156,123.7734 1372.6094,123.1641 Q1373.7031,122.5391 1374.9375,122.5391 Q1375.6719,122.5391 1376.3125,122.7109 Q1376.9688,122.8672 1377.5156,123.2266 Z " fill="#000000"/><text fill="#000000" font-family="sans-serif" font-size="12" font-style="italic" lengthAdjust="spacing" textLength="42" x="1401.25" y="123.457">&#171;static&#187;</text><text fill="#000000" font-family="sans-serif" font-size="14" lengthAdjust="spacing" textLength="54" x="1395.25" y="140.627">Program</text><line style="stroke:#181818;stroke-width:0.5;" x1="1222.5" x2="1589.5" y1="148.7031" y2="148.7031"/><rect fill="none" height="6" style="stroke:#C82930;stroke-width:1.0;" width="6" x="1229.5" y="160.0078"/><text fill="#000000" font-family="sans-serif" font-size="14" lengthAdjust="spacing" textLength="193" x="1241.5" y="167.2363">_commandHistory: List&lt;string&gt;</text><rect fill="none" height="6" style="stroke:#C82930;stroke-width:1.0;" width="6" x="1229.5" y="177.6172"/><text fill="#000000" font-family="sans-serif" font-size="14" lengthAdjust="spacing" textLength="106" x="1241.5" y="184.8457">_historyIndex: int</text><rect fill="none" height="6" style="stroke:#C82930;stroke-width:1.0;" width="6" x="1229.5" y="195.2266"/><text fill="#000000" font-family="sans-serif" font-size="14" lengthAdjust="spacing" textLength="198" x="1241.5" y="202.4551">_searchService: SearchService</text><line style="stroke:#181818;stroke-width:0.5;" x1="1222.5" x2="1589.5" y1="209.5313" y2="209.5313"/><ellipse cx="1232.5" cy="223.8359" fill="#84BE84" rx="3" ry="3" style="stroke:#038048;stroke-width:1.0;"/><text fill="#000000" font-family="sans-serif" font-size="14" lengthAdjust="spacing" text-decoration="underline" textLength="189" x="1241.5" y="228.0645">Main(args: string[]): Task&lt;int&gt;</text><rect fill="#F24D5C" height="6" style="stroke:#C82930;stroke-width:1.0;" width="6" x="1229.5" y="238.4453"/><text fill="#000000" font-family="sans-serif" font-size="14" lengthAdjust="spacing" text-decoration="underline" textLength="185" x="1241.5" y="245.6738">ReadLineWithHistory(): string</text><rect fill="#F24D5C" height="6" style="stroke:#C82930;stroke-width:1.0;" width="6" x="1229.5" y="256.0547"/><text fill="#000000" font-family="sans-serif" font-size="14" lengthAdjust="spacing" text-decoration="underline" textLength="343" x="1241.5" y="263.2832">ParseCommand(input: string): (string cmd, string args)</text><rect fill="#F24D5C" height="6" style="stroke:#C82930;stroke-width:1.0;" width="6" x="1229.5" y="273.6641"/><text fill="#000000" font-family="sans-serif" font-size="14" lengthAdjust="spacing" text-decoration="underline" textLength="101" x="1241.5" y="280.8926">PrintHelp(): void</text><rect fill="#F24D5C" height="6" style="stroke:#C82930;stroke-width:1.0;" width="6" x="1229.5" y="291.2734"/><text fill="#000000" font-family="sans-serif" font-size="14" lengthAdjust="spacing" text-decoration="underline" textLength="278" x="1241.5" y="298.502">HandleUnknownCommand(cmd: string): void</text><rect fill="#F24D5C" height="6" style="stroke:#C82930;stroke-width:1.0;" width="6" x="1229.5" y="308.8828"/><text fill="#000000" font-family="sans-serif" font-size="14" lengthAdjust="spacing" text-decoration="underline" textLength="255" x="1241.5" y="316.1113">HandleCdCommand(target: string): Task</text><rect fill="#F24D5C" height="6" style="stroke:#C82930;stroke-width:1.0;" width="6" x="1229.5" y="326.4922"/><text fill="#000000" font-family="sans-serif" font-size="14" lengthAdjust="spacing" text-decoration="underline" textLength="258" x="1241.5" y="333.7207">HandleTreeCommand(args: string): Task</text><rect fill="#F24D5C" height="6" style="stroke:#C82930;stroke-width:1.0;" width="6" x="1229.5" y="344.1016"/><text fill="#000000" font-family="sans-serif" font-size="14" lengthAdjust="spacing" text-decoration="underline" textLength="250" x="1241.5" y="351.3301">HandleListCommand(args: string): Task</text><rect fill="#F24D5C" height="6" style="stroke:#C82930;stroke-width:1.0;" width="6" x="1229.5" y="361.7109"/><text fill="#000000" font-family="sans-serif" font-size="14" lengthAdjust="spacing" text-decoration="underline" textLength="262" x="1241.5" y="368.9395">HandleShowCommand(args: string): Task</text><rect fill="#F24D5C" height="6" style="stroke:#C82930;stroke-width:1.0;" width="6" x="1229.5" y="379.3203"/><text fill="#000000" font-family="sans-serif" font-size="14" lengthAdjust="spacing" text-decoration="underline" textLength="204" x="1241.5" y="386.5488">HandleRenderCommand(): Task</text><rect fill="#F24D5C" height="6" style="stroke:#C82930;stroke-width:1.0;" width="6" x="1229.5" y="396.9297"/><text fill="#000000" font-family="sans-serif" font-size="14" lengthAdjust="spacing" text-decoration="underline" textLength="288" x="1241.5" y="404.1582">HandleCommentCommand(args: string): Task</text><rect fill="#F24D5C" height="6" style="stroke:#C82930;stroke-width:1.0;" width="6" x="1229.5" y="414.5391"/><text fill="#000000" font-family="sans-serif" font-size="14" lengthAdjust="spacing" text-decoration="underline" textLength="282" x="1241.5" y="421.7676">HandleRevisionCommand(args: string): Task</text><rect fill="#F24D5C" height="6" style="stroke:#C82930;stroke-width:1.0;" width="6" x="1229.5" y="432.1484"/><text fill="#000000" font-family="sans-serif" font-size="14" lengthAdjust="spacing" text-decoration="underline" textLength="303" x="1241.5" y="439.377">HandleCreateBodyCommand(args: string): Task</text><rect fill="#F24D5C" height="6" style="stroke:#C82930;stroke-width:1.0;" width="6" x="1229.5" y="449.7578"/><text fill="#000000" font-family="sans-serif" font-size="14" lengthAdjust="spacing" text-decoration="underline" textLength="305" x="1241.5" y="456.9863">HandleUpdateBodyCommand(args: string): Task</text><rect fill="#F24D5C" height="6" style="stroke:#C82930;stroke-width:1.0;" width="6" x="1229.5" y="467.3672"/><text fill="#000000" font-family="sans-serif" font-size="14" lengthAdjust="spacing" text-decoration="underline" textLength="301" x="1241.5" y="474.5957">HandleDeleteBodyCommand(args: string): Task</text></g><!--class CommandLogic--><g id="elem_CommandLogic"><rect codeLine="26" fill="#F1F1F1" height="358.0625" id="CommandLogic" rx="2.5" ry="2.5" style="stroke:#181818;stroke-width:0.5;" width="548" x="46" y="560"/><ellipse cx="266.75" cy="581.3516" fill="#ADD1B2" rx="11" ry="11" style="stroke:#181818;stroke-width:1.0;"/><path d="M269.5156,577.2266 Q269.6719,577.0078 269.8594,576.8984 Q270.0469,576.7891 270.2656,576.7891 Q270.6406,576.7891 270.875,577.0547 Q271.1094,577.3047 271.1094,577.9141 L271.1094,579.3672 Q271.1094,579.9766 270.875,580.2422 Q270.6406,580.5078 270.2656,580.5078 Q269.9219,580.5078 269.7188,580.3047 Q269.5156,580.1172 269.4063,579.6016 Q269.3594,579.2422 269.1719,579.0547 Q268.8438,578.6797 268.2344,578.4609 Q267.625,578.2422 267,578.2422 Q266.2344,578.2422 265.5938,578.5703 Q264.9688,578.8984 264.4688,579.6484 Q263.9844,580.3984 263.9844,581.4297 L263.9844,582.5234 Q263.9844,583.7578 264.875,584.5859 Q265.7656,585.3984 267.3594,585.3984 Q268.2969,585.3984 268.9531,585.1484 Q269.3438,584.9922 269.7656,584.5547 Q270.0313,584.2891 270.1719,584.2109 Q270.3281,584.1328 270.5313,584.1328 Q270.8594,584.1328 271.1094,584.3984 Q271.375,584.6484 271.375,584.9922 Q271.375,585.3359 271.0313,585.7422 Q270.5313,586.3203 269.7344,586.6484 Q268.6563,587.1016 267.3594,587.1016 Q265.8438,587.1016 264.6406,586.4766 Q263.6563,585.9766 262.9688,584.9141 Q262.2813,583.8359 262.2813,582.5547 L262.2813,581.3984 Q262.2813,580.0703 262.8906,578.9297 Q263.5156,577.7734 264.6094,577.1641 Q265.7031,576.5391 266.9375,576.5391 Q267.6719,576.5391 268.3125,576.7109 Q268.9688,576.8672 269.5156,577.2266 Z " fill="#000000"/><text fill="#000000" font-family="sans-serif" font-size="12" font-style="italic" lengthAdjust="spacing" textLength="42" x="315.25" y="577.457">&#171;static&#187;</text><text fill="#000000" font-family="sans-serif" font-size="14" lengthAdjust="spacing" textLength="98" x="287.25" y="594.627">CommandLogic</text><line style="stroke:#181818;stroke-width:0.5;" x1="47" x2="593" y1="602.7031" y2="602.7031"/><rect fill="none" height="6" style="stroke:#C82930;stroke-width:1.0;" width="6" x="54" y="614.0078"/><text fill="#000000" font-family="sans-serif" font-size="14" lengthAdjust="spacing" textLength="146" x="66" y="621.2363">_state: NavigationState</text><rect fill="none" height="6" style="stroke:#C82930;stroke-width:1.0;" width="6" x="54" y="631.6172"/><text fill="#000000" font-family="sans-serif" font-size="14" lengthAdjust="spacing" textLength="211" x="66" y="638.8457">_bodyTypes: List&lt;BodyTypeInfo&gt;</text><line style="stroke:#181818;stroke-width:0.5;" x1="47" x2="593" y1="645.9219" y2="645.9219"/><ellipse cx="57" cy="660.2266" fill="#84BE84" rx="3" ry="3" style="stroke:#038048;stroke-width:1.0;"/><text fill="#000000" font-family="sans-serif" font-size="14" lengthAdjust="spacing" text-decoration="underline" textLength="98" x="66" y="664.4551">Initialize(): Task</text><ellipse cx="57" cy="677.8359" fill="#84BE84" rx="3" ry="3" style="stroke:#038048;stroke-width:1.0;"/><text fill="#000000" font-family="sans-serif" font-size="14" lengthAdjust="spacing" text-decoration="underline" textLength="153" x="66" y="682.0645">GetCurrentPath(): string</text><ellipse cx="57" cy="695.4453" fill="#84BE84" rx="3" ry="3" style="stroke:#038048;stroke-width:1.0;"/><text fill="#000000" font-family="sans-serif" font-size="14" lengthAdjust="spacing" text-decoration="underline" textLength="279" x="66" y="699.6738">ChangeDirectory(target: string): Task&lt;bool&gt;</text><ellipse cx="57" cy="713.0547" fill="#84BE84" rx="3" ry="3" style="stroke:#038048;stroke-width:1.0;"/><text fill="#000000" font-family="sans-serif" font-size="14" lengthAdjust="spacing" text-decoration="underline" textLength="201" x="66" y="717.2832">TrimQuotes(input: string): string</text><ellipse cx="57" cy="730.6641" fill="#84BE84" rx="3" ry="3" style="stroke:#038048;stroke-width:1.0;"/><text fill="#000000" font-family="sans-serif" font-size="14" lengthAdjust="spacing" text-decoration="underline" textLength="487" x="66" y="734.8926">ListDirectory(page: int, size: int): Task&lt;PaginatedCelestialBodiesResponse?&gt;</text><ellipse cx="57" cy="748.2734" fill="#84BE84" rx="3" ry="3" style="stroke:#038048;stroke-width:1.0;"/><text fill="#000000" font-family="sans-serif" font-size="14" lengthAdjust="spacing" text-decoration="underline" textLength="252" x="66" y="752.502">GetCurrentRevision(): Task&lt;Revision?&gt;</text><ellipse cx="57" cy="765.8828" fill="#84BE84" rx="3" ry="3" style="stroke:#038048;stroke-width:1.0;"/><text fill="#000000" font-family="sans-serif" font-size="14" lengthAdjust="spacing" text-decoration="underline" textLength="277" x="66" y="770.1113">DisplayTree(useCurrentAsRoot: bool): Task</text><ellipse cx="57" cy="783.4922" fill="#84BE84" rx="3" ry="3" style="stroke:#038048;stroke-width:1.0;"/><text fill="#000000" font-family="sans-serif" font-size="14" lengthAdjust="spacing" text-decoration="underline" textLength="226" x="66" y="787.7207">GetCurrentBody(): CelestialBodies?</text><ellipse cx="57" cy="801.1016" fill="#84BE84" rx="3" ry="3" style="stroke:#038048;stroke-width:1.0;"/><text fill="#000000" font-family="sans-serif" font-size="14" lengthAdjust="spacing" text-decoration="underline" textLength="187" x="66" y="805.3301">WarpToSelectedBody(): Task</text><ellipse cx="57" cy="818.7109" fill="#84BE84" rx="3" ry="3" style="stroke:#038048;stroke-width:1.0;"/><text fill="#000000" font-family="sans-serif" font-size="14" lengthAdjust="spacing" text-decoration="underline" textLength="237" x="66" y="822.9395">GetBodyTypes(): List&lt;BodyTypeInfo&gt;</text><ellipse cx="57" cy="836.3203" fill="#84BE84" rx="3" ry="3" style="stroke:#038048;stroke-width:1.0;"/><text fill="#000000" font-family="sans-serif" font-size="14" lengthAdjust="spacing" text-decoration="underline" textLength="347" x="66" y="840.5488">GetBodyTypeInfo(typeIdentifier: string): BodyTypeInfo?</text><ellipse cx="57" cy="853.9297" fill="#84BE84" rx="3" ry="3" style="stroke:#038048;stroke-width:1.0;"/><text fill="#000000" font-family="sans-serif" font-size="14" lengthAdjust="spacing" text-decoration="underline" textLength="522" x="66" y="858.1582">GetCommentsForCurrentBody(limit: int?, sortOrder: string): Task&lt;List&lt;Comment&gt;&gt;</text><ellipse cx="57" cy="871.5391" fill="#84BE84" rx="3" ry="3" style="stroke:#038048;stroke-width:1.0;"/><text fill="#000000" font-family="sans-serif" font-size="14" lengthAdjust="spacing" text-decoration="underline" textLength="363" x="66" y="875.7676">CreateComment(commentText: string): Task&lt;Comment?&gt;</text><ellipse cx="57" cy="889.1484" fill="#84BE84" rx="3" ry="3" style="stroke:#038048;stroke-width:1.0;"/><text fill="#000000" font-family="sans-serif" font-size="14" lengthAdjust="spacing" text-decoration="underline" textLength="284" x="66" y="893.377">DeleteComment(commentId: int): Task&lt;bool&gt;</text><ellipse cx="57" cy="906.7578" fill="#84BE84" rx="3" ry="3" style="stroke:#038048;stroke-width:1.0;"/><text fill="#000000" font-family="sans-serif" font-size="14" lengthAdjust="spacing" text-decoration="underline" textLength="456" x="66" y="910.9863">UpdateComment(commentId: int, commentText: string): Task&lt;Comment&gt;</text></g><!--class TUI--><g id="elem_TUI"><rect codeLine="46" fill="#F1F1F1" height="217.1875" id="TUI" rx="2.5" ry="2.5" style="stroke:#181818;stroke-width:0.5;" width="426" x="1165" y="630.5"/><ellipse cx="1354.75" cy="651.8516" fill="#ADD1B2" rx="11" ry="11" style="stroke:#181818;stroke-width:1.0;"/><path d="M1357.5156,647.7266 Q1357.6719,647.5078 1357.8594,647.3984 Q1358.0469,647.2891 1358.2656,647.2891 Q1358.6406,647.2891 1358.875,647.5547 Q1359.1094,647.8047 1359.1094,648.4141 L1359.1094,649.8672 Q1359.1094,650.4766 1358.875,650.7422 Q1358.6406,651.0078 1358.2656,651.0078 Q1357.9219,651.0078 1357.7188,650.8047 Q1357.5156,650.6172 1357.4063,650.1016 Q1357.3594,649.7422 1357.1719,649.5547 Q1356.8438,649.1797 1356.2344,648.9609 Q1355.625,648.7422 1355,648.7422 Q1354.2344,648.7422 1353.5938,649.0703 Q1352.9688,649.3984 1352.4688,650.1484 Q1351.9844,650.8984 1351.9844,651.9297 L1351.9844,653.0234 Q1351.9844,654.2578 1352.875,655.0859 Q1353.7656,655.8984 1355.3594,655.8984 Q1356.2969,655.8984 1356.9531,655.6484 Q1357.3438,655.4922 1357.7656,655.0547 Q1358.0313,654.7891 1358.1719,654.7109 Q1358.3281,654.6328 1358.5313,654.6328 Q1358.8594,654.6328 1359.1094,654.8984 Q1359.375,655.1484 1359.375,655.4922 Q1359.375,655.8359 1359.0313,656.2422 Q1358.5313,656.8203 1357.7344,657.1484 Q1356.6563,657.6016 1355.3594,657.6016 Q1353.8438,657.6016 1352.6406,656.9766 Q1351.6563,656.4766 1350.9688,655.4141 Q1350.2813,654.3359 1350.2813,653.0547 L1350.2813,651.8984 Q1350.2813,650.5703 1350.8906,649.4297 Q1351.5156,648.2734 1352.6094,647.6641 Q1353.7031,647.0391 1354.9375,647.0391 Q1355.6719,647.0391 1356.3125,647.2109 Q1356.9688,647.3672 1357.5156,647.7266 Z " fill="#000000"/><text fill="#000000" font-family="sans-serif" font-size="12" font-style="italic" lengthAdjust="spacing" textLength="42" x="1373.25" y="647.957">&#171;static&#187;</text><text fill="#000000" font-family="sans-serif" font-size="14" lengthAdjust="spacing" textLength="21" x="1383.75" y="665.127">TUI</text><line style="stroke:#181818;stroke-width:0.5;" x1="1166" x2="1590" y1="673.2031" y2="673.2031"/><line style="stroke:#181818;stroke-width:0.5;" x1="1166" x2="1590" y1="681.2031" y2="681.2031"/><ellipse cx="1176" cy="695.5078" fill="#84BE84" rx="3" ry="3" style="stroke:#038048;stroke-width:1.0;"/><text fill="#000000" font-family="sans-serif" font-size="14" lengthAdjust="spacing" text-decoration="underline" textLength="124" x="1185" y="699.7363">ShowBanner(): void</text><ellipse cx="1176" cy="713.1172" fill="#84BE84" rx="3" ry="3" style="stroke:#038048;stroke-width:1.0;"/><text fill="#000000" font-family="sans-serif" font-size="14" lengthAdjust="spacing" text-decoration="underline" textLength="106" x="1185" y="717.3457">ShowHelp(): void</text><ellipse cx="1176" cy="730.7266" fill="#84BE84" rx="3" ry="3" style="stroke:#038048;stroke-width:1.0;"/><text fill="#000000" font-family="sans-serif" font-size="14" lengthAdjust="spacing" text-decoration="underline" textLength="154" x="1185" y="734.9551">Path(path: string): Panel</text><ellipse cx="1176" cy="748.3359" fill="#84BE84" rx="3" ry="3" style="stroke:#038048;stroke-width:1.0;"/><text fill="#000000" font-family="sans-serif" font-size="14" lengthAdjust="spacing" text-decoration="underline" textLength="112" x="1185" y="752.5645">Calendar(): Panel</text><ellipse cx="1176" cy="765.9453" fill="#84BE84" rx="3" ry="3" style="stroke:#038048;stroke-width:1.0;"/><text fill="#000000" font-family="sans-serif" font-size="14" lengthAdjust="spacing" text-decoration="underline" textLength="400" x="1185" y="770.1738">CommentsPanel(comments: List&lt;Comment&gt;, title: string): Panel</text><ellipse cx="1176" cy="783.5547" fill="#84BE84" rx="3" ry="3" style="stroke:#038048;stroke-width:1.0;"/><text fill="#000000" font-family="sans-serif" font-size="14" lengthAdjust="spacing" text-decoration="underline" textLength="360" x="1185" y="787.7832">OpenExternalEditor(originalContent: string): (string, bool)</text><ellipse cx="1176" cy="801.1641" fill="#84BE84" rx="3" ry="3" style="stroke:#038048;stroke-width:1.0;"/><text fill="#000000" font-family="sans-serif" font-size="14" lengthAdjust="spacing" text-decoration="underline" textLength="296" x="1185" y="805.3926">Err(name: string, desc: string, info: string): void</text><ellipse cx="1176" cy="818.7734" fill="#84BE84" rx="3" ry="3" style="stroke:#038048;stroke-width:1.0;"/><text fill="#000000" font-family="sans-serif" font-size="14" lengthAdjust="spacing" text-decoration="underline" textLength="386" x="1185" y="823.002">RenderCelestialBody(bodyName: string, bodyType: int): Task</text><ellipse cx="1176" cy="836.3828" fill="#84BE84" rx="3" ry="3" style="stroke:#038048;stroke-width:1.0;"/><text fill="#000000" font-family="sans-serif" font-size="14" lengthAdjust="spacing" text-decoration="underline" textLength="384" x="1185" y="840.6113">DestinationSelector(destinations: string[], title: string): string?</text></g><!--class NavigationState--><g id="elem_NavigationState"><rect codeLine="58" fill="#F1F1F1" height="100.8281" id="NavigationState" rx="2.5" ry="2.5" style="stroke:#181818;stroke-width:0.5;" width="294" x="836" y="688.5"/><ellipse cx="929.25" cy="704.5" fill="#ADD1B2" rx="11" ry="11" style="stroke:#181818;stroke-width:1.0;"/><path d="M932.0156,700.375 Q932.1719,700.1563 932.3594,700.0469 Q932.5469,699.9375 932.7656,699.9375 Q933.1406,699.9375 933.375,700.2031 Q933.6094,700.4531 933.6094,701.0625 L933.6094,702.5156 Q933.6094,703.125 933.375,703.3906 Q933.1406,703.6563 932.7656,703.6563 Q932.4219,703.6563 932.2188,703.4531 Q932.0156,703.2656 931.9063,702.75 Q931.8594,702.3906 931.6719,702.2031 Q931.3438,701.8281 930.7344,701.6094 Q930.125,701.3906 929.5,701.3906 Q928.7344,701.3906 928.0938,701.7188 Q927.4688,702.0469 926.9688,702.7969 Q926.4844,703.5469 926.4844,704.5781 L926.4844,705.6719 Q926.4844,706.9063 927.375,707.7344 Q928.2656,708.5469 929.8594,708.5469 Q930.7969,708.5469 931.4531,708.2969 Q931.8438,708.1406 932.2656,707.7031 Q932.5313,707.4375 932.6719,707.3594 Q932.8281,707.2813 933.0313,707.2813 Q933.3594,707.2813 933.6094,707.5469 Q933.875,707.7969 933.875,708.1406 Q933.875,708.4844 933.5313,708.8906 Q933.0313,709.4688 932.2344,709.7969 Q931.1563,710.25 929.8594,710.25 Q928.3438,710.25 927.1406,709.625 Q926.1563,709.125 925.4688,708.0625 Q924.7813,706.9844 924.7813,705.7031 L924.7813,704.5469 Q924.7813,703.2188 925.3906,702.0781 Q926.0156,700.9219 927.1094,700.3125 Q928.2031,699.6875 929.4375,699.6875 Q930.1719,699.6875 930.8125,699.8594 Q931.4688,700.0156 932.0156,700.375 Z " fill="#000000"/><text fill="#000000" font-family="sans-serif" font-size="14" lengthAdjust="spacing" textLength="99" x="949.75" y="710.2285">NavigationState</text><line style="stroke:#181818;stroke-width:0.5;" x1="837" x2="1129" y1="720.5" y2="720.5"/><ellipse cx="847" cy="734.8047" fill="none" rx="3" ry="3" style="stroke:#038048;stroke-width:1.0;"/><text fill="#000000" font-family="sans-serif" font-size="14" lengthAdjust="spacing" textLength="185" x="856" y="739.0332">CurrentBody: CelestialBodies</text><ellipse cx="847" cy="752.4141" fill="none" rx="3" ry="3" style="stroke:#038048;stroke-width:1.0;"/><text fill="#000000" font-family="sans-serif" font-size="14" lengthAdjust="spacing" textLength="177" x="856" y="756.6426">PathStack&lt;CelestialBodies&gt;</text><ellipse cx="847" cy="770.0234" fill="none" rx="3" ry="3" style="stroke:#038048;stroke-width:1.0;"/><text fill="#000000" font-family="sans-serif" font-size="14" lengthAdjust="spacing" textLength="268" x="856" y="774.252">ChildrenCache&lt;int, List&lt;CelestialBodies&gt;&gt;</text><line style="stroke:#181818;stroke-width:0.5;" x1="837" x2="1129" y1="781.3281" y2="781.3281"/></g><!--class BodyTypeInfo--><g id="elem_BodyTypeInfo"><rect codeLine="64" fill="#F1F1F1" height="118.4375" id="BodyTypeInfo" rx="2.5" ry="2.5" style="stroke:#181818;stroke-width:0.5;" width="140" x="661" y="680"/><ellipse cx="685.45" cy="696" fill="#ADD1B2" rx="11" ry="11" style="stroke:#181818;stroke-width:1.0;"/><path d="M688.2156,691.875 Q688.3719,691.6563 688.5594,691.5469 Q688.7469,691.4375 688.9656,691.4375 Q689.3406,691.4375 689.575,691.7031 Q689.8094,691.9531 689.8094,692.5625 L689.8094,694.0156 Q689.8094,694.625 689.575,694.8906 Q689.3406,695.1563 688.9656,695.1563 Q688.6219,695.1563 688.4188,694.9531 Q688.2156,694.7656 688.1063,694.25 Q688.0594,693.8906 687.8719,693.7031 Q687.5438,693.3281 686.9344,693.1094 Q686.325,692.8906 685.7,692.8906 Q684.9344,692.8906 684.2938,693.2188 Q683.6688,693.5469 683.1688,694.2969 Q682.6844,695.0469 682.6844,696.0781 L682.6844,697.1719 Q682.6844,698.4063 683.575,699.2344 Q684.4656,700.0469 686.0594,700.0469 Q686.9969,700.0469 687.6531,699.7969 Q688.0438,699.6406 688.4656,699.2031 Q688.7313,698.9375 688.8719,698.8594 Q689.0281,698.7813 689.2313,698.7813 Q689.5594,698.7813 689.8094,699.0469 Q690.075,699.2969 690.075,699.6406 Q690.075,699.9844 689.7313,700.3906 Q689.2313,700.9688 688.4344,701.2969 Q687.3563,701.75 686.0594,701.75 Q684.5438,701.75 683.3406,701.125 Q682.3563,700.625 681.6688,699.5625 Q680.9813,698.4844 680.9813,697.2031 L680.9813,696.0469 Q680.9813,694.7188 681.5906,693.5781 Q682.2156,692.4219 683.3094,691.8125 Q684.4031,691.1875 685.6375,691.1875 Q686.3719,691.1875 687.0125,691.3594 Q687.6688,691.5156 688.2156,691.875 Z " fill="#000000"/><text fill="#000000" font-family="sans-serif" font-size="14" lengthAdjust="spacing" textLength="87" x="701.55" y="701.7285">BodyTypeInfo</text><line style="stroke:#181818;stroke-width:0.5;" x1="662" x2="800" y1="712" y2="712"/><ellipse cx="672" cy="726.3047" fill="none" rx="3" ry="3" style="stroke:#038048;stroke-width:1.0;"/><text fill="#000000" font-family="sans-serif" font-size="14" lengthAdjust="spacing" textLength="34" x="681" y="730.5332">Id: int</text><ellipse cx="672" cy="743.9141" fill="none" rx="3" ry="3" style="stroke:#038048;stroke-width:1.0;"/><text fill="#000000" font-family="sans-serif" font-size="14" lengthAdjust="spacing" textLength="79" x="681" y="748.1426">Name: string</text><ellipse cx="672" cy="761.5234" fill="none" rx="3" ry="3" style="stroke:#038048;stroke-width:1.0;"/><text fill="#000000" font-family="sans-serif" font-size="14" lengthAdjust="spacing" textLength="114" x="681" y="765.752">Description: string</text><ellipse cx="672" cy="779.1328" fill="none" rx="3" ry="3" style="stroke:#038048;stroke-width:1.0;"/><text fill="#000000" font-family="sans-serif" font-size="14" lengthAdjust="spacing" textLength="77" x="681" y="783.3613">Emoji: string</text><line style="stroke:#181818;stroke-width:0.5;" x1="662" x2="800" y1="790.4375" y2="790.4375"/></g><!--class CelestialBodies--><g id="elem_CelestialBodies"><rect codeLine="73" fill="#F1F1F1" height="118.4375" id="CelestialBodies" rx="2.5" ry="2.5" style="stroke:#181818;stroke-width:0.5;" width="149" x="915.5" y="1093"/><ellipse cx="939.5" cy="1109" fill="#ADD1B2" rx="11" ry="11" style="stroke:#181818;stroke-width:1.0;"/><path d="M942.2656,1104.875 Q942.4219,1104.6563 942.6094,1104.5469 Q942.7969,1104.4375 943.0156,1104.4375 Q943.3906,1104.4375 943.625,1104.7031 Q943.8594,1104.9531 943.8594,1105.5625 L943.8594,1107.0156 Q943.8594,1107.625 943.625,1107.8906 Q943.3906,1108.1563 943.0156,1108.1563 Q942.6719,1108.1563 942.4688,1107.9531 Q942.2656,1107.7656 942.1563,1107.25 Q942.1094,1106.8906 941.9219,1106.7031 Q941.5938,1106.3281 940.9844,1106.1094 Q940.375,1105.8906 939.75,1105.8906 Q938.9844,1105.8906 938.3438,1106.2188 Q937.7188,1106.5469 937.2188,1107.2969 Q936.7344,1108.0469 936.7344,1109.0781 L936.7344,1110.1719 Q936.7344,1111.4063 937.625,1112.2344 Q938.5156,1113.0469 940.1094,1113.0469 Q941.0469,1113.0469 941.7031,1112.7969 Q942.0938,1112.6406 942.5156,1112.2031 Q942.7813,1111.9375 942.9219,1111.8594 Q943.0781,1111.7813 943.2813,1111.7813 Q943.6094,1111.7813 943.8594,1112.0469 Q944.125,1112.2969 944.125,1112.6406 Q944.125,1112.9844 943.7813,1113.3906 Q943.2813,1113.9688 942.4844,1114.2969 Q941.4063,1114.75 940.1094,1114.75 Q938.5938,1114.75 937.3906,1114.125 Q936.4063,1113.625 935.7188,1112.5625 Q935.0313,1111.4844 935.0313,1110.2031 L935.0313,1109.0469 Q935.0313,1107.7188 935.6406,1106.5781 Q936.2656,1105.4219 937.3594,1104.8125 Q938.4531,1104.1875 939.6875,1104.1875 Q940.4219,1104.1875 941.0625,1104.3594 Q941.7188,1104.5156 942.2656,1104.875 Z " fill="#000000"/><text fill="#000000" font-family="sans-serif" font-size="14" lengthAdjust="spacing" textLength="97" x="955.5" y="1114.7285">CelestialBodies</text><line style="stroke:#181818;stroke-width:0.5;" x1="916.5" x2="1063.5" y1="1125" y2="1125"/><ellipse cx="926.5" cy="1139.3047" fill="none" rx="3" ry="3" style="stroke:#038048;stroke-width:1.0;"/><text fill="#000000" font-family="sans-serif" font-size="14" lengthAdjust="spacing" textLength="34" x="935.5" y="1143.5332">Id: int</text><ellipse cx="926.5" cy="1156.9141" fill="none" rx="3" ry="3" style="stroke:#038048;stroke-width:1.0;"/><text fill="#000000" font-family="sans-serif" font-size="14" lengthAdjust="spacing" textLength="111" x="935.5" y="1161.1426">BodyName: string</text><ellipse cx="926.5" cy="1174.5234" fill="none" rx="3" ry="3" style="stroke:#038048;stroke-width:1.0;"/><text fill="#000000" font-family="sans-serif" font-size="14" lengthAdjust="spacing" textLength="87" x="935.5" y="1178.752">BodyType: int</text><ellipse cx="926.5" cy="1192.1328" fill="none" rx="3" ry="3" style="stroke:#038048;stroke-width:1.0;"/><text fill="#000000" font-family="sans-serif" font-size="14" lengthAdjust="spacing" textLength="123" x="935.5" y="1196.3613">ActiveRevision: int?</text><line style="stroke:#181818;stroke-width:0.5;" x1="916.5" x2="1063.5" y1="1203.4375" y2="1203.4375"/></g><!--class Comment--><g id="elem_Comment"><rect codeLine="80" fill="#F1F1F1" height="118.4375" id="Comment" rx="2.5" ry="2.5" style="stroke:#181818;stroke-width:0.5;" width="156" x="724" y="1093"/><ellipse cx="767.8" cy="1109" fill="#ADD1B2" rx="11" ry="11" style="stroke:#181818;stroke-width:1.0;"/><path d="M770.5656,1104.875 Q770.7219,1104.6563 770.9094,1104.5469 Q771.0969,1104.4375 771.3156,1104.4375 Q771.6906,1104.4375 771.925,1104.7031 Q772.1594,1104.9531 772.1594,1105.5625 L772.1594,1107.0156 Q772.1594,1107.625 771.925,1107.8906 Q771.6906,1108.1563 771.3156,1108.1563 Q770.9719,1108.1563 770.7688,1107.9531 Q770.5656,1107.7656 770.4563,1107.25 Q770.4094,1106.8906 770.2219,1106.7031 Q769.8938,1106.3281 769.2844,1106.1094 Q768.675,1105.8906 768.05,1105.8906 Q767.2844,1105.8906 766.6438,1106.2188 Q766.0188,1106.5469 765.5188,1107.2969 Q765.0344,1108.0469 765.0344,1109.0781 L765.0344,1110.1719 Q765.0344,1111.4063 765.925,1112.2344 Q766.8156,1113.0469 768.4094,1113.0469 Q769.3469,1113.0469 770.0031,1112.7969 Q770.3938,1112.6406 770.8156,1112.2031 Q771.0813,1111.9375 771.2219,1111.8594 Q771.3781,1111.7813 771.5813,1111.7813 Q771.9094,1111.7813 772.1594,1112.0469 Q772.425,1112.2969 772.425,1112.6406 Q772.425,1112.9844 772.0813,1113.3906 Q771.5813,1113.9688 770.7844,1114.2969 Q769.7063,1114.75 768.4094,1114.75 Q766.8938,1114.75 765.6906,1114.125 Q764.7063,1113.625 764.0188,1112.5625 Q763.3313,1111.4844 763.3313,1110.2031 L763.3313,1109.0469 Q763.3313,1107.7188 763.9406,1106.5781 Q764.5656,1105.4219 765.6594,1104.8125 Q766.7531,1104.1875 767.9875,1104.1875 Q768.7219,1104.1875 769.3625,1104.3594 Q770.0188,1104.5156 770.5656,1104.875 Z " fill="#000000"/><text fill="#000000" font-family="sans-serif" font-size="14" lengthAdjust="spacing" textLength="60" x="788.2" y="1114.7285">Comment</text><line style="stroke:#181818;stroke-width:0.5;" x1="725" x2="879" y1="1125" y2="1125"/><ellipse cx="735" cy="1139.3047" fill="none" rx="3" ry="3" style="stroke:#038048;stroke-width:1.0;"/><text fill="#000000" font-family="sans-serif" font-size="14" lengthAdjust="spacing" textLength="94" x="744" y="1143.5332">CommentId: int</text><ellipse cx="735" cy="1156.9141" fill="none" rx="3" ry="3" style="stroke:#038048;stroke-width:1.0;"/><text fill="#000000" font-family="sans-serif" font-size="14" lengthAdjust="spacing" textLength="130" x="744" y="1161.1426">CommentText: string</text><ellipse cx="735" cy="1174.5234" fill="none" rx="3" ry="3" style="stroke:#038048;stroke-width:1.0;"/><text fill="#000000" font-family="sans-serif" font-size="14" lengthAdjust="spacing" textLength="83" x="744" y="1178.752">UserId: string</text><ellipse cx="735" cy="1192.1328" fill="none" rx="3" ry="3" style="stroke:#038048;stroke-width:1.0;"/><text fill="#000000" font-family="sans-serif" font-size="14" lengthAdjust="spacing" textLength="120" x="744" y="1196.3613">CelestialBodyId: int</text><line style="stroke:#181818;stroke-width:0.5;" x1="725" x2="879" y1="1203.4375" y2="1203.4375"/></g><!--class Revision--><g id="elem_Revision"><rect codeLine="87" fill="#F1F1F1" height="118.4375" id="Revision" rx="2.5" ry="2.5" style="stroke:#181818;stroke-width:0.5;" width="193" x="203.5" y="1093"/><ellipse cx="268.75" cy="1109" fill="#ADD1B2" rx="11" ry="11" style="stroke:#181818;stroke-width:1.0;"/><path d="M271.5156,1104.875 Q271.6719,1104.6563 271.8594,1104.5469 Q272.0469,1104.4375 272.2656,1104.4375 Q272.6406,1104.4375 272.875,1104.7031 Q273.1094,1104.9531 273.1094,1105.5625 L273.1094,1107.0156 Q273.1094,1107.625 272.875,1107.8906 Q272.6406,1108.1563 272.2656,1108.1563 Q271.9219,1108.1563 271.7188,1107.9531 Q271.5156,1107.7656 271.4063,1107.25 Q271.3594,1106.8906 271.1719,1106.7031 Q270.8438,1106.3281 270.2344,1106.1094 Q269.625,1105.8906 269,1105.8906 Q268.2344,1105.8906 267.5938,1106.2188 Q266.9688,1106.5469 266.4688,1107.2969 Q265.9844,1108.0469 265.9844,1109.0781 L265.9844,1110.1719 Q265.9844,1111.4063 266.875,1112.2344 Q267.7656,1113.0469 269.3594,1113.0469 Q270.2969,1113.0469 270.9531,1112.7969 Q271.3438,1112.6406 271.7656,1112.2031 Q272.0313,1111.9375 272.1719,1111.8594 Q272.3281,1111.7813 272.5313,1111.7813 Q272.8594,1111.7813 273.1094,1112.0469 Q273.375,1112.2969 273.375,1112.6406 Q273.375,1112.9844 273.0313,1113.3906 Q272.5313,1113.9688 271.7344,1114.2969 Q270.6563,1114.75 269.3594,1114.75 Q267.8438,1114.75 266.6406,1114.125 Q265.6563,1113.625 264.9688,1112.5625 Q264.2813,1111.4844 264.2813,1110.2031 L264.2813,1109.0469 Q264.2813,1107.7188 264.8906,1106.5781 Q265.5156,1105.4219 266.6094,1104.8125 Q267.7031,1104.1875 268.9375,1104.1875 Q269.6719,1104.1875 270.3125,1104.3594 Q270.9688,1104.5156 271.5156,1104.875 Z " fill="#000000"/><text fill="#000000" font-family="sans-serif" font-size="14" lengthAdjust="spacing" textLength="54" x="289.25" y="1114.7285">Revision</text><line style="stroke:#181818;stroke-width:0.5;" x1="204.5" x2="395.5" y1="1125" y2="1125"/><ellipse cx="214.5" cy="1139.3047" fill="none" rx="3" ry="3" style="stroke:#038048;stroke-width:1.0;"/><text fill="#000000" font-family="sans-serif" font-size="14" lengthAdjust="spacing" textLength="34" x="223.5" y="1143.5332">Id: int</text><ellipse cx="214.5" cy="1156.9141" fill="none" rx="3" ry="3" style="stroke:#038048;stroke-width:1.0;"/><text fill="#000000" font-family="sans-serif" font-size="14" lengthAdjust="spacing" textLength="93" x="223.5" y="1161.1426">Content: string</text><ellipse cx="214.5" cy="1174.5234" fill="none" rx="3" ry="3" style="stroke:#038048;stroke-width:1.0;"/><text fill="#000000" font-family="sans-serif" font-size="14" lengthAdjust="spacing" textLength="165" x="223.5" y="1178.752">CelestialBodyName: string</text><ellipse cx="214.5" cy="1192.1328" fill="none" rx="3" ry="3" style="stroke:#038048;stroke-width:1.0;"/><text fill="#000000" font-family="sans-serif" font-size="14" lengthAdjust="spacing" textLength="167" x="223.5" y="1196.3613">AuthorDisplayName: string</text><line style="stroke:#181818;stroke-width:0.5;" x1="204.5" x2="395.5" y1="1203.4375" y2="1203.4375"/></g><!--class SearchService--><g id="elem_SearchService"><rect codeLine="94" fill="#F1F1F1" height="100.8281" id="SearchService" rx="2.5" ry="2.5" style="stroke:#181818;stroke-width:0.5;" width="355" x="1099.5" y="1101.5"/><ellipse cx="1226.75" cy="1117.5" fill="#ADD1B2" rx="11" ry="11" style="stroke:#181818;stroke-width:1.0;"/><path d="M1229.5156,1113.375 Q1229.6719,1113.1563 1229.8594,1113.0469 Q1230.0469,1112.9375 1230.2656,1112.9375 Q1230.6406,1112.9375 1230.875,1113.2031 Q1231.1094,1113.4531 1231.1094,1114.0625 L1231.1094,1115.5156 Q1231.1094,1116.125 1230.875,1116.3906 Q1230.6406,1116.6563 1230.2656,1116.6563 Q1229.9219,1116.6563 1229.7188,1116.4531 Q1229.5156,1116.2656 1229.4063,1115.75 Q1229.3594,1115.3906 1229.1719,1115.2031 Q1228.8438,1114.8281 1228.2344,1114.6094 Q1227.625,1114.3906 1227,1114.3906 Q1226.2344,1114.3906 1225.5938,1114.7188 Q1224.9688,1115.0469 1224.4688,1115.7969 Q1223.9844,1116.5469 1223.9844,1117.5781 L1223.9844,1118.6719 Q1223.9844,1119.9063 1224.875,1120.7344 Q1225.7656,1121.5469 1227.3594,1121.5469 Q1228.2969,1121.5469 1228.9531,1121.2969 Q1229.3438,1121.1406 1229.7656,1120.7031 Q1230.0313,1120.4375 1230.1719,1120.3594 Q1230.3281,1120.2813 1230.5313,1120.2813 Q1230.8594,1120.2813 1231.1094,1120.5469 Q1231.375,1120.7969 1231.375,1121.1406 Q1231.375,1121.4844 1231.0313,1121.8906 Q1230.5313,1122.4688 1229.7344,1122.7969 Q1228.6563,1123.25 1227.3594,1123.25 Q1225.8438,1123.25 1224.6406,1122.625 Q1223.6563,1122.125 1222.9688,1121.0625 Q1222.2813,1119.9844 1222.2813,1118.7031 L1222.2813,1117.5469 Q1222.2813,1116.2188 1222.8906,1115.0781 Q1223.5156,1113.9219 1224.6094,1113.3125 Q1225.7031,1112.6875 1226.9375,1112.6875 Q1227.6719,1112.6875 1228.3125,1112.8594 Q1228.9688,1113.0156 1229.5156,1113.375 Z " fill="#000000"/><text fill="#000000" font-family="sans-serif" font-size="14" lengthAdjust="spacing" textLength="92" x="1247.25" y="1123.2285">SearchService</text><line style="stroke:#181818;stroke-width:0.5;" x1="1100.5" x2="1453.5" y1="1133.5" y2="1133.5"/><line style="stroke:#181818;stroke-width:0.5;" x1="1100.5" x2="1453.5" y1="1141.5" y2="1141.5"/><ellipse cx="1110.5" cy="1155.8047" fill="#84BE84" rx="3" ry="3" style="stroke:#038048;stroke-width:1.0;"/><text fill="#000000" font-family="sans-serif" font-size="14" lengthAdjust="spacing" textLength="264" x="1119.5" y="1160.0332">SearchCelestialBodies(): IEnumerable&lt;T&gt;</text><ellipse cx="1110.5" cy="1173.4141" fill="#84BE84" rx="3" ry="3" style="stroke:#038048;stroke-width:1.0;"/><text fill="#000000" font-family="sans-serif" font-size="14" lengthAdjust="spacing" textLength="316" x="1119.5" y="1177.6426">SearchStarSystems(): IEnumerable&lt;StarSystems&gt;</text><ellipse cx="1110.5" cy="1191.0234" fill="#84BE84" rx="3" ry="3" style="stroke:#038048;stroke-width:1.0;"/><text fill="#000000" font-family="sans-serif" font-size="14" lengthAdjust="spacing" textLength="329" x="1119.5" y="1195.252">SearchCommentDtos(): IEnumerable&lt;CommentDto&gt;</text></g><!--class PaginatedCelestialBodiesResponse--><g id="elem_PaginatedCelestialBodiesResponse"><rect codeLine="102" fill="#F1F1F1" height="136.0469" id="PaginatedCelestialBodiesResponse" rx="2.5" ry="2.5" style="stroke:#181818;stroke-width:0.5;" width="257" x="431.5" y="1084"/><ellipse cx="446.5" cy="1100" fill="#ADD1B2" rx="11" ry="11" style="stroke:#181818;stroke-width:1.0;"/><path d="M449.2656,1095.875 Q449.4219,1095.6563 449.6094,1095.5469 Q449.7969,1095.4375 450.0156,1095.4375 Q450.3906,1095.4375 450.625,1095.7031 Q450.8594,1095.9531 450.8594,1096.5625 L450.8594,1098.0156 Q450.8594,1098.625 450.625,1098.8906 Q450.3906,1099.1563 450.0156,1099.1563 Q449.6719,1099.1563 449.4688,1098.9531 Q449.2656,1098.7656 449.1563,1098.25 Q449.1094,1097.8906 448.9219,1097.7031 Q448.5938,1097.3281 447.9844,1097.1094 Q447.375,1096.8906 446.75,1096.8906 Q445.9844,1096.8906 445.3438,1097.2188 Q444.7188,1097.5469 444.2188,1098.2969 Q443.7344,1099.0469 443.7344,1100.0781 L443.7344,1101.1719 Q443.7344,1102.4063 444.625,1103.2344 Q445.5156,1104.0469 447.1094,1104.0469 Q448.0469,1104.0469 448.7031,1103.7969 Q449.0938,1103.6406 449.5156,1103.2031 Q449.7813,1102.9375 449.9219,1102.8594 Q450.0781,1102.7813 450.2813,1102.7813 Q450.6094,1102.7813 450.8594,1103.0469 Q451.125,1103.2969 451.125,1103.6406 Q451.125,1103.9844 450.7813,1104.3906 Q450.2813,1104.9688 449.4844,1105.2969 Q448.4063,1105.75 447.1094,1105.75 Q445.5938,1105.75 444.3906,1105.125 Q443.4063,1104.625 442.7188,1103.5625 Q442.0313,1102.4844 442.0313,1101.2031 L442.0313,1100.0469 Q442.0313,1098.7188 442.6406,1097.5781 Q443.2656,1096.4219 444.3594,1095.8125 Q445.4531,1095.1875 446.6875,1095.1875 Q447.4219,1095.1875 448.0625,1095.3594 Q448.7188,1095.5156 449.2656,1095.875 Z " fill="#000000"/><text fill="#000000" font-family="sans-serif" font-size="14" lengthAdjust="spacing" textLength="225" x="460.5" y="1105.7285">PaginatedCelestialBodiesResponse</text><line style="stroke:#181818;stroke-width:0.5;" x1="432.5" x2="687.5" y1="1116" y2="1116"/><ellipse cx="442.5" cy="1130.3047" fill="none" rx="3" ry="3" style="stroke:#038048;stroke-width:1.0;"/><text fill="#000000" font-family="sans-serif" font-size="14" lengthAdjust="spacing" textLength="105" x="451.5" y="1134.5332">PageNumber: int</text><ellipse cx="442.5" cy="1147.9141" fill="none" rx="3" ry="3" style="stroke:#038048;stroke-width:1.0;"/><text fill="#000000" font-family="sans-serif" font-size="14" lengthAdjust="spacing" textLength="82" x="451.5" y="1152.1426">PageSize: int</text><ellipse cx="442.5" cy="1165.5234" fill="none" rx="3" ry="3" style="stroke:#038048;stroke-width:1.0;"/><text fill="#000000" font-family="sans-serif" font-size="14" lengthAdjust="spacing" textLength="93" x="451.5" y="1169.752">TotalCount: int</text><ellipse cx="442.5" cy="1183.1328" fill="none" rx="3" ry="3" style="stroke:#038048;stroke-width:1.0;"/><text fill="#000000" font-family="sans-serif" font-size="14" lengthAdjust="spacing" textLength="95" x="451.5" y="1187.3613">TotalPages: int</text><ellipse cx="442.5" cy="1200.7422" fill="none" rx="3" ry="3" style="stroke:#038048;stroke-width:1.0;"/><text fill="#000000" font-family="sans-serif" font-size="14" lengthAdjust="spacing" textLength="176" x="451.5" y="1204.9707">Items: List&lt;CelestialBodies&gt;</text><line style="stroke:#181818;stroke-width:0.5;" x1="432.5" x2="687.5" y1="1212.0469" y2="1212.0469"/></g><!--class Console--><g id="elem_Console"><rect fill="#F1F1F1" height="48" id="Console" rx="2.5" ry="2.5" style="stroke:#181818;stroke-width:0.5;" width="84" x="1747" y="1128"/><ellipse cx="1762" cy="1144" fill="#ADD1B2" rx="11" ry="11" style="stroke:#181818;stroke-width:1.0;"/><path d="M1764.7656,1139.875 Q1764.9219,1139.6563 1765.1094,1139.5469 Q1765.2969,1139.4375 1765.5156,1139.4375 Q1765.8906,1139.4375 1766.125,1139.7031 Q1766.3594,1139.9531 1766.3594,1140.5625 L1766.3594,1142.0156 Q1766.3594,1142.625 1766.125,1142.8906 Q1765.8906,1143.1563 1765.5156,1143.1563 Q1765.1719,1143.1563 1764.9688,1142.9531 Q1764.7656,1142.7656 1764.6563,1142.25 Q1764.6094,1141.8906 1764.4219,1141.7031 Q1764.0938,1141.3281 1763.4844,1141.1094 Q1762.875,1140.8906 1762.25,1140.8906 Q1761.4844,1140.8906 1760.8438,1141.2188 Q1760.2188,1141.5469 1759.7188,1142.2969 Q1759.2344,1143.0469 1759.2344,1144.0781 L1759.2344,1145.1719 Q1759.2344,1146.4063 1760.125,1147.2344 Q1761.0156,1148.0469 1762.6094,1148.0469 Q1763.5469,1148.0469 1764.2031,1147.7969 Q1764.5938,1147.6406 1765.0156,1147.2031 Q1765.2813,1146.9375 1765.4219,1146.8594 Q1765.5781,1146.7813 1765.7813,1146.7813 Q1766.1094,1146.7813 1766.3594,1147.0469 Q1766.625,1147.2969 1766.625,1147.6406 Q1766.625,1147.9844 1766.2813,1148.3906 Q1765.7813,1148.9688 1764.9844,1149.2969 Q1763.9063,1149.75 1762.6094,1149.75 Q1761.0938,1149.75 1759.8906,1149.125 Q1758.9063,1148.625 1758.2188,1147.5625 Q1757.5313,1146.4844 1757.5313,1145.2031 L1757.5313,1144.0469 Q1757.5313,1142.7188 1758.1406,1141.5781 Q1758.7656,1140.4219 1759.8594,1139.8125 Q1760.9531,1139.1875 1762.1875,1139.1875 Q1762.9219,1139.1875 1763.5625,1139.3594 Q1764.2188,1139.5156 1764.7656,1139.875 Z " fill="#000000"/><text fill="#000000" font-family="sans-serif" font-size="14" lengthAdjust="spacing" textLength="52" x="1776" y="1149.7285">Console</text><line style="stroke:#181818;stroke-width:0.5;" x1="1748" x2="1830" y1="1160" y2="1160"/><line style="stroke:#181818;stroke-width:0.5;" x1="1748" x2="1830" y1="1168" y2="1168"/></g><!--class _commandHistory--><g id="elem__commandHistory"><rect fill="#F1F1F1" height="48" id="_commandHistory" rx="2.5" ry="2.5" style="stroke:#181818;stroke-width:0.5;" width="144" x="1723" y="270"/><ellipse cx="1738" cy="286" fill="#ADD1B2" rx="11" ry="11" style="stroke:#181818;stroke-width:1.0;"/><path d="M1740.7656,281.875 Q1740.9219,281.6563 1741.1094,281.5469 Q1741.2969,281.4375 1741.5156,281.4375 Q1741.8906,281.4375 1742.125,281.7031 Q1742.3594,281.9531 1742.3594,282.5625 L1742.3594,284.0156 Q1742.3594,284.625 1742.125,284.8906 Q1741.8906,285.1563 1741.5156,285.1563 Q1741.1719,285.1563 1740.9688,284.9531 Q1740.7656,284.7656 1740.6563,284.25 Q1740.6094,283.8906 1740.4219,283.7031 Q1740.0938,283.3281 1739.4844,283.1094 Q1738.875,282.8906 1738.25,282.8906 Q1737.4844,282.8906 1736.8438,283.2188 Q1736.2188,283.5469 1735.7188,284.2969 Q1735.2344,285.0469 1735.2344,286.0781 L1735.2344,287.1719 Q1735.2344,288.4063 1736.125,289.2344 Q1737.0156,290.0469 1738.6094,290.0469 Q1739.5469,290.0469 1740.2031,289.7969 Q1740.5938,289.6406 1741.0156,289.2031 Q1741.2813,288.9375 1741.4219,288.8594 Q1741.5781,288.7813 1741.7813,288.7813 Q1742.1094,288.7813 1742.3594,289.0469 Q1742.625,289.2969 1742.625,289.6406 Q1742.625,289.9844 1742.2813,290.3906 Q1741.7813,290.9688 1740.9844,291.2969 Q1739.9063,291.75 1738.6094,291.75 Q1737.0938,291.75 1735.8906,291.125 Q1734.9063,290.625 1734.2188,289.5625 Q1733.5313,288.4844 1733.5313,287.2031 L1733.5313,286.0469 Q1733.5313,284.7188 1734.1406,283.5781 Q1734.7656,282.4219 1735.8594,281.8125 Q1736.9531,281.1875 1738.1875,281.1875 Q1738.9219,281.1875 1739.5625,281.3594 Q1740.2188,281.5156 1740.7656,281.875 Z " fill="#000000"/><text fill="#000000" font-family="sans-serif" font-size="14" lengthAdjust="spacing" textLength="112" x="1752" y="291.7285">_commandHistory</text><line style="stroke:#181818;stroke-width:0.5;" x1="1724" x2="1866" y1="302" y2="302"/><line style="stroke:#181818;stroke-width:0.5;" x1="1724" x2="1866" y1="310" y2="310"/></g><!--link Program to CommandLogic--><g id="link_Program_CommandLogic"><path codeLine="112" d="M1221.48,342.62 C1081.9,381.25 886.93,440.88 723,512 C680.5,530.44 641.9736,549.2543 599.5736,571.6843 " fill="none" id="Program-to-CommandLogic" style="stroke:#181818;stroke-width:1.0;"/><polygon fill="#181818" points="594.27,574.49,604.0959,573.8173,598.6897,572.152,600.355,566.7458,594.27,574.49" style="stroke:#181818;stroke-width:1.0;"/><text fill="#000000" font-family="sans-serif" font-size="13" lengthAdjust="spacing" textLength="28" x="724" y="526.4951">uses</text></g><!--link Program to TUI--><g id="link_Program_TUI"><path codeLine="113" d="M1221.17,302.15 C1071.31,318.88 868.7,368.73 766,512 C716.15,581.54 1068.19,529.18 1148,560 C1190.04,576.23 1226.0069,599.0669 1261.1669,626.7669 " fill="none" id="Program-to-TUI" style="stroke:#181818;stroke-width:1.0;"/><polygon fill="#181818" points="1265.88,630.48,1261.2858,621.7683,1261.9524,627.3858,1256.335,628.0524,1265.88,630.48" style="stroke:#181818;stroke-width:1.0;"/><text fill="#000000" font-family="sans-serif" font-size="13" lengthAdjust="spacing" textLength="28" x="767" y="526.4951">uses</text></g><!--link Program to SearchService--><g id="link_Program_SearchService"><path codeLine="114" d="M1571.88,482.22 C1586.95,507.07 1599.93,533.24 1609,560 C1663.51,720.79 1691.06,793.37 1609,942 C1567.85,1016.53 1493.1661,1065.5706 1421.9461,1098.8406 " fill="none" id="Program-to-SearchService" style="stroke:#181818;stroke-width:1.0;"/><polygon fill="#181818" points="1416.51,1101.38,1426.3571,1101.1949,1421.0401,1099.2638,1422.9712,1093.9468,1416.51,1101.38" style="stroke:#181818;stroke-width:1.0;"/><text fill="#000000" font-family="sans-serif" font-size="13" lengthAdjust="spacing" textLength="28" x="1661" y="744.4951">uses</text></g><!--link Program to _commandHistory--><g id="link_Program__commandHistory"><path codeLine="115" d="M1602.62,294 C1646.67,294 1672.71,294 1716.75,294 " fill="none" id="Program-_commandHistory" style="stroke:#181818;stroke-width:1.0;"/><polygon fill="none" points="1590.62,294,1596.62,298,1602.62,294,1596.62,290,1590.62,294" style="stroke:#181818;stroke-width:1.0;"/><polygon fill="#181818" points="1722.75,294,1713.75,290,1717.75,294,1713.75,298,1722.75,294" style="stroke:#181818;stroke-width:1.0;"/><text fill="#000000" font-family="sans-serif" font-size="13" lengthAdjust="spacing" textLength="69" x="1645.9105" y="290.9205">List&lt;string&gt;</text></g><!--link CommandLogic to NavigationState--><g id="link_CommandLogic_NavigationState"><path codeLine="117" d="M582.2987,554.8818 C667.8587,515.8718 752.11,502.18 836,544 C895.95,573.88 935.2282,635.7828 958.5582,682.9128 " fill="none" id="CommandLogic-NavigationState" style="stroke:#181818;stroke-width:1.0;"/><polygon fill="none" points="571.38,559.86,578.4987,561.0104,582.2987,554.8818,575.1799,553.7313,571.38,559.86" style="stroke:#181818;stroke-width:1.0;"/><polygon fill="#181818" points="961.22,688.29,960.8121,678.4496,959.0018,683.809,953.6425,681.9987,961.22,688.29" style="stroke:#181818;stroke-width:1.0;"/><text fill="#000000" font-family="sans-serif" font-size="13" lengthAdjust="spacing" textLength="30" x="805" y="526.4951">owns</text></g><!--link CommandLogic to BodyTypeInfo--><g id="link_CommandLogic_BodyTypeInfo"><path codeLine="118" d="M606.14,739 C630.29,739 635.01,739 654.74,739 " fill="none" id="CommandLogic-BodyTypeInfo" style="stroke:#181818;stroke-width:1.0;"/><polygon fill="none" points="594.14,739,600.14,743,606.14,739,600.14,735,594.14,739" style="stroke:#181818;stroke-width:1.0;"/><polygon fill="#181818" points="660.74,739,651.74,735,655.74,739,651.74,743,660.74,739" style="stroke:#181818;stroke-width:1.0;"/><text fill="#000000" font-family="sans-serif" font-size="13" lengthAdjust="spacing" textLength="30" x="612.5" y="732.4951">owns</text><text fill="#000000" font-family="sans-serif" font-size="13" lengthAdjust="spacing" textLength="115" x="538.5054" y="762.464">List&lt;BodyTypeInfo&gt;</text></g><!--link CommandLogic to CelestialBodies--><g id="link_CommandLogic_CelestialBodies"><path codeLine="119" d="M584.53,918.19 C603.86,927.21 623.45,935.29 643,942 C675.96,953.31 686.42,945.69 721,950 C799.9,959.84 833.12,930.04 898,976 C937.21,1003.78 959.0974,1047.8366 972.6474,1087.2066 " fill="none" id="CommandLogic-to-CelestialBodies" style="stroke:#181818;stroke-width:1.0;"/><polygon fill="#181818" points="974.6,1092.88,975.4533,1083.0682,972.9728,1088.1522,967.8888,1085.6717,974.6,1092.88" style="stroke:#181818;stroke-width:1.0;"/><text fill="#000000" font-family="sans-serif" font-size="13" lengthAdjust="spacing" textLength="28" x="883" y="964.4951">uses</text></g><!--link CommandLogic to Comment--><g id="link_CommandLogic_Comment"><path codeLine="120" d="M594.16,912.11 C610.66,922.27 627.03,932.29 643,942 C662.41,953.8 666.81,957.59 687,968 C694.78,972.01 698.54,970.09 705,976 C739.84,1007.91 762.6849,1049.7816 778.6549,1087.2016 " fill="none" id="CommandLogic-to-Comment" style="stroke:#181818;stroke-width:1.0;"/><polygon fill="#181818" points="781.01,1092.72,781.1562,1082.8722,779.0474,1088.1213,773.7983,1086.0124,781.01,1092.72" style="stroke:#181818;stroke-width:1.0;"/><text fill="#000000" font-family="sans-serif" font-size="13" lengthAdjust="spacing" textLength="28" x="688" y="964.4951">uses</text></g><!--link CommandLogic to Revision--><g id="link_CommandLogic_Revision"><path codeLine="121" d="M311.33,918.18 C308.28,980.83 305.3511,1040.9371 303.1311,1086.6371 " fill="none" id="CommandLogic-to-Revision" style="stroke:#181818;stroke-width:1.0;"/><polygon fill="#181818" points="302.84,1092.63,307.272,1083.8347,303.0826,1087.6359,299.2814,1083.4465,302.84,1092.63" style="stroke:#181818;stroke-width:1.0;"/><text fill="#000000" font-family="sans-serif" font-size="13" lengthAdjust="spacing" textLength="28" x="311" y="964.4951">uses</text></g><!--link CommandLogic to PaginatedCelestialBodiesResponse--><g id="link_CommandLogic_PaginatedCelestialBodiesResponse"><path codeLine="122" d="M424.05,918.18 C458.35,976.93 491.4048,1033.5285 517.7648,1078.6785 " fill="none" id="CommandLogic-to-PaginatedCelestialBodiesResponse" style="stroke:#181818;stroke-width:1.0;"/><polygon fill="#181818" points="520.79,1083.86,519.7066,1074.0709,518.269,1079.542,512.7979,1078.1044,520.79,1083.86" style="stroke:#181818;stroke-width:1.0;"/><text fill="#000000" font-family="sans-serif" font-size="13" lengthAdjust="spacing" textLength="40" x="449" y="964.4951">returns</text></g><!--link NavigationState to CelestialBodies--><g id="link_NavigationState_CelestialBodies"><path codeLine="124" d="M982.45,789.82 C982.07,836.01 981.83,906.66 983,968 C983.8,1009.8 985.355,1050.9459 986.945,1086.9159 " fill="none" id="NavigationState-to-CelestialBodies" style="stroke:#181818;stroke-width:1.0;"/><polygon fill="#181818" points="987.21,1092.91,990.8087,1083.7421,986.9892,1087.9149,982.8165,1084.0954,987.21,1092.91" style="stroke:#181818;stroke-width:1.0;"/><text fill="#000000" font-family="sans-serif" font-size="13" lengthAdjust="spacing" textLength="60" x="984" y="964.4951">references</text></g><!--link NavigationState to CelestialBodies--><g id="link_NavigationState_CelestialBodies"><path codeLine="125" d="M1016.0261,800.6825 C1038.2161,846.3325 1058.86,905.31 1049,968 C1042.26,1010.87 1029.2513,1051.77 1016.0113,1087.18 " fill="none" id="NavigationState-CelestialBodies" style="stroke:#181818;stroke-width:1.0;"/><polygon fill="none" points="1010.78,789.89,1009.8056,797.035,1016.0261,800.6825,1017.0006,793.5375,1010.78,789.89" style="stroke:#181818;stroke-width:1.0;"/><polygon fill="#181818" points="1013.91,1092.8,1020.8087,1085.7709,1015.6611,1088.1167,1013.3154,1082.9691,1013.91,1092.8" style="stroke:#181818;stroke-width:1.0;"/><text fill="#000000" font-family="sans-serif" font-size="13" lengthAdjust="spacing" textLength="49" x="1051" y="964.4951">contains</text><text fill="#000000" font-family="sans-serif" font-size="13" lengthAdjust="spacing" textLength="140" x="868.2928" y="1082.0999">Stack&lt;CelestialBodies&gt;</text></g><!--link NavigationState to CelestialBodies--><g id="link_NavigationState_CelestialBodies"><path codeLine="126" d="M955.4587,800.9918 C936.9687,846.9218 920.1,906 930,968 C936.86,1010.92 950.0862,1051.8322 963.5562,1087.2322 " fill="none" id="NavigationState-CelestialBodies-1" style="stroke:#181818;stroke-width:1.0;"/><polygon fill="none" points="959.94,789.86,953.9887,793.9321,955.4587,800.9918,961.4099,796.9197,959.94,789.86" style="stroke:#181818;stroke-width:1.0;"/><polygon fill="#181818" points="965.69,1092.84,966.2278,1083.0058,963.9118,1088.1669,958.7508,1085.8509,965.69,1092.84" style="stroke:#181818;stroke-width:1.0;"/><text fill="#000000" font-family="sans-serif" font-size="13" lengthAdjust="spacing" textLength="42" x="931" y="964.4951">caches</text><text fill="#000000" font-family="sans-serif" font-size="13" lengthAdjust="spacing" textLength="219" x="976.0725" y="1082.1448">Dictionary&lt;int,List&lt;CelestialBodies&gt;&gt;</text></g><!--link TUI to Comment--><g id="link_TUI_Comment"><path codeLine="128" d="M1287.99,847.64 C1240.52,895.37 1177.88,945.71 1109,968 C1086.68,975.22 917.96,963.67 898,976 C856.29,1001.77 833.3265,1046.8514 819.3665,1087.0914 " fill="none" id="TUI-to-Comment" style="stroke:#181818;stroke-width:1.0;"/><polygon fill="#181818" points="817.4,1092.76,824.1289,1085.5682,819.0388,1088.0362,816.5708,1082.9461,817.4,1092.76" style="stroke:#181818;stroke-width:1.0;"/><text fill="#000000" font-family="sans-serif" font-size="13" lengthAdjust="spacing" textLength="48" x="1145" y="964.4951">displays</text></g><!--link TUI to CelestialBodies--><g id="link_TUI_CelestialBodies"><path codeLine="129" d="M1349.69,847.62 C1332.1,892.58 1304.47,940.64 1262,968 C1228.34,989.68 1115.8,954.54 1082,976 C1040.99,1002.03 1019.0668,1047.0445 1005.9968,1087.2045 " fill="none" id="TUI-to-CelestialBodies" style="stroke:#181818;stroke-width:1.0;"/><polygon fill="#181818" points="1004.14,1092.91,1010.7289,1085.5897,1005.6874,1088.1555,1003.1216,1083.1139,1004.14,1092.91" style="stroke:#181818;stroke-width:1.0;"/><text fill="#000000" font-family="sans-serif" font-size="13" lengthAdjust="spacing" textLength="43" x="1284" y="964.4951">renders</text></g><!--link Program to Console--><g id="link_Program_Console"><path codeLine="132" d="M1590.85,427.68 C1632.15,465.87 1671.5,510.71 1698,560 C1804.68,758.42 1796.2634,1039.1116 1791.1034,1121.8616 " fill="none" id="Program-to-Console" style="stroke:#181818;stroke-width:1.0;stroke-dasharray:7.0,7.0;"/><polygon fill="#181818" points="1790.73,1127.85,1795.2824,1119.1164,1791.0412,1122.8597,1787.2979,1118.6185,1790.73,1127.85" style="stroke:#181818;stroke-width:1.0;"/><text fill="#000000" font-family="sans-serif" font-size="13" lengthAdjust="spacing" textLength="28" x="1791" y="744.4951">uses</text></g><!--link TUI to Console--><g id="link_TUI_Console"><path codeLine="133" d="M1485.72,847.72 C1581.09,943.09 1708.8674,1070.8674 1761.6174,1123.6174 " fill="none" id="TUI-to-Console" style="stroke:#181818;stroke-width:1.0;stroke-dasharray:7.0,7.0;"/><polygon fill="#181818" points="1765.86,1127.86,1762.3245,1118.6676,1762.3245,1124.3245,1756.6676,1124.3245,1765.86,1127.86" style="stroke:#181818;stroke-width:1.0;"/><text fill="#000000" font-family="sans-serif" font-size="13" lengthAdjust="spacing" textLength="28" x="1596" y="964.4951">uses</text></g><!--SRC=[fLTRJ-Cu57xlhx3oGX6N7r1LHH2OeHBBT6aH3wlLoYI7rajYHxRReJlYl-yvkHGxSIZgz04I-zmltpavOZEUlF8bi1HUX1HMA6a6HNqMVUSPVzi-YLTn7jzD8_PhmF1tn6AbWU49YpDk39ZoEA5dDjDggNdEncDZkHN9P59pqU-C_PEeFESolHN6AhqTiJjyG58jv7BYqgqgWgbCuMt4XBJkfG6kazKSz4OaC69pztL7Ty9-LIQyip-ua4EkbsR4AbL__NqyOWjkNiSesTMxOta0dju92K_2hcfZXySDUuXXnhM1kF9kA6InjWqriWsh9vRawMbzoiYUuw0alBQta1MaSAD46YAwHJKPFCfNgNxAHYsATvH-pXgd3PT5Iy2rbWBJpxZGiFFJZUbUHahrGOppbVfv4EC3OFdeXdKlEH62j0UgsWY3tNCGSwo1MxXIwVOWziSY_HtsQyZWQ-pl0wVJQ-8xjHH9RxlJANReFT-89ITqcTE1I_6CUXVR0aoD1LVr-rI-g4cecQS4KpmJ_q4demxLTx3nMcjCvupRLQ1r7TfunUKIheM6fEppO4ECdvNAWWOjjCZ_N2iBfjFt_Jh9rm-D1S9jYNA83kXO-TZedV6ba1YqDCOy6N8TGoJ0F80f4AtXOlAv_qrbDj4QDmTXncjXYenlgSk7QqIqIiYbUL0AFQCWV2dgb4RIs3Bw8iJrn7MnK7EaJD3DXlCJ7KsD6ABxMjKuN4GpjFIGeg7YHO1sKkPINVJvM065-QQqwsucSc7Bt5rW7fMsFtJgoIx3NzfRIvW4RQtWe2OP9jN_1RnrIh8cwKbasTOjATFKgwtUcguW9SnyolQRDEdYnU9n6eO9HoqX_HMN4dHdzhMeWlFnn1t7sFK5_d4Cd749MJ3WFCD9mKkb_KHrqak29YGDQZLkdp8hR0PVKVgZ07dpPa5Bdjsa0d5WgBIWNizY9IrAwouGfrK3XiJTQ3sKFD-fFiMLpYGVRmBhkMyvE77tdd9aEbsx7H94ttkY6z1sYobSWoX5Li1VjZSwcNwSEVjODt3LmqMta5h3nAiafnqxsEEGKNKWSuBrwjEupH2lH9QYj9WdAnYNXL_bkiKIg7KNH3pxwXPoJjp0EiSOkKIBWhmCtDxawb_XdRyFq83WuewxUhEvruFRjt-FVLUjvBUkTbNWd5ycLcns6r45YE7z0LFbfyy3ckw5YpZExQC1FKq35ruTkr8zInfBzqIYrPLzQdg2TRcsAwNhwTgXyUpnlcSyewgRLW89jQOtSfs3viyPZ1UJ3WVMkfvlZOMyG-rSTVdgi5zRrU7xk9hiBy3pPbcfBFRhST-2uqK0YU5-dJ_JNFNJGpVpPdbopXVA4gAkfGtU49jftqmf7ADmktzuUuILarL0jXA5ORWDOzyMXA0o8S1fFeRFpYR-kZnY4UvM9l8eQ406B_nww90e98dSx-Y8HQtlx6WmyFGJInj6KIv-IgBS3cNKNR4Y7-B2lANRBR3PMT-bhF6WdsBNf_qaUsi9MJNOjIPZ1-qGz1YiuGLm3YIaiSrInYSyIgAGh0H1X0lP9-bQ97J2zROSEE5v4nPCKugSeZ9gnJEjK0TlTvSXBsdoauGZrkmbuN8-FoUV2npdsDc8YaPbE69sII4TUqZ-1m00]--></g></svg>